<?xml version="1.0" standalone="no"?>
<!DOCTYPE svg PUBLIC "-//W3C//DTD SVG 1.1//EN" "http://www.w3.org/Graphics/SVG/1.1/DTD/svg11.dtd" >
<svg xmlns="http://www.w3.org/2000/svg">
<metadata>
This is a custom SVG webfont generated by Font Squirrel.
Foundry     : Michael Tension
</metadata>
<defs>
<font id="webfont4r1DatUq" horiz-adv-x="599" >
<font-face units-per-em="1000" ascent="750" descent="-250" />
<missing-glyph horiz-adv-x="604" />
<glyph unicode=" " horiz-adv-x="604" d="M614 -324h-634v1222h634v-1222z" />
<glyph unicode="&#xa0;" horiz-adv-x="604" d="M614 -324h-634v1222h634v-1222z" />
<glyph unicode="!" horiz-adv-x="605" d="M617 -324h-632v1222h632v-1222zM326 289v37t1 72q0 46 2 102q-3 8 -5.5 19t-12.5 11q-8 0 -21.5 -13.5t-18.5 -26.5v-31v-61.5t1.5 -65t1.5 -40.5q0 -12 7.5 -15.5t18 -3t18.5 6t8 9.5zM352 522q0 1 -3 5q-3 0 -3 1q0 -2 3 -6q3 -7 3 0zM332 551q2 6 -6 3t-11 -8 q-5 -5 4.5 -2t12.5 7zM274 90q0 -17 25 -22q12 -2 32 6.5t22 43.5q3 18 -4.5 30.5t-17 19.5t-20 11t-12.5 4q-10 0 -12 -13.5t-5 -27.5q0 -6 3.5 -9t8.5 -5.5t7.5 -4.5t2.5 -5l-15 -11q-15 -9 -15 -17zM276 172q-5 -4 -7 -9q-7 -10 -7 -18t0.5 -13.5t0.5 -9.5v-15 q0 -5 2 -11q0 2 2 6q3 7 4 12q5 8 2 30t3 28zM351 397q-2 -10 -1 -31.5t1 -43.5v-53h2v5q0 4 1.5 7t1.5 5v66q0 4 -1.5 28.5t-1.5 52.5q-1 32 -1 71v-46q0 -19 -0.5 -36t-0.5 -25z" />
<glyph unicode="&#x22;" horiz-adv-x="447" d="M458 -324h-486v1222h486v-1222zM257 430q4 -4 4.5 -15.5l1 -23.5t5 -21t18.5 -7q13 2 18.5 10t7 17.5t0 19.5t-1.5 17l-2 29t3 42q5 26 13 32t10 12q5 8 11 14t4 15q-5 16 -15 3q-1 -8 2 -11q1 -2 3 -3q0 6 -1 12q-1 5 -2 11t-3 11q-2 4 -10.5 5t-18.5 1q-11 0 -25 -2 q4 1 10 1q12 0 28 -4q9 -1 12 -6.5t3.5 -13t-1.5 -14t-3 -8.5q-2 -5 -5.5 0.5l-7.5 11.5q-1 8 -8.5 14.5t-18.5 8.5q-9 2 -18.5 -4.5t-17.5 -15.5q-4 -6 -5 -13.5t0 -14.5t3 -13t4 -9q3 -12 -2 -25zM167 493q0 3 2.5 7l5.5 9t6 9t3 7q0 7 -7 15t-5 16q1 6 0 13t-9 13 q-6 5 -21 2t-27 -9q-13 -8 -13 -26t2 -32q4 -14 4.5 -33.5t0.5 -36.5q0 -8 -1 -20.5t-1.5 -24.5t-0.5 -21.5t3 -11.5q3 -3 10.5 0.5t15.5 8.5t14.5 11t7.5 9q1 8 -2 14.5t0 17.5q2 4 4 7l4 6zM349 571l4 -145q3 8 3 31t-2 49q-2 30 -5 65zM201 530q1 6 2 8.5t1 3.5l-7 4 l-11 -156q3 34 6 63q2 25 4.5 47.5t4.5 29.5zM197 583q-4 9 -12.5 12.5t-17 4.5t-15.5 0.5t-8 0.5q-4 2 4.5 0t14.5 -2q7 0 17 -8.5t12 -10.5q0 -2 0.5 -9l1 -14.5t2.5 -13.5t5 -5q11 2 7.5 15t-11.5 30z" />
<glyph unicode="$" horiz-adv-x="610" d="M620 -324h-635v1222h635v-1222zM317 476q-2 -3 -1.5 3.5t2.5 16.5t3.5 19.5t1.5 14.5q0 10 -9 21.5t-19 8.5q-11 -4 -22.5 -16t-7.5 -24q2 -13 2 -28.5t-2 -20.5q-3 -4 -16 -9.5t-27 -16t-25.5 -25t-11.5 -38.5q2 -46 20 -73.5t65 -38.5t69.5 -11t27.5 -3q2 -1 8 -9 t11 -19t6 -22t-4 -22q-14 -21 -33.5 -30t-31.5 -9q-10 -1 -16 3.5t-11 4.5q-6 -3 -3.5 -5.5t-4.5 -2.5q-4 0 -13 1.5t-20.5 5.5t-21 11.5t-10.5 16.5q-6 25 -3 35t-6 18q-2 4 -11.5 7t-18.5 0t-14.5 -13t0.5 -26q10 -38 32 -58t30 -28q10 -7 22 -7t13 -5q3 -3 3.5 -14.5 t4 -23.5t10.5 -21.5t19 -8.5q23 3 23.5 14.5t-2.5 22.5q-2 17 6 21q1 2 13.5 2t27 5.5t29 15.5t19.5 33q10 46 12 78t-16 48l-27.5 28.5t-15.5 7.5q-6 -5 -8 -8t-7 -1q-5 0 -25 7t-32 10q-5 2 -18 3.5t-28 6.5t-26.5 12.5t-11.5 21.5q0 29 13.5 39t23.5 14q5 2 16.5 4.5 t25 2.5t26.5 -2t21 -5q14 -8 19 -15.5t8 -16.5q4 -8 4 -13.5t7 -8.5q5 -4 11.5 -2t7.5 -6v-12q0 -3 -1 -6q1 4 4 10q1 7 7 12q5 4 9 4.5t8 3.5q2 3 1 12t-4.5 19t-10 21t-14.5 17t-21 13.5t-25.5 13.5t-22 11t-13.5 3zM446 378q-1 -6 -5 -13q-4 -6 -5.5 -12t-5.5 -9 q-5 -9 -14 -14q-5 -3 -9 -7q13 7 22 13q8 8 14.5 18.5t2.5 23.5zM295 172l-5 -5l7 -6zM463 237q0 -23 -3 -42q-3 -18 -7.5 -36t-15.5 -32q-22 -24 -41 -31.5t-29 -13.5q-9 -4 -11.5 -6.5t-2.5 -7.5q-2 -5 -8.5 -18.5t-10.5 -18.5q-3 -6 3.5 0.5t9.5 14.5q4 8 6 16t10 14 q10 5 33.5 15t38.5 27q17 17 25.5 56.5t2.5 62.5zM255 392q4 4 -4.5 -3.5t-6.5 -11.5q3 -3 5.5 -7t5.5 2q3 2 11 6q4 3 5 4q-5 -1 -10 0q-11 0 -6 10z" />
<glyph unicode="%" horiz-adv-x="654" d="M661 -324h-675v1222h675v-1222zM176 380v-3q-1 0 -5 3q-5 1 -7 3t-6 5q-8 5 -13 16q-17 16 -11 42q3 8 5.5 15.5t6.5 13.5q12 25 23 25q3 0 3 -1t-3 -4q-4 -3 -15.5 -15t-11.5 -41v-4q4 -31 18 -44q4 -4 6.5 -5t5.5 -4q4 -1 5 -1v-1h-1zM214 583v-4q26 -15 45 -34 q16 -17 27 -43.5t8 -62.5q-5 -32 -8.5 -50.5t-6.5 -28t-5.5 -13t-3.5 -4.5l-3 -4q-7 -7 -26 -19t-19 -15l-5 -3h5q1 0 12 1.5t25 16.5q13 12 25.5 40t16.5 85q4 77 -29 112q-19 21 -37 23.5t-21 2.5zM492 495q0 11 -4.5 24t-10.5 17q-4 4 -6.5 4.5t-8.5 -8.5 q-5 -7 -16 -14.5t-31 -48.5q-8 -19 -33.5 -59.5l-51 -81.5t-49.5 -75.5l-29 -41.5q-6 -8 -17.5 -26l-23.5 -37.5l-23 -38l-16 -27.5q-20 -37 -8 -45q2 -4 10.5 5t19 23t21 29.5l19.5 28.5l24 35.5l42.5 62.5l53 75l52.5 73.5l41.5 59l20.5 28.5q24 29 24 38zM242 82 q10 3 33.5 36t48.5 74q28 45 61 104l-79 -108q-30 -41 -51 -74t-13 -32zM207 570q-3 0 -3 -6q-44 0 -57 -7l-5 -2q-7 -3 -17 -11t-20 -23.5t-14.5 -42t1.5 -71.5q5 -49 26 -67.5t42 -22.5q24 -2 47 4.5t25 10.5q2 2 2 3q3 4 19.5 30t17.5 55v3q0 34 -12.5 70t-21.5 48 q-15 25 -21 27.5t-9 1.5zM145 374q8 -4 9 -6h-1q1 -3 12.5 -10t26.5 -1q18 6 33.5 23t14.5 59q-3 42 -18.5 60t-31.5 23q-13 3 -19 1.5t-9 -5.5l-2 -1q-45 -34 -44 -72q2 -35 13.5 -52t15.5 -19zM466 94v-3q-1 0 -5 2q-7 4 -12 9q-4 3 -7.5 6.5t-6.5 8.5q-16 18 -11 42 q6 21 12 29q7 15 13 21t10 7l3 -1v-3v-1q-1 -2 -3 -2l-15.5 -16t-11.5 -38v-5q3 -30 18 -45q5 -5 12 -8q4 -3 6 -3v-1zM504 296v-4q25 -15 45 -34q15 -17 26.5 -43t8.5 -60q-5 -32 -8.5 -50.5t-6 -28t-5.5 -14.5t-4 -6l-3 -1q-3 -4 -10 -9.5t-16 -11.5l-19 -13l-5 -4h5 q2 0 12 2t25 15q14 13 26 40.5t16 83.5q3 79 -28 112q-19 20 -37.5 23.5t-21.5 2.5zM497 284q-2 -3 -2 -7q-22 3 -36 1t-21 -6l-6 -3l-17 -11t-20.5 -23t-13.5 -43t1 -71q6 -47 27 -65.5t41 -22.5q24 -5 47.5 2.5t24.5 9.5l3 4l18.5 29t17.5 57v4q0 31 -12 68.5t-22 49.5 q-15 24 -21.5 25.5t-8.5 1.5zM435 90q8 -4 10 -9l-2 1q2 -1 13.5 -8t26.5 -2q16 6 32 22t14 61q-2 40 -17.5 58.5t-31.5 23.5q-12 4 -18.5 2t-10.5 -5l-1 -2q-46 -33 -43 -74q1 -35 12.5 -51t15.5 -17z" />
<glyph unicode="'" horiz-adv-x="280" d="M289 -324h-317v1222h317v-1222zM105 429q5 -4 5 -15.5t1 -23.5t5.5 -21t17.5 -7t19 9.5t7.5 17.5t0 20l-2.5 17q-1 14 -1 29t4 42q1 13 4.5 20t7 11.5t6.5 7.5t4 6q4 7 10 13t5 15q-3 9 -7 9t-8 -8q-2 -4 -1 -6l2 -4t3 -2q0 6 -1 12q-1 5 -1.5 11t-2.5 11q-2 4 -11 4.5 t-19 0.5q-11 -1 -25 -2q5 1 11 1h12t15 -2q9 -2 12 -8t3.5 -13t-1.5 -13.5t-3 -8.5q-1 -5 -5 1t-7 12q-2 6 -9.5 13t-16.5 10q-9 1 -19.5 -6t-18.5 -16q-4 -5 -4.5 -12.5t0.5 -14.5t3 -13t4 -9q1 -5 0.5 -11.5t-3.5 -12.5zM198 570l5 -147q2 8 2 32t-2 50q-2 30 -5 65z" />
<glyph unicode="(" horiz-adv-x="369" d="M375 -324h-392v1222h392v-1222zM302 51q-17 -1 -30.5 3.5t-23.5 11t-17 13t-7 8.5q-2 6 -16 16q-4 1 -14 12.5t-21 34.5t-20.5 56.5t-10.5 79.5q-3 42 11 77.5t34 60t37.5 39.5t20.5 19q9 6 22.5 13t38.5 0q4 -1 9 3q4 3 6 9t1 23q-1 13 -8 19q-4 4 -10 6l-42 -4.5 t-35 -10.5q-11 -8 -32.5 -20.5t-42.5 -47.5t-33.5 -99t-2.5 -174q8 -68 27.5 -108.5t47.5 -61.5t58.5 -26.5t56.5 -1.5q5 0 9 3q7 8 7 27q-1 19 -12 23q-6 1 -8 -3zM177 297q-11 -50 1.5 -86t31.5 -61q21 -28 54 -47q-21 11 -38 30q-15 17 -27.5 49t-13.5 86q-1 52 9 86.5 t23.5 56.5t24 31.5t10.5 10.5q-2 1 -10.5 -3t-20 -21.5t-24 -49.5t-20.5 -82z" />
<glyph unicode=")" horiz-adv-x="381" d="M396 -324h-418v1222h418v-1222zM63 549q-8 0 -12.5 -9.5t-4.5 -21.5q-2 -14 5.5 -22.5t11.5 -8.5q6 0 9.5 0.5t7.5 -0.5q26 -4 47.5 -24t37 -49.5t23 -66.5t7.5 -68q0 -36 -8 -74t-24.5 -68.5t-37.5 -50.5t-44 -20q-5 -2 -9 -7q-11 -11 -10 -33q0 -15 2 -19t5 -8 q4 -3 9 -1q41 3 71 24t43 56q13 30 24.5 67t17 74.5t5.5 73t-9 63.5q-29 113 -80 166q-24 24 -41 36t-8 -9q0 -1 -14 -0.5t-24 0.5zM176 552q-43 32 -72 42q-15 5 -30 5q7 -4 15 -6q4 -4 11.5 -6.5l10.5 -3.5q4 0 21 -11.5t36.5 -28t39.5 -39.5t28 -46q7 -24 14.5 -54.5 t11.5 -64t6 -65.5t-2 -59q-7 -50 -19.5 -92t-54.5 -89q-21 -23 -42 -37.5t-39 -23.5q-19 -10 -39 -16q32 10 63 25q28 14 55 36t44 57q17 33 25.5 74.5t13 80.5t3.5 70t-4 44q-1 12 -7.5 40.5t-19 60t-30 60.5t-39.5 47z" />
<glyph unicode="*" horiz-adv-x="527" d="M540 -324h-557v1222h557v-1222zM384 421q-8 1 -24 -1.5t-31.5 -6t-29 -8t-15.5 -4.5q0 2 -2 4q-3 4 -4 4l66 37q5 5 9.5 5.5t12.5 11.5q7 8 6.5 19t-6.5 18q-8 9 -20 16t-26 -3q-14 -6 -19 -20t-9 -18q-2 -5 -5 -10q-7 -11 -13 -18v54q0 8 2.5 11.5t1.5 15.5 q-4 25 -23 29q-10 0 -21.5 -5t-14.5 -18q-4 -17 1.5 -31t5.5 -19v-49q-9 0 -11 1q-5 -4 -18 -6t-28 -2.5t-27 -0.5h-16q-9 -5 -13.5 -4t-0.5 -2q3 -4 -1 -8t-7 -8q0 -7 5 -12q4 -4 8 -6q0 -3 3 -7q6 -9 11 -12q1 0 12 1t24 3t25 3t22 1q-7 -6 -20.5 -15.5l-26.5 -18.5 l-22.5 -16t-12.5 -9q-5 -9 -0.5 -11t7.5 -2q0 -13 8 -22q8 -8 13 -5t9 10h16q2 0 7.5 8l12.5 18t14 21.5t12 17.5q0 -11 -2 -24.5t-2.5 -28t-1 -26t-0.5 -14.5q1 -8 4.5 -6t4.5 5q11 -11 21 -11q9 0 10.5 5.5t-1.5 14.5q8 7 10 10v12.5t-1 21.5t-2.5 23.5t1.5 18.5l2 11 q6 -12 15 -27t20 -24.5t20.5 -10t16.5 14.5q0 -7 4 -18q1 -6 5 -8q6 12 9 23q4 8 3 17t-10 13q-2 -3 -3 -6q-4 -7 -4 -11q-1 7 -11.5 9t-19.5 10q-8 5 -15 10l-15 11h66q7 0 12 -4t17 0q9 4 16.5 12.5t9.5 18.5q1 18 -26 27zM189 465q3 0 -0.5 8l-8.5 19q-7 9 -14 25 q-23 -17 -15 -33q8 -10 20.5 -14.5t17.5 -4.5zM198 484q0 10 -9 23q-5 6 -10 10l4 -6q2 -13 6 -19q7 -18 9 -8zM392 428q-7 12 -14 12q-4 0 -6 -4z" />
<glyph unicode="+" horiz-adv-x="607" d="M617 -324h-634v1223h634v-1223zM440 276q-12 0 -27 -5.5t-30 -8.5q-4 -2 -19.5 -8.5t-21.5 -6.5q-4 0 -10 1.5t-11 1.5q-3 7 -8.5 9.5t-5.5 10.5q0 10 9 30.5t9 21.5q0 7 3.5 13t3.5 16q0 8 -7 21.5t-26 16.5q-16 4 -31.5 -5t-17.5 -22q0 -15 3 -22.5t5 -15.5t4.5 -17 t1.5 -22v-30l-37 5t-16 2q-5 0 -17.5 3t-25.5 -1q-15 -4 -24.5 -15t-5.5 -21q8 -20 24 -19.5t19 0.5q4 0 28 -0.5t55 -0.5v-75q0 -5 -8 -15t-4 -24q4 -15 16 -26.5t31 -6.5q22 4 21 22t-1 23q0 2 1 31.5t3 67.5q30 -1 52.5 -1h26.5q7 0 13 -3.5t16 -3.5q8 0 20 7t16 23 q3 18 -4.5 33.5t-22.5 15.5zM375 175q-7 0 -11.5 -0.5t-8.5 -0.5h-10q3 -3 13 -3t21.5 1t20.5 1.5t8 0.5q-5 0 -11.5 0.5t-21.5 0.5zM204 185q-1 0 3 -2t10 -3t13.5 0t9.5 5h-25h-11zM481 253v-38q0 8 1 15q0 8 1.5 14t-2.5 9z" />
<glyph unicode="," horiz-adv-x="604" d="M615 -324h-632v1222h632v-1222zM350 125q0 13 -9.5 31.5t-24.5 18.5h-20t-9 -8q-3 -10 -1.5 -20t0.5 -17q-2 -8 -8 -11.5t-6 -11.5q0 -9 3 -14t3 -13q0 -5 -5 -10t-6 -10q-4 -6 -5.5 -14t1.5 -11q4 -4 8 -9.5t13 -2.5q8 1 22 12.5t24 21.5q2 5 5.5 16l7.5 23zM280 172 q-2 0 -6 -4q-7 -7 -7 -13v-17q0 -5 1 -6q1 8 6 16q4 7 4.5 13t1.5 11zM372 144q0 -16 -3 -30q-1 -12 -4 -26.5t-8 -22.5q-8 -18 -15 -24l-6 -6q15 14 25 33q8 16 12.5 35t-1.5 41z" />
<glyph unicode="-" horiz-adv-x="610" d="M620 -324h-635v1222h635v-1222zM253 310q-13 3 -41.5 3t-36.5 -3q-9 -3 -8 -7t4 -8l13 -9.5t6 -11.5q0 -6 -7 -10l-6 -3q0 -5 4 -9q1 -7 9 -10q6 -4 23.5 -3t29.5 1h132q7 0 11.5 -3.5t16.5 0.5q13 1 19 10.5t7 20.5q3 11 -2.5 28t-20.5 22q-14 5 -28 -1.5t-18 -6.5h-48 q-20 0 -37 -1.5t-22 1.5z" />
<glyph unicode="." horiz-adv-x="605" d="M619 -324h-634v1222h634v-1222zM265 104q0 -18 26 -23q14 -2 33.5 5.5t23.5 44.5q1 18 -7 30.5t-17.5 19.5t-20.5 10.5t-13 3.5q-10 0 -12.5 -13t-4.5 -28q0 -7 3.5 -9.5t8.5 -4t9 -3.5t4 -6l-18 -10q-15 -9 -15 -17zM267 184q-5 -3 -7 -8q-8 -11 -8 -18q0 -9 2 -14t2 -9 v-26q0 2 1 4q4 8 5 14q5 8 2 29t3 28z" />
<glyph unicode="/" horiz-adv-x="611" d="M619 -324h-633v1222h633v-1222zM502 495q0 11 -6.5 23t-10.5 18q-2 4 -5 4.5t-8 -7.5q-6 -9 -18 -16t-31 -48q-10 -19 -34 -59.5l-50.5 -81.5l-50.5 -75.5l-29 -41.5q-6 -8 -17.5 -26l-23.5 -37.5l-23 -38t-15 -27.5q-9 -19 -13.5 -29.5t4.5 -15.5q4 -4 12.5 5t18 23 l20 29.5l19.5 28.5l24 35.5l42.5 62.5l53 74.5l52 73l41.5 59t20 29.5q28 30 28 38zM252 82q7 5 30 39l47 73l65 102l-80 -111q-13 -22 -26 -41l-23 -34t-13.5 -23t0.5 -5z" />
<glyph unicode="0" horiz-adv-x="608" d="M619 -324h-633v1222h633v-1222zM349 543q-5 -1 -3 -6.5t-4 -5.5h-16.5t-33 -1t-36 -3.5t-28.5 -8.5q-11 -5 -32 -16t-41.5 -42t-32.5 -87t-1 -149q6 -62 28.5 -98t51.5 -53t61.5 -20t61 2t46 11.5t19.5 8.5l2 9q21 25 36 53q15 25 26.5 55t12.5 61q1 32 -6.5 68t-18 70.5 t-23 60.5t-19.5 39q-14 25 -29 40.5t-21 11.5zM427 287q2 -48 -8.5 -81t-27 -55t-36 -32t-37.5 -17t-35 -5t-29 9t-19.5 13.5t-7.5 8.5q-3 7 -18 12q-4 3 -13 13t-20.5 29.5t-21 48.5t-12.5 66q-1 38 13 69.5t33 52.5t36.5 33t22.5 16q10 7 25 13t41 -3q16 -4 35 -15 t36.5 -33t30 -56.5t12.5 -86.5zM183 313q-8 -44 3 -76.5t30 -54.5q20 -24 50 -42q-20 7 -36 27q-14 15 -25.5 44.5t-12.5 75.5q-2 47 7.5 78t22 49.5t22.5 27.5t10 10q-1 1 -9.5 -3t-18.5 -19t-22 -44t-21 -73zM319 571q59 -28 101 -67q35 -36 61.5 -89t15.5 -123 q-11 -69 -19 -107t-14.5 -55t-13 -22.5t-12.5 -12.5q-9 -9 -25 -19.5l-34 -21.5l-43 -27q43 4 78 34q30 25 58 81t35 160q5 104 -24 159.5t-64 80.5q-44 28 -100 29z" />
<glyph unicode="1" horiz-adv-x="590" d="M610 -324h-632v1222h632v-1222zM304 267q0 -17 -2 -44.5t-5 -54.5t-4 -49t-1 -28q1 -12 5.5 -26t29.5 -13q12 0 15.5 11.5t1.5 26.5t-5.5 29.5t-3.5 19.5v39v70.5t1 70t1 38.5q0 5 1 25.5t2 44.5t1.5 45t0.5 28t-1.5 15t-3.5 12q-3 8 -5 12q2 3 5 5q4 1 6 3t4 2 q5 1 13.5 -6.5t3.5 5.5q-6 9 -19 20q-8 6 -15 10l12 -9v-6q0 -6 -3 -13q-5 -6 -10 -7t-13 -1q-5 0 -16.5 -11.5t-22.5 -27l-22 -30t-12 -19.5q-5 -6 -11 -15.5t-13 -17.5q-6 -11 -17 -23q5 -2 12 -2q11 -4 19 0q7 3 16 18.5t13 21.5q11 15 26 11q2 0 4 -22t5 -51.5t5 -59 t2 -47.5zM375 94v32t0.5 78t0.5 98.5v100.5t-0.5 79.5t-0.5 32.5q-3 5 -3 12q0 3 -1 4z" />
<glyph unicode="2" horiz-adv-x="602" d="M612 -324h-635v1222h635v-1222zM181 372q9 5 12 15l6 20q0 9 -9 6q-3 -1 -7 -6q0 2 1 6q0 1 4 12q3 7 29 28t73 23q45 2 65.5 -19t34.5 -56q8 -18 -6.5 -36t-37.5 -33.5t-47.5 -27.5t-36.5 -19q-26 -15 -48.5 -36t-43.5 -51q-10 -14 -14.5 -37t-4.5 -43.5t1.5 -37 t5.5 -16.5q11 -5 37 -9q7 0 37.5 -2.5t66 -4.5t65.5 -3t35 -1q9 0 18.5 -5t18.5 -5q8 0 25 11.5t23 21.5q3 9 -4.5 27t-24.5 25q-16 6 -36 -4.5l-29 -15.5q-6 -1 -22 -1t-36.5 1.5t-38.5 3t-22 1.5q-12 0 -20 2.5t-18 -0.5q-7 -1 -16.5 -4t-17.5 -1q-9 3 -8.5 9t4.5 21 q1 7 12 23t26 34.5l28.5 34t23.5 22.5q7 7 27.5 19.5l43 26l42 25.5t25.5 21q4 8 8 25t4.5 36.5t-1.5 38t-5 26.5q-4 10 -19 22l-30 25l-42 28l4 -16q-15 3 -28 7t-24.5 5.5t-15.5 1.5q-5 0 -17.5 -1.5t-29 -7t-34 -17t-31.5 -30.5q-15 -22 -19 -41t-4 -35t3.5 -25.5 t7.5 -11.5q12 -3 31 5zM266 450q-11 0 -19 -2q-21 -4 -26 -16q-4 -14 -8 -30q-2 -7 -2 -15l2 1l-2 -1q0 -3 -1 -3t-1 -1q-3 -7 -8 -15t-7 -10q-4 0 -8.5 -0.5t-8.5 -4.5q-5 -4 -8 -8l-4 -8q11 4 18 9q7 3 13 7.5t10 11.5q8 11 9.5 29.5t16.5 36.5q15 13 24 17q6 2 10 2z M465 388q-4 -24 -11 -43l-12 -34.5t-15 -20.5l-22.5 -14t-29.5 -17l-28 -14.5t-18 -10.5q-6 -2 -21 -11.5t-32 -22t-31.5 -24.5t-18.5 -21q-6 -13 -2 -13q1 0 2 1q4 3 10 4q11 4 20 4q4 -2 11 -2h13h13l-49 10q4 6 11 13q8 8 23 19l23 15.5l37.5 24.5l38.5 24.5t25 14.5 q15 9 27.5 22t18.5 24q5 6 6 18t5 24q3 14 6 30zM485 40q-4 0 -7 -2l-13 -7q-11 -6 -15 -6q-3 -3 -7 0q12 0 22 1q19 3 20 14z" />
<glyph unicode="3" horiz-adv-x="602" d="M610 -324h-634v1222h634v-1222zM188 422q3 9 18 23t45 29q14 7 39.5 4t50.5 -12.5t42 -26.5t17 -36q0 -40 -26 -60.5t-43 -20.5q-10 -2 -16.5 2.5t-13.5 8.5q-8 5 -15 11q-3 0 -6 -3q-1 0 -8 -12q-2 -3 -2 -11t1 -17t4 -15l4 -8q5 -3 26.5 -8t40.5 -7q20 -4 33.5 -16 t20.5 -24q3 -5 9 -25.5t1 -42t-26.5 -39.5t-73.5 -18q-50 0 -76.5 8.5t-37.5 18t-11 20v16.5q0 9 -0.5 12.5t-10.5 13.5q-8 8 -14 16t-20 8q-8 0 -9 -9.5t-0.5 -24t3 -28.5t8.5 -24q3 -10 16.5 -25t34.5 -29t48 -22.5t60 -8.5q31 0 59 10t49 27.5t34.5 41.5t13.5 54 q0 27 -9.5 49.5t-20.5 36t-20.5 21t-9.5 8.5q0 4 10.5 19l19.5 27q8 12 13 39.5t3 37.5q0 6 -8.5 26.5t-25.5 41.5t-43.5 38.5t-63.5 17.5q-35 0 -63.5 -12t-47.5 -30t-30.5 -37.5t-15.5 -31.5q-7 -26 0.5 -34t15.5 -7q13 3 18.5 16.5t8.5 22.5zM275 444q-10 0 -20 -3 q-24 -2 -33 -17q-10 -14 -12 -26t-14 -22q-12 -8 -21.5 -10.5t-9.5 -8.5q-3 -4 16 2t31 27q6 11 10 20.5t10 17t15.5 12.5t27.5 8zM443 305q3 9 9 15q4 7 8 13t8 13q3 6 4 12.5t3 14.5q1 7 2 15q-12 -19 -19 -36l-11.5 -28t-3.5 -19zM227 163q-2 7 -7.5 6.5t-9.5 6.5 q-3 6 -7.5 21t-11.5 21q-6 4 -13 7q-4 2 -6 2q2 -5 8 -11q4 -4 7.5 -8t7.5 -8q3 -8 9 -22.5t15 -20.5q8 -7 13 -12t5 1l-6 11zM482 161q-6 -26 -13 -45q-6 -18 -17 -33.5t-26 -25.5l-28 -12.5l-17 -7.5q-7 -4 -11 -5q12 0 29 5q12 3 28 11.5t30 29.5q14 17 19.5 33t6.5 27 q3 12 -1 23z" />
<glyph unicode="4" horiz-adv-x="605" d="M619 -324h-634v1222h634v-1222zM404 517q-5 12 -12.5 16t-10.5 10q-4 1 -4 9v4q-1 -3 -1 -7q-2 -2 -2 -5t-2 -4q-3 -4 -17.5 -12.5t-18.5 -16.5q-1 -5 -5 -14.5t-11 -22.5t-11.5 -23t-7.5 -16q-1 -5 -23 -31.5l-47.5 -57.5l-48.5 -59t-26 -35q-7 -16 -11.5 -28t-8.5 -20 q-3 -9 -6.5 -29t-7.5 -24l-5 -5h89h65t34 1q8 3 19 12.5t16 5.5q13 -8 13 -18q0 -1 -2 -16.5t-2 -34t2 -34.5t8 -18q15 -5 18.5 -5t11.5 7q10 9 14 14.5t1 20.5l-10 43t1 29q7 2 20.5 -4t21.5 -10q19 -5 35 7q19 12 19 35q0 14 -15.5 31.5t-22.5 16.5q-9 -4 -12 -6t-15 -11 q-12 -6 -19.5 -15t-10.5 -2q-1 4 -1 19.5v35v38t-2 29.5t-2 34v48t1 46.5t4 26.5q4 5 4 12.5t2 14.5q0 7 2 18zM354 188q-1 -8 -8 -7.5t-16 4.5q-9 3 -16 6.5t-18 3.5q-10 3 -35 3t-52 -5q-15 -1 -20.5 -1t-7 1.5t-0.5 4t-1 5.5q-4 5 10.5 27t26.5 35q5 7 17.5 20t24 28 l22.5 29.5t13 19.5q4 4 11.5 15t16 22t15 17.5t10.5 5.5q6 -6 8 -41t2 -76t-1.5 -76.5t-1.5 -40.5zM282 287q-16 -12 -28 -24q-10 -11 -20 -20t-10 -13q-2 -5 15 0.5t26 5.5h17q6 0 10 2q-17 -2 -29 -2q-11 0 -17.5 1t-4.5 5q5 4 11 12.5t13 16.5q6 9 17 16z" />
<glyph unicode="5" horiz-adv-x="605" d="M618 -324h-634v1222h634v-1222zM417 519q0 15 -11 31.5t-24 16.5q-14 0 -20 -5.5t-21 -8.5q-7 -1 -22 -2.5t-32.5 -2t-32.5 -1t-22 -0.5q-12 0 -29 0.5t-25 0.5t-8.5 -3.5t-0.5 -20.5q0 -10 0.5 -37t0.5 -57t1.5 -54.5t1.5 -29.5q0 -10 -3.5 -17.5t-0.5 -13.5 q4 -9 31.5 -4t46.5 8q10 2 33.5 2t49.5 -9.5t44 -31t18 -63.5q0 -43 -19.5 -66.5t-43 -35t-45.5 -13.5t-29 -2q-5 0 -18.5 4.5t-26.5 10l-24 10.5t-12 9l-9 20t-14 22q-7 9 -16 12.5t-15 -1.5q-6 -4 -4 -13.5t6 -20.5q4 -6 13 -21.5t26 -34t43 -32.5t65 -14t70.5 17.5 t54.5 43.5t35 54.5t12 54.5q0 44 -24.5 86.5t-60.5 61.5q-38 19 -60 21.5t-41 -2.5q-9 -4 -18 -10t-15 -11t-11.5 -7t-8.5 3q-4 6 -4.5 20t-0.5 30.5t0.5 31.5t0.5 22q0 14 -2.5 14t2.5 3q2 3 19.5 3.5t38 0.5t40 -0.5t27.5 -0.5q15 0 42 -4t36 0q5 1 12 19zM234 458 q-2 -12 -2 -21q-2 -8 -2 -15.5t2 -7.5q2 -2 13.5 1t27 3.5t35 0.5t34.5 -7q16 -7 34.5 -19.5t35.5 -29t29 -34t18 -32.5l11 -44q-2 33 -15 62q-10 24 -31 51t-60 46q-38 19 -63 24t-39.5 5.5t-20.5 2t-7 14.5zM247 164q4 1 1 1t-9.5 1.5t-14.5 4t-13 6.5q-11 14 -29.5 27 t-14.5 8q2 -1 8.5 -10t17.5 -19t25 -16t29 -3zM211 278q2 0 11.5 2.5t20 4.5t16.5 5t5 4q-2 0 -10.5 -2.5l-19.5 -5.5t-18.5 -5.5t-4.5 -2.5zM472 233q3 -23 -2 -42q-4 -18 -13 -37.5t-23 -36.5q-13 -17 -32 -30l-34 -24q-20 -12 -38 -20q35 7 68 27q24 20 48 57.5t26 105.5 z" />
<glyph unicode="6" horiz-adv-x="595" d="M602 -324h-634v1222h634v-1222zM272 452h27q-11 6 -18 5q-5 -3 -9 -5zM229 434q-6 0 -12.5 -8t-12 -17.5t-9 -18.5t-6.5 -14q-5 -18 0 -18q3 0 7.5 5.5t13.5 10.5l17 14l-3 -7q22 5 41 8q18 4 39 3.5t40 -8.5q20 -8 35.5 -15t26.5 -16l23 -18q-17 18 -38 31 q-15 14 -33 23.5t-33 10.5q-14 1 -33.5 0.5t-36 -2t-28 -1.5t-11.5 3q2 1 5 7.5t6.5 13t5 10t-3.5 3.5zM216 241q-12 -8 -15.5 -13t-3.5 -7q0 -4 3 -6q0 -3 -1 -5q-4 -7 -4 -12q-2 -5 9.5 -11.5t25.5 -16.5q16 -8 35 -19q-11 11 -19 18q-9 7 -16 13t-8 10q-6 3 -8 5t0 11 q0 4 8 13l17.5 19t17 16.5t4.5 6.5q-8 -3 -15 -3.5t-30 -18.5zM474 132q16 33 16 63t-8 51q-9 25 -26 45q5 -8 9 -15q6 -17 13 -31q8 -16 6 -42t-18 -75q-10 -24 -31 -41.5t-44 -31.5q-25 -16 -55 -27q25 5 53 18q23 10 45 30.5t40 55.5zM349 572q3 0 8 -1q3 -1 9 -4t16 -7 q8 -4 21.5 -13.5t23.5 -19t17.5 -15.5t5.5 -3q-18 25 -35.5 36t-31.5 19q-17 7 -34 8zM448 412q13 6 13.5 27t-5.5 28q-2 4 -14.5 16.5t-32.5 27t-46.5 26t-58.5 11.5q-62 0 -109.5 -45t-65.5 -104q-8 -30 -10.5 -77t5.5 -97.5t30.5 -93.5t63.5 -64q40 -21 77 -21t66 12 t49.5 32.5t26.5 41.5q7 21 11 46.5t0 51.5t-15.5 48t-33.5 38q-46 30 -64 33.5t-28 0.5q-7 -4 -27 -5t-34 -1q-15 2 -19.5 4t-8.5 -2l-9.5 -10l-16 -17t-17.5 -15t-13 -6q-11 2 -17 18t-1 26q7 11 10 2.5t5 -5.5q3 0 5 13.5t9 31t15.5 34.5t23.5 27q30 16 61 30.5t61 3.5 q27 -8 41.5 -31.5t29.5 -31.5q22 -15 43 -4zM200 256q27 41 111 35q44 -4 70.5 -26.5t30.5 -61.5q1 -22 -10 -40t-26.5 -32.5t-34.5 -22.5t-37 -5q-35 2 -52 14.5t-41 28.5q-25 15 -31 32t-8 32q2 5 8 12q2 5 7 14t13 20z" />
<glyph unicode="7" horiz-adv-x="611" d="M619 -324h-634v1222h634v-1222zM159 573l-9.5 -9.5t-2.5 -9.5t2 -11t2 -13q0 -7 -3.5 -13t-0.5 -10q0 -2 26.5 -2t59 1t62 3t35.5 2q15 1 20.5 5.5t15.5 6.5q12 0 25.5 -6t12.5 -25q0 -10 -11.5 -24t-28 -32t-34 -39.5t-27.5 -47.5q-12 -27 -20.5 -54.5t-14.5 -53 l-10 -43.5t-4 -23q-1 -8 -4 -11.5t3 -3.5q9 0 9 -11q-3 -4 -12.5 -21.5t-2.5 -31.5q10 -15 14 -16.5t17 1.5q14 6 18 10.5t3 16.5q0 6 -2 27t-0.5 47.5t4 53.5t10.5 45q7 16 21.5 40.5l30 50t34.5 47t34 33.5q34 25 38 29.5t4 12.5v14.5t-0.5 22.5t-2 23t-5.5 16 q-10 8 -14.5 13.5t-12.5 3.5q-4 -4 -15 -9l-18 -8q-4 -1 -23 -1h-42t-44.5 0.5t-30.5 0.5h-26t-35 2q-21 0 -45 1zM501 517l-2 -17q-3 -7 -3.5 -14.5t-2.5 -10.5q-2 -4 -16 -17.5t-31.5 -33t-35 -41.5t-28.5 -39q-11 -21 -20 -42t-14 -39.5t-8.5 -30t-3.5 -8.5q0 2 8 26 t25 59t45.5 76t70.5 78q10 8 12.5 17t3.5 18q2 9 0 19z" />
<glyph unicode="8" horiz-adv-x="594" d="M602 -324h-634v1222h634v-1222zM292 547q-21 0 -43 -6t-44 -21.5t-36.5 -40.5t-16.5 -62q-1 -36 6.5 -54t17.5 -26.5t19 -13.5t9 -13t-10.5 -12t-21 -14.5t-19.5 -33.5t-9 -66q1 -45 20 -71t47.5 -40t60.5 -18.5t58 -4.5q24 0 50 9.5t46 27t32.5 42.5t12.5 55 q0 31 -9.5 51.5t-20.5 35.5t-20.5 23.5t-9.5 15.5t7 15.5t15 22.5t14.5 35t6.5 50q0 31 -18 52t-44.5 35.5t-54.5 20.5t-45 6zM377 341q-20 -8 -52.5 -6.5t-53.5 6.5q-8 3 -22 7.5t-26.5 13.5t-21 22.5t-8.5 31.5q0 17 15 29.5t34 20.5t40.5 11.5t30.5 3.5q13 0 30 -5 t31.5 -14.5t26 -23.5t11.5 -33t-5 -31t-12 -21q-7 -6 -18 -12zM426 189q0 -10 -5 -24.5t-16.5 -27.5t-31.5 -23t-50 -10q-60 -3 -98 27.5t-42 76.5q-1 23 5 37t15.5 22t17.5 10.5t13 2.5q6 2 18.5 2t23.5 -2q12 -1 31 -1t29 3q11 4 16.5 5t12.5 -1q4 -2 13.5 -10t19.5 -21.5 t19 -28.5t9 -30v-7zM476 110q-15 -30 -37.5 -45.5t-45.5 -25.5q-27 -8 -57 -12q17 3 33 5q14 4 28 7t28 10q27 12 46.5 41t28.5 90q3 30 -1.5 55.5t-14.5 44.5q-11 22 -26 41q3 7 9 13q10 15 16 25q2 5 1.5 14.5t-0.5 20.5q-1 11 -1 24q0 -12 -2 -20q-2 -9 -3 -18t-2 -16 q-5 -15 -18 -31q-6 -7 -12 -16q21 -12 33 -36t14.5 -53t-1.5 -59.5t-16 -58.5zM229 412q-1 6 7 15t18 17q12 7 28 15l-34 -13q-12 -7 -22 -16t-10 -20t12 -19.5t27.5 -14t29.5 -7t11 1.5q-3 4 -12.5 7.5t-21 9t-21.5 11.5t-12 13zM240 164q-1 4 -5 8q-7 7 -8 17 q-3 7 -1.5 17.5t2.5 20.5q1 13 1 25q-17 -18 -18 -33t6 -27q7 -13 23 -28zM277 133q0 1 -1 5q-2 4 -7 8q-4 4 -7.5 4t-7.5 2q-6 0 -7 2q5 -8 12 -12q15 -11 18 -9z" />
<glyph unicode="9" horiz-adv-x="595" d="M604 -324h-633v1222h633v-1222zM214 155q-4 10 1.5 12.5t-8.5 12.5q-15 8 -17.5 6.5t-2.5 3.5q0 4 -1.5 14.5t-5.5 6.5q-3 -3 -3 -7v-5q-11 -6 -17 -13q-7 -5 -12.5 -14t-5.5 -20q0 -9 11.5 -28.5t30.5 -37.5t45 -29.5t51 -7.5q27 3 52.5 7.5t47.5 19t40.5 41t30.5 71.5 q13 46 15 93t-4.5 89t-20.5 74.5t-33 49.5q-41 31 -61.5 42.5t-24.5 10.5l-6 -4q-2 -2 0 -2q-25 2 -49 -3q-22 -4 -44.5 -12.5t-39.5 -22.5q-17 -16 -27.5 -38t-14.5 -45.5t-3.5 -45t9.5 -34.5q7 -12 19.5 -29.5t31.5 -32t46.5 -26t64.5 -10.5q36 3 50.5 4t17 5.5t-2 7.5 t-4.5 6q0 9 -3.5 7t-2.5 8q5 7 13 14.5l11 10.5q4 4 -7.5 -5t-22.5 -9q-6 0 -23.5 2.5t-37 5l-36.5 4.5t-21 6q-8 8 -9 11t-5 7t-4 2.5t-8 8.5q-6 2 -14 11t-14 20.5t-6.5 26t7.5 27.5q9 12 29.5 23.5t43 20t44.5 9.5t33 -3q25 -9 49.5 -28t33.5 -65q4 -23 6 -51t2 -53.5 t-2.5 -46.5t-9.5 -32q-5 -11 -16.5 -28t-28 -32.5t-37.5 -27t-47 -10.5q-26 3 -40 12.5t-22 17.5q-10 11 -11 26zM168 228q9 -5 16 -10q7 -3 13 -8.5t10 -10.5q6 -11 16 -32t21 -27q5 -3 9 -5t8 -3q3 -3 6 -3l-22 18q-8 9 -14 18t-5 17q1 10 4.5 12.5l7.5 5.5q6 3 10 4 q-6 0 -11 1q-4 3 -10 3.5t-12 3.5q-5 3 -12.5 5.5t-17.5 5.5q-8 4 -17 5zM222 393q-3 17 6 27t21 18q14 7 31 10q-20 0 -40 -7q-15 -6 -28.5 -15.5t-13.5 -26.5q-2 -19 13.5 -32.5t36.5 -22.5q20 -10 49 -17q-19 7 -36 17q-13 9 -24 21.5t-15 27.5zM458 105q6 11 18 43 t21.5 76t11 93.5t-15.5 98.5q-17 52 -41.5 80t-47.5 44q-29 17 -57 24l27 -16q11 -7 23 -13.5t24 -16.5q11 -8 17.5 -13.5t11.5 -15t12 -26.5t21 -48q12 -33 16 -70t0 -74t-14.5 -75t-22.5 -69q-15 -32 -39.5 -52t-48.5 -33q-30 -14 -61 -21q13 -3 36.5 5t45 22.5t40 30.5 t23.5 26z" />
<glyph unicode=":" horiz-adv-x="611" d="M623 -324h-634v1222h634v-1222zM358 124q0 15 -9.5 33.5t-25.5 18.5h-19.5t-8.5 -10q-3 -8 -2 -19t-1 -18q-2 -6 -8 -9.5t-6 -13.5q0 -8 6 -6.5t6 -2.5q0 -6 -6.5 -11t-10.5 -11q-2 -4 7 -6.5t20.5 -4t24 0t17.5 9.5q4 3 7 11.5t5 18.5zM287 172q-4 0 -8 -3q-5 -6 -5 -15 v-23q3 9 5 16q4 7 5 13t3 12zM331 51q11 2 18 11q16 13 28 31q11 17 4 36q-4 10 -9 18q9 -24 3 -42t-15 -30q-11 -13 -29 -24zM278 492q0 -19 26 -22q14 -2 33.5 6.5t22.5 44.5q1 17 -6.5 29.5t-17.5 19t-20.5 10t-14.5 3.5q-7 0 -9.5 -13t-4.5 -28q0 -7 3.5 -9.5t7 -4 l8.5 -3.5t5 -4l-17 -11q-16 -10 -16 -18zM279 573q-2 -4 -6 -9q-7 -11 -7 -18q0 -8 2 -13.5t2 -9.5v-26q0 2 1 6q3 7 6 12q2 8 -0.5 29t2.5 29z" />
<glyph unicode=";" horiz-adv-x="615" d="M625 -324h-635v1222h635v-1222zM359 124q0 15 -9.5 33t-24.5 18h-19t-10 -9q-4 -8 -2.5 -19t-1.5 -18q0 -7 -6.5 -10t-6.5 -13q0 -8 3 -13.5t3 -12.5q0 -5 -4 -10.5l-8 -10.5q-1 -6 -3 -13.5t2 -11.5q3 -4 7.5 -8.5t12.5 -3.5q10 1 23.5 12.5t20.5 22.5q4 6 8 16t8 24z M288 171q-4 0 -8 -3q-5 -5 -5 -15v-14q0 -6 2 -9q3 10 6 17q2 17 5 24zM378 144q1 -16 0 -31q-1 -12 -4 -25.5t-8 -23.5q-7 -11 -9.5 -15.5t-6.5 -8.5l-6 -6q16 14 26 34q8 15 11.5 34.5t-3.5 41.5zM280 492q0 -19 26 -21q12 -3 32 6t22 44q2 17 -5 29.5t-17.5 19t-20 10 t-14.5 3.5q-8 0 -10.5 -13t-4.5 -27q0 -14 12.5 -14.5t11.5 -7.5l-16 -11q-16 -10 -16 -18zM280 574q-3 -4 -7 -10q-6 -11 -6 -17q0 -9 2 -14t2 -9v-14q0 -7 1 -12q0 1 1 5q2 3 2 5.5t4 6.5q1 9 -1.5 30t2.5 29z" />
<glyph unicode="&#x3c;" d="M611 -324h-633v1222h633v-1222zM203 250q2 -9 8 -10.5t47 -9.5q23 -4 45 -15l3 -4q18 -7 39.5 -20t40.5 -28l34 -27t19 -16q8 -8 15.5 -7.5t18.5 8.5q10 10 12.5 15t-4.5 19q-5 11 -19.5 14.5t-22.5 4.5q-4 4 -6.5 7t-5.5 5q0 2 1 4q4 3 -0.5 3t-12.5 5l-7 5 q-22 14 -45 25t-42.5 19l-35 14.5t-19.5 14.5q-8 16 0.5 27.5t18.5 13.5q12 4 18.5 3.5t20.5 4.5q7 2 34 13.5l57 24.5l53.5 23.5t23.5 13.5q0 4 -5.5 8t-9.5 11q-2 8 -2 13t-5 10q-2 7 -6 8.5t-13 3.5q-19 -12 -38 -20q-16 -9 -31.5 -16.5l-23.5 -11.5q-8 -3 -28 -13.5 t-41.5 -20.5t-37.5 -19t-20 -9h-38q-7 0 -10 -6t-7 -18q-1 -5 2.5 -16t8 -21t9.5 -20t7 -13zM443 65q2 -1 -6.5 8l-21 22.5t-30.5 29.5t-35 29q-18 12 -43.5 23l-50.5 21l-43.5 17t-19.5 8q-2 3 13 -3.5t36.5 -18l50 -26.5t53.5 -31q44 -28 70.5 -52.5t26.5 -26.5zM465 361 l-18 -11q-6 -4 -13 -7.5t-11 -3.5q-5 -1 -19 -5q-7 -2 -12 -3l-22 -15q23 9 43 16l31 14t21 15z" />
<glyph unicode="=" horiz-adv-x="592" d="M604 -324h-634v1222h634v-1222zM125 157q5 -21 23 -20t23 1q1 0 34.5 -1t72.5 -2t72.5 -2t37.5 -1q7 0 13 -3.5t14 -3.5q10 0 22.5 7t17.5 23q2 18 -6.5 33.5t-22.5 15.5q-5 0 -17 -2.5t-24 -5.5t-21.5 -4t-14.5 -1h-149q-6 0 -17 8t-24 4q-15 -4 -26.5 -16.5t-7.5 -29.5 zM395 104h-144q8 -3 31 -4.5t47 1.5q30 0 66 3zM125 302q5 -22 23 -21t23 1q1 0 34.5 -1t72.5 -1.5t72.5 -2t37.5 -1.5q7 0 13 -3.5t14 -3.5q10 0 22.5 7.5t17.5 22.5q2 18 -6.5 34.5t-22.5 16.5q-5 0 -17 -3t-24 -5.5l-21.5 -4.5t-14.5 -2h-149q-6 0 -17 8t-24 4 q-15 -3 -26.5 -16t-7.5 -29zM472 327v-17v-14.5t-3 -11.5l-6 -15l-2 -2q6 8 11 19q3 8 4.5 19t-4.5 22z" />
<glyph unicode="&#x3e;" horiz-adv-x="602" d="M613 -324h-633v1222h633v-1222zM482 320q-4 12 -5.5 18.5t-11.5 6.5h-36q-4 0 -22 8.5l-39 19l-40 20.5t-26 13l-57 28q-19 8 -38 21q-9 -3 -12.5 -4.5t-6.5 -8.5q-4 -5 -3.5 -9.5t-1.5 -13.5q-4 -6 -9.5 -10.5t-5.5 -8.5q0 -2 23.5 -13l53.5 -24l57 -24.5t33 -12.5 q15 -6 21.5 -5.5t17.5 -3.5q11 -2 19.5 -13.5t-0.5 -27.5q-5 -8 -19.5 -14.5t-34 -14.5t-42.5 -19t-44 -26l-8 -4q-8 -5 -13 -5t0 -3l1 -4q-7 -5 -12 -12q-8 -1 -23 -4.5t-19 -14.5q-7 -14 -5 -19.5t14 -14.5q19 -14 31 -1q4 4 19 16l34 27t41 28t42 20l2 4q23 11 45 15 q40 8 45.5 9.5t9.5 10.5q3 8 15 33t10 37zM494 258q-5 -8 -11 -15q-4 -8 -8 -12l-8 -8q-3 -2 -21.5 -8.5t-42 -17t-49.5 -21t-44 -22.5q-17 -13 -35 -29t-30.5 -30t-21 -22.5t-8.5 -7.5q3 1 19.5 19.5t48 42.5t74.5 49t98 40q10 4 18.5 11t10.5 14q6 6 10 17z" />
<glyph unicode="?" horiz-adv-x="592" d="M602 -324h-632v1222h632v-1222zM285 203q12 0 15 1t1.5 4.5t-4.5 12.5t-3 24v54q41 30 74 61q26 29 46 65t15 75q-6 40 -24 65t-44 38.5t-54.5 19t-56.5 5.5q-29 0 -53.5 -16.5t-42.5 -37.5t-29.5 -42t-11.5 -32q0 -19 -3.5 -39t8.5 -29q5 -4 14.5 1.5t18 15t11.5 21 t-2 21.5q-12 15 -6 23t21 24q8 7 21.5 20t30 24t34.5 17t36 2q35 -8 45.5 -15.5t22.5 -26.5q5 -11 4 -12.5t-5 -0.5q-6 2 -14 7q10 -7 18 -15l12.5 -18.5t6.5 -23.5q0 -15 -7.5 -34t-18.5 -38t-24.5 -34t-25.5 -17q-25 -10 -37 -13.5t-16 -18.5q-3 -16 -1.5 -24.5t1.5 -25.5 q0 -7 -1 -18.5t-2 -19.5q-3 -12 -3 -23q-4 -7 -6 -15q-2 -7 0 -13t12 -9q9 -4 14.5 -3.5t8.5 5.5q4 2 4 8zM316 568q-5 3 -12 4q-14 4 -31 4h-6q-19 -4 -33 -10t-20 -9q-5 -4 -16 -15l-8 -8q8 2 15 6q8 2 15 5t12 7t18 8t27.5 7.5t26 3.5t12.5 -3zM440 409q-3 -8 -8 -16 q-3 -7 -8.5 -14.5t-12.5 -12.5q-5 -4 -10.5 -8t-11.5 -10q-5 -5 -12.5 -14t-15.5 -17.5l-15 -15.5t-8 -10q-14 -6 -14 -16q0 -4 4 -22t4 -27v-21q0 14 2 26q1 11 1 20.5v16.5q-1 5 10.5 17l25 25.5t27 24.5t15.5 15q1 1 6.5 10t11 19t8.5 18t1 12zM231 68q0 -12 3 -23.5 t17 -22.5q14 -8 34 -12t30 11q8 13 19 33t1 32q-18 26 -42 26q-8 0 -21.5 3.5t-20.5 -3.5q-5 -6 -2.5 -5t6.5 -13q0 -16 -12 -20z" />
<glyph unicode="A" horiz-adv-x="577" d="M595 -324h-631v1222h631v-1222zM117 27q6 -2 13.5 -7t15.5 9q8 12 13.5 30.5t6.5 26.5q3 10 0.5 17.5t5.5 9.5q9 2 13.5 -7t16.5 -9q11 0 25 5.5t46 5.5q33 0 47.5 -3t26.5 4q12 6 23.5 14t16.5 4q1 -1 6.5 -9.5t10 -17t9 -18.5t4.5 -15q3 -10 9 -26t25 -18q20 -4 26.5 2 t8.5 22q5 13 -8 24.5t-18 24.5q-3 6 -12.5 30l-21.5 52.5t-22.5 57t-16.5 43.5q-5 17 -15.5 42.5l-21 50l-19 45t-10.5 26.5q-3 5 -4 17t-4 25t-6.5 25t-9.5 18q-6 5 -13 0t-13 -12.5t-10.5 -16t-6.5 -14.5q-1 -12 3 -21t4 -16q0 -6 -6 -14.5t-10 -19.5q-4 -9 -5.5 -17.5 t-1.5 -15.5q0 -8 -18 -43t-31 -73q-12 -35 -13 -48t-4 -23q-1 -8 -6.5 -25t-14.5 -31q-4 -10 -13.5 -26t-17.5 -34.5t-10 -33.5t7 -17zM366 235q9 -17 11.5 -34.5t-1.5 -31.5q-1 -6 -8 -7t-17.5 1t-22 5t-18.5 3q-30 0 -41 5q-4 4 -13 -0.5t-28 -10.5q-20 -7 -27 -5.5 t-14 4.5q-4 1 -1 8.5t9 16.5t12 19.5t8 19.5t9.5 29.5l16 42l14.5 38t6 17.5q0 4 -5.5 7.5l-10.5 6.5q-3 1 4 8t13 15q7 10 9 16t11 3q4 -2 16 -26l26.5 -55t26.5 -59.5zM243 222l7 16q4 8 7 15t4 11q6 8 7 20q1 8 4 18q-5 -4 -10.5 -17.5t-8.5 -28.5q-6 -18 -10 -34z M294 186q-2 7 -6 15t-11 6q-5 -2 -12 -2h-8zM201 78l139 5q-12 3 -34 2.5t-46 -2.5q-29 -1 -59 -5zM194 70q-4 -10 -6 -17q-7 -17 -12 -23q-4 -3 -7 -5.5t-4 -6.5q-3 -3 -3 -6q13 11 19 19q15 21 13 39zM491 126q3 -4 -2 10t-14.5 38l-23 58.5l-27.5 70.5l-80 193l70 -182 l28 -69l23 -58.5t16 -42.5t10 -18z" />
<glyph unicode="B" horiz-adv-x="587" d="M605 -324h-634v1222h634v-1222zM167 423q0 5 -5.5 8t-7.5 -3q-4 -5 -4.5 -12t-1.5 -15q-6 -13 -6 -30q0 -7 5.5 -17t8.5 -14q4 -4 6.5 -11t6.5 -3q9 3 7 11t-7 21q-1 11 -7 27t-2 20q1 2 2 4.5t3 6.5q2 3 2 7zM183 411v-12.5t0.5 -21.5t1.5 -17t1 -1q0 11 2.5 34.5 t6.5 23.5q2 0 10.5 1t21.5 4q12 1 29 2q-19 3 -35 0q-13 -1 -25 -4t-13 -9zM381 284q12 15 16 25q2 2 3 14.5t4 16.5q5 4 10.5 26.5t4.5 40.5q-4 20 -12 36.5l-11 22.5l-9.5 22.5t-7.5 6.5q-1 -7 2.5 -13t-7.5 -5q-8 2 -20.5 6.5t-22.5 10.5q-6 1 -23 1.5t-33 3.5 q-20 1 -44 1q-17 0 -29 -1q-27 -4 -41 -9q-13 -7 -31 -13.5t-22 -11.5q-2 -5 0 -8.5t4 -9.5q2 -5 2 -26v-35q0 -7 -1 -45.5t-1 -85.5t1 -87t5 -48q7 -18 8 -24.5t1 -15.5q0 -6 5 -25t31 -25q27 -5 65.5 -7t61.5 2q26 4 45 4t28 1q11 3 14.5 1.5t6.5 1.5q1 3 10 12.5t18.5 22 t18 29t8.5 31.5q0 31 -4 51t-12 36q-8 14 -11.5 28.5t-8.5 19.5q-6 4 -10 0l-3 -5q-4 6 -5 11q-6 10 -4 15zM290 261q22 0 52.5 -22.5t49.5 -46.5q9 -12 7 -29t-10 -33.5t-19 -31t-25 -20.5q-12 -7 -33.5 -9t-42.5 -1.5t-38 3.5t-18 5q-4 2 -22 -5q-8 -4 -18 -1.5t-19 8.5 q-5 2 -7 12.5t-2 22.5v30q-1 -6 0 -12q0 -11 8 -22q4 -8 8 -8h8q6 1 4.5 18t-5.5 25q-3 10 -4 27.5t-1 25.5q0 6 4 19l2 11l-6 -4q-9 -4 -9 -8q-1 -4 -3 -16.5t-6 -25.5q-3 -18 -7 -37l4 93h2q1 0 5 5q4 4 14 18l11 15q4 -3 9 -4q3 -2 7.5 -4t10.5 -3q16 0 34 1q15 1 30 2.5 t25 1.5zM277 451q14 2 31 -1.5t40 -18.5q23 -14 23 -37.5t-4 -49.5q-4 -15 -8.5 -24.5t-8.5 -16.5q-7 -6 -11 -12l24 11q-4 -11 -8 -18q-4 -8 -7 -12.5t-5 -4.5q-6 0 -10.5 9.5t-7.5 11.5q-5 4 -16 9.5t-24 5.5h-23.5h-37t-35 -0.5t-20.5 -0.5q-8 -4 -6 -15t5 -20 q4 -11 -11 -15q-7 -3 -13 -3v24q0 11 -1 20.5t-1 15.5v27v45.5t1 43.5t2 21q4 3 21 5.5t21 1.5q6 -2 10 -10t6 -1l9 2t21.5 3.5t24.5 2.5t19 1zM333 543q30 -18 53 -37q21 -18 36.5 -39t16.5 -43q0 -43 -4 -82.5t-9 -47.5q-15 -10 -13 -14q0 -1 9 -12t18.5 -26.5t16.5 -34 t5 -36.5q-4 -35 -13.5 -67.5t-28.5 -59.5q-19 -25 -36 -38q-10 -7 -17 -13q25 14 44 36q17 19 34 48t23 69q5 40 -2.5 65.5t-17 38.5t-18 19.5t-7.5 14.5q3 7 8.5 22t10 35.5t7.5 42t-3 43.5q-5 19 -20 40t-31.5 38t-33.5 27.5t-28 10.5zM213 352l82 -5q-5 4 -18.5 4.5 t-26.5 0.5h-37zM190 124l49 -12l-42 12v12q0 6 0.5 10.5t0.5 8.5t-0.5 13.5t-0.5 20.5v26q-4 -1 -4 -15.5t-2 -32.5q-1 -19 -1 -43z" />
<glyph unicode="C" horiz-adv-x="591" d="M606 -324h-634v1222h634v-1222zM410 352q8 -13 19 -13.5t13 2.5q4 4 11 24.5t-1 40.5q-6 11 -21.5 28.5t-34.5 35l-34 30.5t-18 16q-9 3 -9.5 6.5t-7.5 0.5q-7 -4 -22 -7t-23 -3q-6 0 -22 -3t-37 -13.5t-43.5 -31t-35.5 -54.5q-24 -66 -26 -139t36 -139 q37 -67 92.5 -93.5t121.5 -7.5q31 11 50.5 34t30 49.5t13.5 48.5t6 30q1 15 -5 30t-13 15q-9 0 -18 -3.5t-11 -13.5q-3 -2 -4.5 -13t-4 -23.5t-5.5 -24t-4 -16.5q-4 -6 -13.5 -18.5t-24.5 -24t-35.5 -20t-41.5 -4.5q-44 7 -87 60t-46 136q-1 41 11 71t28.5 51t33.5 33t25 16 q8 3 26 2.5t38.5 -4t36.5 -9t20 -6.5q7 -7 13 -17t8 -19q4 -6 6.5 -20.5t8.5 -19.5zM452 329q5 -2 12 -2q12 0 14 8q4 10 4 40.5t-19 65.5q-21 36 -48 60.5t-45 33.5q-8 4 -17 7.5t-15 6.5q-8 4 -17 4q26 -11 52 -25q20 -12 41 -31t34 -41q24 -47 28 -72.5t-1 -34.5 q-11 -14 -15 -16q-4 -4 -8 -4zM196 333q-11 -32 -8 -62t9.5 -51.5t13.5 -36.5t7 -16q0 -4 -12.5 31t-8.5 105q2 35 15.5 59t28.5 37q20 18 41 27q-2 2 -11.5 0t-23.5 -12.5t-28.5 -30t-22.5 -50.5zM486 217q0 -27 -6 -56q-4 -24 -14 -52t-31 -47q-19 -20 -38.5 -32.5 l-34.5 -21.5q-19 -8 -35 -12q28 8 54 21q23 10 44 27.5t35 46.5q15 25 19 48.5l7 40.5q1 19 0 37z" />
<glyph unicode="D" d="M610 -324h-634v1222h634v-1222zM136 457q0 -15 -0.5 -26.5t-10.5 -44.5q-2 -16 -1.5 -52t3.5 -74l5.5 -68t2.5 -35q0 -9 1.5 -34t1.5 -37q0 -7 2.5 -15.5t14 -16t36 -14.5t69.5 -7q84 0 124.5 43.5t65.5 108.5q12 31 10.5 76t-11.5 88.5t-23.5 79t-27.5 50.5 q-14 16 -33 25.5t-39 14.5t-35.5 5.5t-22.5 -0.5q-12 -5 -41 -3.5t-43 1.5t-27.5 -6.5t-16.5 -20.5q-2 -7 -2 -14q-2 -5 -2 -12.5v-11.5zM172 472q16 -7 30 -11q28 -8 42 -3q5 2 20.5 5t33.5 3t35 -6t31 -19q10 -14 24.5 -44.5t23.5 -67t7.5 -79t-21.5 -81.5 q-20 -38 -40 -56t-36 -23t-28.5 -2.5t-18.5 3.5q-7 0 -16.5 1.5t-18.5 1.5q-10 0 -22 1q0 -4 -4 -6q-7 -8 -14 -3q-9 5 -13 8.5t1 13.5q3 8 5 9.5t-1 13.5q-1 11 -6.5 32t-5.5 33q0 5 -1 38.5t-3 73t-2.5 72.5t-0.5 43q0 8 -0.5 15.5t-0.5 15.5v18zM203 431q0 -80 3 -144 q1 -54 1.5 -99t2.5 -45q2 -1 3.5 29.5t3 70t2 75.5t0.5 45v19.5t2 22.5q0 13 1 25l46 5q-17 2 -31 2q-12 0 -21.5 -1t-12.5 -5zM485 358q5 -49 4 -95q-3 -41 -11.5 -83t-31.5 -71q-45 -56 -80.5 -73t-51.5 -19q-15 -6 -35 -6h-23q28 -5 60 0q26 3 56 17t56 46 q52 64 61.5 138.5t-4.5 145.5z" />
<glyph unicode="E" horiz-adv-x="602" d="M611 -324h-634v1222h634v-1222zM360 449q12 0 31.5 -3t34.5 0q17 1 23.5 11.5t8.5 20.5q2 11 -6.5 28t-18.5 21q-7 4 -21 1.5t-22 -7.5q-6 -3 -18 -5l-25 -4t-26.5 -3t-20.5 -1t-28.5 1t-46.5 2t-46 0t-28 -4q-7 -5 -11.5 -22t-7 -38.5t-3.5 -41t-1 -30.5t2 -28.5 t3.5 -33.5t2.5 -30t-1 -19q-2 -8 -6 -28.5t-4 -38.5q0 -8 1.5 -31t4 -47.5l4.5 -45t2 -21.5q0 -5 7 -18t18 -16q5 0 33.5 -0.5t63 -0.5h64h33.5q5 0 17.5 -3t26 -5.5t23.5 -4t16 -1.5q9 0 24.5 10.5t17.5 22.5q0 12 -3.5 31.5t-17.5 22.5q-12 4 -41 -7t-46 -13 q-8 -3 -29.5 -1t-45.5 5t-44 5t-26 2q-8 0 -24.5 -4.5t-22.5 0.5q-7 4 -3 16.5t4 16.5q0 3 -0.5 12.5t-4.5 19.5q-2 2 -2.5 18.5t1 33t3.5 30.5t6 15q5 5 16 2t19 1q3 0 18 1t32 1h31.5t20.5 -2q8 -4 14 -6.5t25 1.5q21 2 25 14t5 31q3 20 -10 24.5t-22 9.5q-11 2 -28 -4.5 t-27 -8.5h-16.5t-23 1.5l-22 3t-15.5 1.5q-6 -3 -14.5 -3t-18.5 -1q-8 -2 -19 -2v65v46.5t2 27.5q46 1 85 4q33 1 62 2t36 1zM295 423h-95q-2 -15 -2 -27v-34q0 -14 -1 -18q-3 -5 -4 -9q27 0 47 1q19 3 33.5 3t18.5 1q1 0 -7.5 0t-20 2l-23 4t-13.5 12q-5 16 -6 31.5t5 18.5 q3 3 13.5 4t22.5 5q14 3 32 6zM348 341l28 -19q-8 10 -16 14q-7 4 -12 5zM223 208q1 0 12.5 1t25 3t23 2.5t8.5 0.5q-5 4 -17.5 2.5t-25.5 -3.5t-20.5 -4.5t-5.5 -1.5zM198 220q0 -5 1 -20.5t3 -34.5q2 -22 3 -46l22 4q-4 -6 -6 -6q-4 0 -4.5 5t-1.5 22q-3 18 -4.5 31.5 t-5.5 24.5q-3 10 -7 20z" />
<glyph unicode="F" horiz-adv-x="595" d="M613 -324h-634v1222h634v-1222zM150 500q-4 -4 2 -16.5t6 -17.5q0 -2 -3 -22.5t-3 -38.5v-27t0.5 -38t0.5 -35.5v-18.5v-34.5t-0.5 -61.5t-0.5 -62.5v-36.5q0 -27 13 -31q6 -1 23.5 -2.5t22.5 1.5q6 3 12.5 9t-5.5 15q-12 8 -18 13t-8 13q-1 4 -1 11v12q0 7 -3 12 q3 -2 4 -2q2 0 3 17q0 9 2 21t6 23l6 23q-6 -4 -10 -7q-8 -9 -8 -18q0 -5 -1.5 -8.5t-1.5 -7.5v-5l-11 91q9 0 15 -2q6 -1 12 -1.5t11 -3.5q3 0 17.5 -1.5t31.5 -1.5h31t19 3q10 4 26 1.5t24 -1.5q10 4 16.5 13t8.5 17q2 9 -10 16t-26 4q-13 -4 -33.5 -8t-27.5 -4 q-6 0 -15 0.5t-20.5 0.5h-21.5t-13 -1q-9 -4 -16.5 -6.5t-11.5 -7.5q-2 -1 -5 2.5t-6 7.5t-5 8t-2 6q0 4 0.5 14t3.5 15v18.5v34v35.5v23q6 19 25 19h17t26.5 -1t26 -1h17.5q4 0 22.5 1t39.5 1h39t19 -2q4 -4 20.5 -6.5t31.5 6.5q6 6 9.5 14.5t3.5 19t-2.5 20t-5.5 13.5 q-10 8 -17.5 6.5t-28.5 -10.5q-22 -8 -48 -16.5t-47 -8.5q-11 0 -39.5 -0.5l-59 -1t-54 -2t-25.5 -3.5zM201 328q2 -1 3 5.5t1 15.5t-1 17.5t-3 13.5q0 2 4 11t6 18.5t3 17.5t-4 10q-15 4 -18.5 -12t-2 -37.5t5 -40t6.5 -19.5zM230 428q-1 2 -1.5 -10.5t-2 -26.5t-1.5 -27 t3 -13q1 -1 3.5 9l6 23.5t8.5 24.5t10 11q3 0 26 1.5t47 1.5h68q-46 -3 -82 0q-29 0 -55 1t-30 5zM306 215h-48q12 -4 23 -4q18 -3 25 4zM229 128q0 -30 -0.5 -43.5t-4.5 -20.5q-3 -8 -6 -8h4q3 0 7 3q1 1 3 14t3 30.5t1 37.5v33q0 15 -3 25.5t-5 16.5q-6 7 -10 13 q4 -7 6 -21q1 -24 5 -80z" />
<glyph unicode="G" horiz-adv-x="600" d="M612 -324h-634v1222h634v-1222zM422 326q9 3 19.5 18t8.5 33q0 9 -6.5 22t-16.5 27t-21 26.5t-19 20.5q-18 18 -48.5 28.5t-71.5 5.5q-19 -4 -46.5 -17.5t-53.5 -45t-44.5 -79.5t-18.5 -120t22 -119.5t51.5 -74.5t62.5 -38.5t54 -11.5t44.5 10.5t44.5 25.5t35.5 28 t18.5 18q3 6 4 21t1 30.5t-1 30.5t-1 22q0 15 2.5 25t3.5 22q3 11 -6 20.5t-15 17.5q-4 3 -5 5.5t-3 6.5q-2 3 -2 4q-7 -12 -13 -19q-7 -6 -18 -11.5t-25 -5.5q-29 0 -45.5 1t-23.5 -19q-7 -19 5.5 -34t21.5 -17q9 -5 18.5 -1.5t17.5 7.5q8 3 8.5 7t7.5 -4q8 -7 17.5 -20 t2.5 -42q-9 -33 -30 -52t-65 -15q-21 1 -43.5 15.5t-42.5 35.5t-32.5 47t-14.5 55t0 59.5t8 58.5t16 49.5t27 32.5q33 22 60.5 23t47.5 -5q22 -8 35.5 -28t22.5 -29q9 -11 5.5 -26.5t15.5 -26.5q9 -6 16 -2zM296 537q0 -4 25.5 -7.5t44.5 -15.5q21 -12 43 -30.5t33 -33.5 q10 -14 13.5 -29.5t7.5 -20.5q0 -4 0.5 -5.5t0.5 -2.5v-4q-3 23 -9 43q-9 19 -22.5 39.5t-37.5 36.5q-26 16 -44.5 22.5t-30.5 7.5q-13 1 -24 0zM187 242q1 -46 13.5 -74t26.5 -45.5t25.5 -23.5t14.5 -6q4 0 16 12q6 7 13 14q-7 1 -14 4q-7 1 -15 4t-15 9q-16 11 -31 33.5 t-18 86.5q-2 31 3.5 57.5t11.5 45.5q7 22 18 41q-15 -14 -26 -36q-9 -19 -18 -48t-5 -74zM347 298h60q-12 0 -24 1q-11 0 -22 1.5t-14 -2.5zM427 291l15 -17q4 -7 9.5 -15.5t9.5 -13.5q3 -5 4.5 -20t1.5 -33t-1.5 -34t-1.5 -27q0 -19 -1.5 -34t-6.5 -22l-13.5 -13.5 l-20.5 -20.5l-27 -28q17 12 32 27q15 12 27.5 27.5t17.5 34.5q4 18 4 43t-1 47.5t-4.5 39.5t-6.5 20q-1 4 -6.5 12t-11.5 15.5t-11.5 12.5t-7.5 -1z" />
<glyph unicode="H" horiz-adv-x="605" d="M614 -324h-633v1222h633v-1222zM487 507q-17 -10 -34 -17q-13 -6 -24.5 -13t-13.5 -12q-3 -3 -4.5 -17t0 -28.5t2.5 -28.5t1 -20v-25t-1 -30t-3 -28t-4 -15q-3 -10 -7 -13.5t-11 1.5q-8 2 -15 10t-14 15q-7 5 -35 -1t-50 -6q-27 0 -38.5 3.5t-15.5 17.5q-4 7 -5 12.5 t-3 11.5q-1 6 -1 10l-3 -15q-1 -5 -4 -10.5t-7 -7.5q-14 -5 -16.5 14t-2.5 35q0 15 -0.5 28.5t2.5 26.5q7 24 7 35q0 6 -4 21q-2 3 -3 5q3 0 8 1q12 4 13 4t3.5 -18.5t3.5 -37.5q1 -29 1 -58l2 110v9q0 9 -4 9h-14.5t-23 -2t-25 -9.5t-18.5 -21.5q-6 -13 -6 -46.5t0.5 -69.5 t5.5 -66.5t5 -36.5v-36t-2.5 -62.5t-2.5 -62.5v-30t2.5 -9t5.5 -13t7 -11.5t13 -4.5q14 3 28.5 13.5t14.5 19.5q0 4 -3 10t-7 11q-4 7 -7 13l3 63q2 23 3 43.5t1 24.5q0 6 -9.5 17t0.5 19q9 5 18 3t13 -2q3 0 18 -0.5t32.5 -2.5t38.5 -2.5t34 -0.5q26 0 32 0.5t11 4.5 q5 1 9 8q5 3 6 5l11 -5q3 -3 8 -6t6 -6q1 -4 1.5 -23t4.5 -43.5t4.5 -46.5t0.5 -31q0 -4 -0.5 -18t-4 -27.5t0 -25t5.5 -12.5q8 -3 22.5 4t24.5 15q1 6 0.5 15t-5.5 21.5t-6.5 23t-1.5 18.5q0 7 0.5 29t1 52t0.5 65.5v65.5v50.5v27.5q0 13 6 32t6 26q0 10 -11 18l-4 6 q1 2 3 5q2 2 6.5 3t6.5 1q6 0 12 6.5t-1 15.5zM335 341l-106 2q5 -8 21 -8.5t36 0.5zM212 193q-3 1 -3 -10v-29t1.5 -34t1.5 -20q2 -12 2 -31.5t-3 -30.5q-2 -5 -2.5 -7.5t-0.5 -5.5v-5q1 15 4 33q4 13 6 31.5t2 38.5v50t-8 20zM494 348q0 -2 -1 -20.5t-1 -36.5v-35.5v-18.5 v-15.5v-24t1 -25.5t2 -16q1 -8 1 -22v-34v-43q1 8 1 17q0 14 1 17v53q0 16 -1 43q0 7 1 15q0 6 2 13.5t2 12.5q0 6 -2 37t-3 69q-1 43 -1 96q-1 -19 -1 -38q0 -15 -0.5 -27.5t-0.5 -16.5z" />
<glyph unicode="I" horiz-adv-x="607" d="M613 -324h-633v1222h633v-1222zM374 525l3 -2q3 -3 10 0q8 2 8 5.5t-10 6.5q-9 3 -15.5 -3.5t-12.5 -8.5q-6 -4 -12 -12.5t-33 -13.5q-26 -3 -41 -2l-29 2q-6 0 -17 1.5t-20 0t-17 -7.5t-9 -19q-3 -13 5.5 -18t21 -5.5t23.5 -0.5t15 -3q17 -22 17 -75q0 -13 1 -54 t2.5 -88t1.5 -86v-44q-3 -12 -6.5 -22.5t-14.5 -14.5q-9 -3 -15.5 0.5t-15.5 2.5q-4 0 -10 -7.5t-11 -15t-9 -15.5t0 -10q5 -5 33 -2.5t46 2.5q16 0 35 -1.5t34 -3.5q14 -4 31.5 -3.5t25.5 14.5q8 12 11.5 27t-3.5 22q-10 10 -27 6q-5 -1 -14 6t-14 7q-7 0 -17.5 -9 t-15.5 -8q-4 0 -4.5 11t-1.5 23.5t-1 25v18.5v256v22t6 11q13 5 26 0q5 -3 21.5 -6.5t25.5 6.5q8 7 16.5 16.5t4.5 19.5q-5 20 -22 26q-8 3 -12.5 6.5t0.5 6.5q2 4 20.5 4.5t22.5 -14.5q1 -9 1 -16v-13v-12q3 14 3 25q0 8 -2 17t-6 13q-3 4 -9 4t-11 1q-7 0 -13 1zM240 539 l145 -4q-35 3 -65 4q-25 3 -48.5 3.5t-31.5 -3.5zM338 391l4 -278l8 2q-3 3 -3 5q0 1 -0.5 3t-0.5 5q-2 5 -3 47t-3 90zM353 107q0 -4 5 -5.5t13.5 -1.5t15 -1t8.5 -1q4 -3 12 -12t8 -15q0 -7 1.5 -15.5t-0.5 -3.5q-1 2 -0.5 22.5t-16.5 28.5q-17 10 -29.5 13.5t-16.5 -9.5z " />
<glyph unicode="J" horiz-adv-x="602" d="M613 -324h-633v1222h633v-1222zM425 466q-2 6 -4 18t-9 12q-6 0 -15.5 -15t-14.5 -26v-27t1.5 -58.5t1.5 -73t-1.5 -74.5t-2 -63t-4.5 -35q-8 -29 -8.5 -40.5t-24.5 -18.5q-10 -4 -19 -4.5t-16 -2.5t-12 -2l12 10q-9 2 -16 5q-14 2 -26 8q-10 5 -26 14.5t-23 36.5 q-5 26 -4.5 43t4.5 24q1 4 9 7q5 1 10 1l-7 16l-11 -6q-4 -4 -8 -7t-5 -6q-3 -4 -10 -7t-13 -12.5t-8 -26.5t8 -43q15 -55 51 -78.5t70 -23.5t68.5 28.5t43.5 75.5q3 24 4.5 81t2.5 117q2 70 2 153zM245 163q0 4 1.5 -13.5t6.5 -25.5q4 -10 13 -17t15 -7q4 0 10 3q4 3 6 6 q-4 0 -10 2q-9 3 -13 9q-7 6 -18 17.5t-11 25.5zM453 430q-1 -79 -1 -140v-146q0 -5 -2 -17.5t-5 -17.5q-5 -9 -5 -11v-4q2 8 6 15q7 16 9 36q2 11 1 58t-1 95q-2 60 -2 132zM453 485q0 4 -0.5 4.5t-0.5 3.5l-3 1q0 -4 3 -7q0 -4 0.5 -4.5t0.5 2.5zM445 517q1 6 -7 3t-11 -8 q-4 -6 5.5 -2.5t12.5 7.5z" />
<glyph unicode="K" horiz-adv-x="604" d="M613 -324h-633v1222h633v-1222zM483 509q-1 4 -13.5 7t-16.5 3q-1 -2 -8 -6q-4 -1 -5 -5l-9 -3q-2 -3 -13 -9q-8 -6 -22.5 -27t-23.5 -29q-4 -6 -17 -19.5l-27 -27l-27.5 -27t-17.5 -20.5q-13 -14 -22.5 -31t-12.5 -19q-3 -3 -15 -12t-25 -21.5l-25.5 -23.5t-14.5 -11 t-7 30q-2 17 -2 34t5 16q2 -3 8.5 -9.5t10.5 -5.5q2 3 1.5 10.5t-0.5 16.5v14.5t0.5 23.5t0.5 22.5v13.5q0 5 -2.5 14t-2.5 11q0 4 6.5 22t6.5 26q0 4 -2 9.5t-3 10.5q-4 6 -5 10q0 3 1 4q4 4 9 4q13 0 17 -5q5 -4 5 -11t3 -34t0 -63q-3 -19 -4 -37q1 3 4 10q1 4 2 9.5 t3 8.5q0 4 1 21.5t1 36.5t-1 36t-1 20q-2 4 -8.5 13.5l-8.5 12.5q-3 0 -13 -8q-5 -3 -10 -9h-6q-4 0 -5.5 -2t-5.5 -3q-8 -4 -19 -13.5t-13 -16.5q-6 -7 -3 -15t3 -14q0 -2 0.5 -11t2 -20t2.5 -20.5t1 -14.5q0 -6 1 -20.5t1.5 -30.5t2.5 -28t2 -14q0 -6 1 -25t2 -32 q3 -15 -0.5 -25.5t-3.5 -21.5v-29v-51t0.5 -50t0.5 -26q7 -16 26 -10q11 5 20 13t9 15q0 6 -3 13t-3 11q-1 6 -1 17.5t-2 19.5q0 5 -1 15.5l-2 22t-1 21.5v12t-2 4t4 10q5 10 10 17t12 12q2 4 9.5 11.5t15.5 17.5q7 10 18 23l4 -3q1 -1 4.5 -3t7.5 -5q3 -4 13 -16.5 t20.5 -28l21.5 -31t15 -23.5q5 -9 15.5 -21.5t20 -27.5t16 -28t10.5 -17q6 -11 12 -25.5t14 -22.5q11 -15 35 0q14 8 16 24t1 25q0 7 -6 9t-15 7q-2 2 -9 11.5l-16 21.5l-17 23.5t-12 18.5l-22 31t-38 48q-22 30 -49 63v3q0 3 6 8q5 6 29 32.5t43 43.5l25.5 21.5t27.5 25.5 t22.5 23.5t12.5 14.5q1 2 -1.5 8.5t-5.5 11.5q-5 7 -9 15l5 3q4 4 6 0.5t8 -6.5q4 -1 11 -1h4l2 -11q3 -7 3 -14q0 -4 -3 -4q5 7 4 20.5t-5 16.5zM242 208q-6 -10 -12 -16q-12 -17 -12 -21q0 -3 0.5 -14.5t2.5 -24t3 -24.5t1 -13q0 -5 1 -23.5t0 -24.5l-5 -10q-2 -3 -3 -6 q5 4 8 12q4 10 5.5 22t0.5 33q-2 41 -3.5 59t3.5 26q1 3 3 8t3 7q2 6 4 10zM346 304l36 -57q15 -21 29 -43.5t20 -30.5q9 -10 19 -23.5t19.5 -28.5t17.5 -26t8 -12q0 -4 2 -13t2 -17q0 -4 -1 -8t-1 -8q-2 -6 -2 -7q4 8 6 17q4 17 0 34q-2 7 -25.5 41l-51 73.5t-52.5 71 t-26 37.5z" />
<glyph unicode="L" horiz-adv-x="578" d="M599 -324h-632v1222h632v-1222zM174 533q-14 5 -25.5 -4.5t-14.5 -16.5q-4 -9 1.5 -20t5.5 -15q0 -1 -0.5 -28.5t-2 -61t-1.5 -65v-42.5q0 -10 2 -46t5 -75l5.5 -71t3.5 -37q3 -8 18 -13.5t19 -5.5q2 0 35 -1t73 -1.5t73 -2t36 -1.5q7 0 13 -3t16 -3q8 0 21.5 6.5 t16.5 23.5q4 17 -5 33t-22 16t-40 -7t-38 -7h-150q-6 0 -17.5 -0.5t-11.5 4.5q0 4 -2.5 30.5t-2.5 37.5v16t-1 38.5t-1 50.5v54v153q11 7 8.5 32t-17.5 32zM216 503q-1 -102 -1 -183v-67.5t0.5 -58.5t2 -42.5t2.5 -16.5l6 -2zM414 -1l-143 2q7 -5 30 -5h49q30 0 64 3z M493 54q-3 -11 -8 -18q-4 -7 -8.5 -13t-9.5 -9q-7 -3 -19 -3q-6 0 -10 2q15 -7 26 -6q8 2 17 10.5t12 36.5z" />
<glyph unicode="M" horiz-adv-x="607" d="M612 -324h-632v1222h632v-1222zM467 489q-10 -2 -21.5 -14.5t-23 -30.5t-22.5 -38.5t-22 -33.5q-10 -15 -22.5 -39l-25.5 -47.5t-27.5 -44.5t-27.5 -29q-14 -10 -22 -1t-13 23t-7.5 28.5t-3.5 17.5q-4 6 -15 25t-32 38q-10 11 -27 33.5l-34 45.5t-31.5 39t-19.5 10 q-6 -5 -4 -15.5t7 -22t10.5 -21.5t5.5 -14t-1 -15t-3 -25.5t-3 -28.5t-4 -21q-2 -7 -3 -44t-2.5 -79.5t-2 -78.5t-0.5 -41q-2 -10 -0.5 -15t24.5 -12q11 -4 20.5 2.5t15.5 17.5l11 21t6 16q0 4 0.5 34.5t0 65t-2.5 62.5t-5 28q-9 -1 -15 -19t-13 -31q-4 -8 -3 -33.5t1 -54.5 v-53t-4 -25q-2 -1 -4 31.5l-4.5 72.5t-3 76t-1.5 45q-4 15 -4 41t2 37q3 9 12 11t18 -2q4 -1 14.5 -15t22 -32.5l23.5 -39t22 -33.5q20 -29 38.5 -63.5t30.5 -44.5q12 -7 26.5 2.5t20.5 8.5q5 -1 2.5 -14.5t2.5 -13.5t7.5 5t7.5 14l9 12.5t13 16.5l17 22l-24 -30l42 80 l-60 -89l57 107l-9 6v32q0 8 2.5 20.5t5.5 16.5q4 3 17 20.5t18 17.5q6 3 8.5 -4.5t8.5 -21.5q5 -15 8.5 -54.5t-0.5 -89.5q0 -27 -1.5 -55.5t-1.5 -54.5v-44t3 -25q1 -8 8.5 -10.5t13.5 -2.5h12.5t7.5 -2q4 -6 4 -9t5 1q2 0 13 13q2 7 8 12q-2 -1 -3 -5q-4 -7 -5 -8 q-4 -2 -10 -2h-3v7q0 3 3 21q4 12 -5.5 35t-9.5 42q0 10 1 57.5t1.5 102.5t2 102.5t1.5 56.5q0 15 12 25q5 5 12 8q7 5 2 8t-14.5 3t-21.5 -1t-20 -3zM272 294q3 -2 -0.5 3.5t-6.5 11.5q-5 7 -12 18q0 -8 3 -15q4 -18 16 -18zM271 330l-41 64q-16 25 -29 47.5l-17 29.5 q-2 6 8.5 -18t26.5 -54t31 -53.5t21 -15.5zM529 489q-3 -113 -5 -204v-76t1 -68.5t2 -51t4 -25.5q2 -5 3 13t1 47t-1 68t-1 79q-2 95 -4 218z" />
<glyph unicode="N" horiz-adv-x="592" d="M610 -324h-634v1222h634v-1222zM178 63q2 8 -6 20t-10 20q0 5 -0.5 28t-1.5 52.5t-1 57v44.5q2 29 4.5 46t0.5 25q-2 3 -9 -10q-4 -7 -9 -13q-1 15 -3 30q-1 12 -0.5 23.5t3.5 14.5q9 6 14.5 11.5t12.5 0.5q1 -1 13.5 -21.5l30 -49l37.5 -62l37 -63.5t29.5 -49.5 t14.5 -24.5l35 -47q1 -1 3.5 -10.5t5 -20.5t6 -21.5t8.5 -12.5q4 -3 14.5 -4.5t20.5 0t19 5.5t10 14q4 19 -4 46.5t-8 93.5q0 31 1.5 71t1.5 79t0.5 69.5t1.5 42.5q3 25 7.5 39t2.5 21q-3 4 -3.5 10t-3.5 13q-4 7 -5 14l-11 -15q-11 -17 -17 -21q-6 -2 -14.5 -7t-9.5 -13 q0 -10 7.5 -35t4.5 -47q0 -9 -0.5 -41.5t-2.5 -69.5t-3 -69t-1 -40q-4 -14 -6 -32t-11 -24q-7 -7 -16.5 -5.5t-16.5 15.5q-8 13 -13 22.5t-7 20.5q-3 11 -4.5 20t4.5 11q4 2 5 2t6 3q4 0 5 1l-26 31q-26 30 -34 45q-5 7 -16.5 31l-24 51l-24 51t-14.5 29q-9 11 -18.5 35 t-15.5 29q-5 4 -5 11.5v10.5q0 4 -1.5 -1.5t-6.5 -11.5q-6 -5 -24 -14t-21 -18q0 -6 2.5 -15.5t7 -19.5t7.5 -19t3 -11q2 -10 -3.5 -31t-5.5 -33q0 -14 -4 -29.5t-4 -26.5q0 -5 -1.5 -40.5t-1.5 -78.5v-81t3 -48q12 -38 30 -36q8 4 17.5 15.5t11.5 16.5zM168 25 q-2 -2 -1 -8.5t2 -3.5q0 3 4.5 7.5t7.5 10.5q6 6 12 15l-9 -9q-11 -6 -16 -12zM197 61v82v59t2 31q0 4 -3 17t-5 27q-6 15 -10 33q4 -66 8 -120q2 -23 2.5 -46.5t2.5 -41t2.5 -28.5t0.5 -13zM347 273l-24 49l-22.5 44t-20.5 37t-19.5 35.5l-21 39.5l-19.5 34t-16 19t-12 7.5 t-11 6.5q-7 4 -12 5q20 -23 39 -50q18 -25 39 -59t42 -72q21 -40 32.5 -59t15.5 -28q9 -9 10 -9zM477 76v-22q2 1 2 7v7t-2 8zM411 -1h7q2 0 13 4q4 0 8 2.5l10 6.5q7 4 12 9zM211 201l10 8l-2 8zM473 96v4q0 1 1 4t1 7q0 3 4 8t4 11v186q0 82 1 184q-4 -6 -5.5 -25.5 t-3.5 -48t-2 -64.5v-74v-192z" />
<glyph unicode="O" d="M611 -324h-632v1222h632v-1222zM294 466q28 -3 49.5 -21.5t36.5 -45t23 -58.5t8 -63t-8.5 -65.5t-24.5 -62t-37 -45.5t-44 -18q-24 0 -52.5 10.5t-53 35t-40.5 64t-12 97.5q2 58 24.5 92.5t49 53t51 23.5t30.5 3zM366 497q-24 23 -41 32.5t-9 -6.5q0 -3 -21.5 -3t-53 -6 t-63.5 -21.5t-49 -49.5q-20 -34 -31.5 -84.5t-10 -103.5t18.5 -101t55 -80q40 -31 79 -42t72 -5.5t58 25.5t39 45q12 26 23 59.5t17 68t5 67t-7 58.5q-30 98 -81 147zM525 199q-4 -4 -4 -6q0 -5 1 -8t6 -5zM392 526q-23 13 -40.5 22t-31.5 13q-16 5 -30 5l37 -12 q3 -1 20.5 -11.5t38 -25.5t39 -34t26.5 -40t14.5 -48.5t11 -57.5t6.5 -58.5t-2 -50.5q-7 -46 -19.5 -83t-52.5 -78q-21 -20 -42.5 -33.5t-39.5 -21.5q-22 -10 -41 -15q34 9 65 23q26 12 53.5 32.5t44.5 50.5t25.5 66.5t12.5 70.5t3.5 61t-1.5 41l-10 34.5t-19 53t-29.5 55 t-38.5 41.5zM245 429q-15 -8 -29 -20q-13 -11 -25 -28t-19 -39q-14 -46 -7 -97.5t21 -81.5q8 -15 20 -26t24.5 -17t22.5 -9t13 -1q3 5 -7.5 14.5l-22.5 20.5l-14.5 12t-17 20t-15 35.5t-7.5 60.5q-5 36 4.5 66t23.5 49q16 23 35 41z" />
<glyph unicode="P" horiz-adv-x="596" d="M602 -324h-633v1222h633v-1222zM221 238q8 -4 13.5 -4t17.5 4q5 1 40 -1t72 7t68.5 35t31.5 85t-19 92t-43.5 48.5t-47.5 19t-33 3.5h-31.5h-48.5h-46.5t-25.5 -2q-8 -2 -13.5 -11t-5.5 -18q0 -3 -1.5 -16.5t-3 -31.5t-2 -36t-0.5 -35q0 -15 0.5 -37.5t2.5 -42.5t4.5 -37 t2.5 -22q0 -8 -2.5 -25t-5 -38l-5 -41t-4.5 -28q-4 -18 2 -36t31 -32q23 -14 29 -1.5t9 21.5q0 8 -4 19t-7 17q-4 4 -7.5 20t-3.5 31v25.5t2 33.5q0 19 2 42q3 -1 10 -3q4 -2 10 -3.5t12 -1.5zM199 365q0 5 -1 20t-1.5 30t-1 28.5t0.5 16.5q3 7 5.5 5.5t6.5 -1.5 q6 0 17.5 -2.5t19.5 -2.5h52q4 0 15 0.5t22.5 0.5t23.5 -0.5t19 -4.5q14 -8 25.5 -23t11.5 -55q0 -19 -9.5 -32.5t-21.5 -24.5t-24 -16.5t-17 -5.5h-21.5t-31.5 3q-19 0 -40 1q-4 0 -9 -1q-3 -3 -8.5 -3.5t-9.5 -1.5q-19 -6 -27 6q0 14 1 26q1 11 2 20.5t1 16.5zM215 442 q-3 -1 0.5 -16t3.5 -23q0 -9 1.5 -19.5t-1.5 -18.5q-4 -10 -5 -14q-2 -4 -2 -6q4 1 10 8q4 4 8 12t7 16q1 19 -5.5 42.5t-16.5 18.5zM306 433h-17q-7 0 -11 -1.5t-2 -2.5q10 -6 22 -1q5 1 8 5zM310 323l-31 8q5 -5 12 -8q10 -6 19 0zM214 223l7 -18q4 -7 6 -13.5t2 -10.5 q0 -3 1 -17.5t1 -30.5v-42l3 107l67 10q-19 -3 -37 0q-14 1 -28.5 4t-21.5 11zM484 317q13 29 12 68.5t-12 71.5q-6 15 -14.5 27t-16.5 21q-9 8 -22 15q4 -1 7 -5q4 -3 7.5 -8t10.5 -10q15 -14 25 -44t10 -58q3 -27 -8.5 -63t-26.5 -55q-8 -8 -19.5 -17t-24.5 -15 q-13 -7 -28 -17q30 4 59.5 33t40.5 56z" />
<glyph unicode="Q" horiz-adv-x="602" d="M609 -324h-632v1222h632v-1222zM337 536v-5q0 -4 -6 -4h-17t-29.5 -0.5t-32 -3t-22.5 -5.5q-7 -4 -26 -16.5t-38.5 -35.5t-37.5 -60t-23 -91q-6 -54 6 -100t32 -81t42.5 -57.5t41.5 -29.5q21 -10 40 -12t37 0t31.5 5t17.5 4q11 4 14.5 8t14.5 3q10 -1 13.5 -1t11.5 -10 q10 -7 10.5 -9t6.5 -2q5 0 14.5 3t13.5 8q14 15 9 25q-3 5 -15.5 14t-12.5 21q0 7 6.5 20.5t12.5 29t10.5 30.5t4.5 23q0 10 1.5 38t-1 64t-11 72.5t-25.5 64.5q-19 24 -35.5 42t-31.5 27zM369 182q-5 13 -6.5 20.5t-6.5 7.5q-6 0 -5 -6t-2 -10t-9 -5t-12 -3q-6 -6 13 -21 q9 -8 8.5 -14t2.5 -20q1 -16 -3 -21.5t-12 -13.5q-10 -11 -17 -9t-24 2q-10 0 -24.5 7t-29.5 16.5t-27.5 20t-18.5 19.5q-7 8 -15.5 31.5t-13 55t-1.5 67.5t18 69q16 34 35 53t38.5 28t36.5 9.5t28 -0.5q23 -4 42 -20.5t43 -57.5q11 -20 14.5 -48.5t3 -56.5t-4 -52.5 t-7.5 -37.5q-7 -24 -18.5 -35t-18.5 -9q-1 4 -1 9q-2 3 -2 9.5t-4 15.5zM188 307q-10 -42 1 -73.5t26 -51.5q21 -25 45 -41l-5 5q-6 6 -10 12q-1 2 -7.5 9.5t-14.5 21t-14 36.5t-7 60q-5 35 6 63t23 49q14 20 34 38q-2 1 -11.5 -3t-22 -19t-24.5 -41t-19 -65zM379 9v4l-6 4 q-9 0 -34.5 -7.5t-34.5 -7.5h-31q28 -1 49 0q19 0 36 2t21 5zM470 24q3 2 7.5 13t7.5 19q3 4 1 16l-4 24q-4 13 -5 27l12 15q6 5 10 21.5t6.5 35l4.5 34t2 23.5q0 7 1 25.5t-1 45t-11 58t-26 65.5q-20 32 -44 54.5t-45 36.5q-28 16 -53 24q23 -8 46 -23q19 -12 40.5 -31 t41.5 -46q35 -55 38.5 -107.5t7.5 -94.5q1 -22 -4.5 -44.5t-12 -42t-13.5 -32.5t-7 -17q-3 -5 1 -16t7 -27q4 -17 3 -21.5t-6 -11.5q-4 -8 -6.5 -7t-9.5 -3q-7 -1 -6 -3l5 -10q1 -3 3 -3q6 0 9 3z" />
<glyph unicode="R" d="M606 -324h-632v1222h632v-1222zM136 527q-8 -5 -11 -26t-3 -36v-46.5t1 -84.5t1 -83.5v-44.5q0 -5 -1 -26t-1 -45t1 -46t5 -30q7 -13 7 -14t12 -5q12 -3 23.5 6.5t13.5 22.5q1 12 -6.5 29t-7.5 25q0 6 1.5 18t2.5 25.5t2 24.5t1 16q-2 10 -3 25t5 20q6 3 32.5 3t38.5 4 q15 2 27.5 8t27.5 -1q7 -4 16 -21.5t18.5 -39.5l18.5 -43l14 -33l12 -30.5t16 -32.5t18.5 -24.5t18.5 -4.5q19 9 22 18.5t-1 24.5q-2 5 -10.5 17.5l-19.5 28l-21.5 31t-15.5 30.5q-20 55 -20 63q0 6 -1.5 7.5t2.5 4.5q1 3 15.5 13.5t30 30t28 41t10.5 43.5q-1 42 -17.5 70 t-33.5 41q-15 15 -26.5 21.5t-21.5 7.5q-8 4 -6 5.5t-6 -1.5q-3 -3 -22.5 -3.5t-41 -0.5t-44 -0.5t-30.5 -0.5h-42.5t-28.5 -2zM333 471q20 0 42 -13q12 -7 19 -22.5t9 -33.5q4 -18 -6 -37t-24 -31q-13 -12 -33.5 -15.5t-43.5 -2.5q-10 0 -24.5 3t-27.5 5t-22.5 4t-12.5 2 q-2 0 -18 -7t-20 -1q-4 4 0 17t7 18q4 6 2.5 9t-2.5 13q0 5 -1.5 15.5t-2.5 22t-2 20.5t-1 10q0 11 2 16q5 6 21 0q7 -4 10.5 -2.5t13.5 1.5q8 0 17.5 1.5t18.5 1.5q8 0 29.5 -1.5t28.5 1.5q3 4 7 4.5t14 1.5zM194 433q-4 -4 1.5 -11.5t5.5 -12.5q0 -4 6 -10l2 -2 q-4 6 -6 13q-7 12 0 17q6 2 20 2h14l-22 4q-8 2 -14.5 2t-6.5 -2zM201 379q0 -6 -4 -12q-1 -4 -1 -6l13 -9l53 -3q-13 1 -24 5q-8 3 -17 6t-12 7l-6 9zM365 559q26 -15 48 -30q19 -15 35.5 -33.5t21.5 -41.5q9 -45 3 -92.5t-26 -64.5q-19 -15 -32.5 -28t-13.5 -17t8 -22 t21 -40l30 -56q-13 30 -21 54q-9 22 -14 40.5t-4 23.5q1 3 12 15.5t23.5 30.5t21 41.5t7.5 47.5q-3 25 -4.5 46t-12 41.5t-34.5 40.5t-69 44zM452 25q-2 -5 8 -1.5t19 19.5q7 13 7 26q0 7 -1 12l-4 -22q-2 -8 -4.5 -15t-7.5 -11q-9 -5 -11.5 -5t-5.5 -3zM190 217 q0 -3 1.5 -20t3 -38.5t3.5 -40.5t2 -26q1 -15 0.5 -22t-7.5 -15q-8 -9 -8 -10t-6 -1t-16 3q-8 3 -11 5l15 -15q17 -12 23 -4q4 6 8.5 21t7.5 34l6 38t3 33q-2 13 -1 23.5t1 18.5q0 9 3 16l9 -5q15 -7 23 -6q10 1 2.5 10t-15.5 9q-11 0 -20.5 5.5t-19.5 9.5q-8 3 -7.5 -7.5 t0.5 -15.5z" />
<glyph unicode="S" horiz-adv-x="605" d="M611 -324h-633v1222h633v-1222zM421 383q11 4 18.5 21.5t0.5 36.5q-2 8 -12.5 23t-25.5 30t-33 28t-42 17q-21 4 -56.5 0t-68 -18.5t-56 -41t-23.5 -64.5q0 -41 11 -65t26 -38.5t33 -19.5l32 -9q15 -3 37.5 -6.5t46 -8t42.5 -10t28 -12.5q16 -14 23 -42.5t-2 -45.5 q-7 -17 -35 -40t-77 -23q-24 0 -39 2.5t-24 7t-15 12t-14 15.5l-19.5 23.5t-5.5 15.5q0 8 5.5 13.5t1.5 13.5q-4 10 -9 10.5t-7 4.5q-5 3 -8 8t-2 13q0 7 4 13q1 4 1 6q-4 -2 -9 -3q-10 -4 -10 -11q-2 -5 2 -9q1 -2 1 -3q-9 3 -18 0q-6 -4 -12.5 -11t-6.5 -23q0 -15 7 -35.5 t21.5 -41t32.5 -36.5t41 -26q22 -11 50 -13.5t54.5 0t49.5 11t37 19.5q26 23 45.5 57t15.5 70q-3 37 -22 63t-31 40q-14 14 -23.5 20.5t-13.5 4.5q-1 -3 -1 -9q0 -1 1 -2q-11 -2 -19 0q-17 0 -35 6q-14 5 -40.5 9t-43.5 13q-18 8 -16 8t-8 2q-6 2 -23 17t-17 36 q0 11 10 20.5t23 18t27 15t23 7.5q17 4 46.5 6t41.5 -7q14 -7 27.5 -22t18.5 -25q4 -8 3 -16t9 -16q7 -7 18 -7q4 0 8 3zM338 361l-13 7q-11 5 -22 8q-3 0 -15 2.5l-26.5 5.5t-26 8.5t-14.5 10.5q-9 14 4 23.5t28 9.5h40q-10 1 -21 4q-8 1 -19 1.5t-18 0.5q-16 -1 -32 -16 t-9 -34q4 -11 14.5 -16.5t22.5 -8t23.5 -3t17.5 -0.5q4 -2 15 -2h23q15 0 28 -1zM428 369q0 -7 6 -11.5t10 -0.5q3 4 14.5 16t11.5 26q0 5 -0.5 14.5t-1.5 19.5q-3 9 -5 20q2 0 5 2l5 5q0 3 -8 6l-7 4q-1 1 -3 5q-4 4 -2 8t-15 25.5t-30 29.5q-15 9 -45 21.5t-38 12.5h-17 q-5 0 -6 1l58 -20q23 -10 43 -22t29 -23q7 -12 10.5 -19t7.5 -13q3 -6 3 -9l2 -10l4 -8q4 -15 6 -27q3 -11 0.5 -22.5t-8.5 -16.5q-10 -7 -14.5 -8.5t-8.5 -4.5zM423 323q-6 -2 5 -8l11 -7q16 -21 26 -43q9 -19 14.5 -45.5t0.5 -53.5q-12 -57 -34.5 -79t-48.5 -38 q-27 -15 -57 -25.5t-49 -10.5t-39.5 1.5t-16.5 -1.5q1 0 21 -2.5t47 -0.5t58.5 10t58.5 27q26 19 41 46t21.5 54t8 50t-1.5 35q-2 11 -11 28t-20 31t-20.5 24.5t-14.5 7.5zM211 245q-10 1 -29.5 8t-24.5 7q-4 0 2.5 -5t11.5 -12q7 -8 18.5 -38t23.5 -43q8 -7 19 -9t23 -2h30 q-9 3 -17 3h-14t-11 1q-7 1 -15.5 4.5t-14.5 7.5q-5 4 -11 21t-9 27q-4 8 -10 17q-2 6 -5 7q4 -1 11 -4q4 -1 9.5 -1h7.5q5 0 11 -1t14 -1h20q-9 2 -16 6q-7 1 -14.5 3t-9.5 4z" />
<glyph unicode="T" horiz-adv-x="582" d="M600 -324h-633v1222h633v-1222zM295 535q-10 0 -37 0.5t-57 2t-54.5 3t-29.5 1.5q-11 0 -14 -5.5t-4 -16.5q0 -12 15 -27t20 -18q3 -3 13 -3.5t21.5 -1t21.5 -0.5t12 1q8 4 11.5 9t21.5 5q7 0 11 -7.5t6.5 -19t3.5 -24t3 -21.5t1 -47t-3 -82.5t-4.5 -89.5t-4.5 -66 q-5 -44 4.5 -63t17.5 -22q8 -2 20.5 4.5t17.5 12.5q4 4 2 12.5t-6 18.5l-7 29v350h6q4 0 6.5 0.5t6.5 0.5q10 -1 14 -4t16 -3q13 0 14 1t9 5q10 1 23 3t22 -6q9 -7 13.5 -5t20.5 4q18 4 24 19t-6 50q-4 15 -15 19.5t-22.5 2.5t-21 -7.5t-14.5 -6.5q-9 -4 -25 -4h-26 q-8 -1 -15 -3q-6 -1 -15 -1h-17zM329 449q0 -99 2 -176q0 -35 1 -67.5t1.5 -59t0.5 -44.5v-19q0 -10 -3 -19q-2 -6 -4 -8q6 0 10 8q3 4 5 17t0 37q0 25 -1 76.5t-1 103.5v92v43q0 8 9 8h18t32.5 2t32.5 3t20 3q11 8 18 15q6 6 8 11q-4 -8 -12 -12q-15 -14 -33 -14 q-10 0 -27 1.5t-33.5 1.5h-29t-14.5 -3z" />
<glyph unicode="U" horiz-adv-x="584" d="M600 -324h-633v1222h633v-1222zM440 557q-7 0 -18.5 -8t-19.5 -22q-4 -7 -5 -40.5t0.5 -75.5l3 -83t-1.5 -60q0 -22 -0.5 -48t-6.5 -49t-22 -40.5t-48 -23.5q-32 -5 -48 -6t-24 2t-9.5 7t-6.5 8q-9 7 -9 9.5t-5 1.5q-6 -3 -14.5 6t-18.5 18q-8 9 -8.5 15t-0.5 10q1 3 4 7 t-2 17q-2 13 -6 30t-4 38q0 11 -1 43.5t-1 68v63.5t2 32l8.5 22t0.5 28q-12 29 -30 26q-8 -2 -21.5 -10.5t-19.5 -19.5q-5 -10 2.5 -34.5t7.5 -51.5v-34v-58t0.5 -68t3.5 -69.5t8.5 -58t11.5 -31.5q11 -11 30 -26t44.5 -26t55 -13.5t61.5 9.5q63 25 92 46.5t31 40.5 q0 19 -4 37t-5 23v33v68v70.5v41.5q4 15 8 42.5t8 37.5q1 11 -7.5 32.5t-15.5 22.5zM200 249q-5 -38 2 -53q3 -10 7 -13q0 33 1 63q0 24 1 50t1 39q0 15 -1 46.5t-3 66.5l-8 86q0 -2 1 -40t2 -87t0 -94t-3 -64zM484 498v-153v-58.5t-1 -51t-1.5 -38.5t-0.5 -18 q-3 -7 -5 -22.5t-9.5 -34t-21 -36.5t-36.5 -31q-25 -14 -47.5 -21.5l-39.5 -13.5q-19 -7 -38 -11q42 4 78 18q32 12 64 34t49 63q9 31 11 93.5t2 123.5q0 73 -4 157z" />
<glyph unicode="V" horiz-adv-x="608" d="M617 -324h-634v1222h634v-1222zM484 516q1 6 -4.5 15t-12 16t-13.5 9.5t-12 1.5q-10 -4 -18 -21t-12 -45q0 -13 -12.5 -54.5l-27.5 -88.5t-30 -88.5t-22 -55.5l-20 -46.5t-14 -21.5q-5 0 -12.5 17t-11.5 24q-3 7 0 17t-1 19q-4 5 -11.5 21.5t-17 39.5l-20 47t-15.5 43 q-10 38 -21 68t-11 45q0 6 -1 19t-6 26.5t-11 24t-13 10.5q-16 4 -25.5 -15t-3.5 -51l22.5 -62.5l38.5 -104.5l39.5 -102l23.5 -58l18 -44.5t12 -28.5q2 -4 7 -10.5t12.5 -13t16.5 -10.5t16 -2q12 2 19.5 8.5t7.5 22.5t-1.5 23.5t3.5 13.5q1 4 14.5 40.5t27 82l26 85 t16.5 49.5q4 8 9 23t11 30l10.5 27t7.5 17q5 6 12.5 18.5t9.5 19.5zM280 264q1 3 -5 24.5t-14.5 49l-16.5 51t-9 29.5q-3 2 -9 20t-14 37q-10 22 -19 47l34 -104q15 -41 26.5 -76.5t12.5 -39.5q3 -15 8 -26q4 -7 6 -12zM501 505l-65 -199l-24.5 -73.5t-22 -67l-15.5 -50 t-9 -23.5q-4 -13 -12 -26.5t-13 -16.5q-7 -4 -13 -4h-5q1 -4 1 -7q0 -10 -4 -11l-18 -8q9 1 18 5l14.5 6.5t12.5 12.5q4 3 17 38.5l31 86l37 107l35 106.5l26.5 84t8.5 40z" />
<glyph unicode="W" horiz-adv-x="596" d="M612 -324h-634v1222h634v-1222zM99 550q-7 1 -19 -14t-16 -29q-2 -5 1 -29t6.5 -58t8.5 -74l9.5 -76t8.5 -62t5 -35q3 -25 5 -48t2 -28v-18.5t12 -21.5q14 -6 27.5 -1.5t25.5 29.5q6 12 12.5 31t15 38l15.5 34.5t17 25.5l21.5 23.5t7.5 21.5q1 10 -4.5 13.5t-8.5 13.5 q-4 7 -1 19t11 13q7 3 17.5 -10.5t16.5 -20.5q4 -3 16.5 -20.5t26.5 -40.5l26.5 -42t13.5 -25q1 -5 6.5 -22.5t14 -36t17 -31t17.5 -9.5q10 4 13.5 15.5t3.5 27.5v31.5t2 27.5t5.5 54.5t7 90t7.5 89t9 50.5q10 19 17.5 41t4.5 33q-4 11 -13 21t-15 10q-7 0 -21.5 -22.5 t-14.5 -45.5q0 -11 -3 -49.5t-7.5 -83.5t-10 -84t-6.5 -50q-5 -21 -4.5 -32.5t-11.5 -3.5q-14 6 -24 13t-12 19q-4 13 -7 25t6 12q8 0 11.5 0.5t3.5 9.5q0 8 -9 23.5t-17 26.5q-7 12 -17.5 25t-12.5 25q-1 15 -5 34t-7 25q-1 5 -4 12.5t-7 6.5q-2 -3 -6.5 -8t-7.5 -6 l-18 -17.5t-14 -27.5q-2 -9 -4.5 -23.5t-6.5 -25.5q-3 -11 -1.5 -15.5t-1.5 -14.5q-5 -8 -17.5 -15.5t-16.5 -16.5q-1 -6 -6.5 -17.5l-11.5 -23t-12.5 -21.5t-8.5 -16q-9 -9 -7 -12t-3 1q-4 2 -6 14t-6 28.5t-5.5 32t-1.5 23.5q0 10 -2.5 33.5l-5.5 51t-5 50.5t-2 30 q3 13 4 39t1 36t-10 21t-14 13zM153 521q4 -33 9 -63l4 -48t0 -33q-2 -8 -2 -18.5v-18.5v-18q2 13 6 24q4 8 5.5 16t1.5 12q0 3 -4.5 26.5t-8.5 49.5zM313 435q11 -19 19 -35q9 -14 15.5 -26t8.5 -16q3 -4 7 -13t9 -18.5t7.5 -16.5t2.5 -5q0 1 -8.5 21t-20.5 43.5l-23.5 44 t-16.5 21.5zM524 494q-3 -48 -9 -87q-4 -33 -7 -63t-3 -38q0 -7 -3.5 -38t-7 -68.5t-7 -67.5t-3.5 -35q0 -8 -2.5 -23t-9.5 -21q-11 -11 -23 -7q-4 2 -7 6q-3 1 -3 3l7 -10q8 -11 16 -9q24 4 26 47q0 11 4 43.5t7.5 69.5t7 69t4.5 40q0 9 2 39t5 63q4 39 6 87zM183 53 q-13 -17 -17 -16.5t-9 -3.5q-1 -6 6 -5t23 17q7 8 18.5 29t21.5 44.5t19 41.5t10 22q4 3 6.5 11t4.5 17q4 10 7 23q-19 -44 -38 -80l-31 -61.5t-21 -38.5z" />
<glyph unicode="X" horiz-adv-x="605" d="M618 -324h-634v1222h634v-1222zM477 507q4 15 -6.5 26.5t-13.5 17.5q-5 5 -5 8v5l-7 -2q-7 -4 -7 -9q-4 -2 -15.5 -14.5t-17.5 -21.5q-3 -6 -12.5 -22l-21.5 -36.5l-23.5 -39.5l-17.5 -29q-12 -19 -23 -34t-13 -23l-6 -11q0 1 -1 4q-3 1 -6 8q-5 4 -13.5 13.5t-3.5 12.5 q4 4 7 2t5 6q1 7 -3.5 14.5t-13.5 15.5q-5 7 -18.5 20t-24.5 32l-19.5 42.5l-16.5 35.5q-2 10 -5 13l-8 8q-6 4 -6 2v-4q-13 -6 -23 -13q-19 -15 -15 -35q2 -10 13.5 -27.5t26.5 -36l28 -36l21 -28.5q16 -20 36.5 -42.5t23.5 -27.5l5 -8q-1 -4 -5 -11q-4 -9 -10 -15 q-4 -4 -14 -17t-16 -18q-4 -2 -13.5 -14l-21.5 -27l-23 -30l-17 -23q-9 -15 -20 -29.5t-8 -28.5q1 -13 17.5 -23.5t31.5 4.5q13 15 18.5 35t26.5 47l38 48t19 27q1 8 2 9t-8 5q-16 2 -10 11q4 2 8 10.5t9 9.5q3 0 5.5 2.5l7.5 7.5q2 2 8 6v-15q0 -16 4 -21q1 -5 10 -19 l20 -30.5l21 -32t16 -23.5q12 -15 22 -32t16 -26q5 -9 10.5 -17t12.5 -12q7 -5 17.5 -5t19.5 9q19 12 16 32q-4 10 -26 28.5t-35 37.5q-7 8 -20.5 26.5t-28 36.5t-25.5 34.5t-14 19.5l-6 9q2 2 4 6q1 1 1.5 2.5t5.5 3.5q1 1 3 1.5t3 3.5q2 1 4 1q-2 2 -5 4q-7 3 -11 0 q-3 -4 -11 -8q-3 -1 -4 -1l-8 9q4 2 9 7q3 3 8.5 8l11.5 10q5 4 14 17t17.5 28l16 28t13.5 20q9 13 30.5 33.5t27.5 27.5q13 15 15 27zM481 474l-54 -74q-22 -30 -38 -57t-21 -29q-5 -10 -1 -18.5l7 -14.5l15.5 -21l27 -37l25 -35t8.5 -9q-4 5 -13 18l-18.5 27l-17.5 26.5 t-8 16.5q-3 7 -5 14.5t-5 10.5l-6 7q-3 2 -4 2zM277 412q0 -4 3.5 7.5t0.5 15.5q-1 1 -10 16l-20 33q-12 19 -30 44q18 -25 30 -45q11 -21 20 -40t6 -31zM277 177q-19 -34 -37 -60q-13 -23 -28 -42.5t-19 -23.5q-8 -7 -15 -7q-4 0 -7 1l-14 -20q6 1 14 2q12 4 16 10 q3 1 18 21.5l31.5 43.5t30 45.5t10.5 29.5zM477 37q0 1 -1 1t-3 -4l-4 -7q2 -1 4 -1t4 11z" />
<glyph unicode="Y" horiz-adv-x="607" d="M615 -324h-631v1222h631v-1222zM299 328q-7 -2 -10 -2t-4 10q-4 7 -4 12t-3 15q-3 5 -12.5 17t-21 24.5t-21 24.5t-12.5 17q-4 5 -8 17.5l-8.5 27.5t-11 27t-11.5 16q-11 9 -27.5 7t-20.5 -19q-1 -9 8.5 -29.5t24.5 -43.5l30.5 -46.5t26.5 -36.5l40.5 -53t19.5 -27 q0 -3 0.5 -26t2 -51t1.5 -54v-32q0 -7 -2 -21.5t-1.5 -27.5t8 -23.5t25.5 -10.5t22.5 10.5t4 23.5t-4 27.5t-4.5 21.5q-3 6 -4.5 26.5t-2.5 45t0 46.5t4 33q4 9 19.5 32.5t36 51.5l39 52t25.5 32l31 37t18 32t-11.5 20.5t-15.5 15.5q-6 5 -17.5 -3t-22.5 -25l-15.5 -25.5 l-21.5 -36l-19.5 -34t-11.5 -23.5q-4 -4 -13 -16.5t-18.5 -24l-17.5 -21.5t-9 -10zM224 510l68 -106q-2 4 -11.5 20.5t-24.5 35.5q-15 21 -32 50zM499 477l-70 -99l-49 -70t-22 -34v-35t2 -70q0 -46 3 -101q-5 -7 -7 -12q-6 -11 -10 -14l-11 -11q7 3 15 11q6 7 10.5 17 t4.5 31q0 16 1.5 47.5t1.5 62.5v78l64 94l45.5 70t21.5 35z" />
<glyph unicode="Z" horiz-adv-x="612" d="M619 -324h-635v1222h635v-1222zM158 559q-5 0 -10 2t-7 -2q-4 -4 -1 -14.5t3 -17.5v-35h71h53.5t31.5 1q12 4 17 2t13 2q8 3 24.5 6t24.5 -10q9 -13 5 -24t-7 -14q-1 -1 -24 -30.5l-51 -65.5l-54 -67.5l-33 -40.5q-8 -8 -19.5 -28l-22.5 -39t-17.5 -34.5t-6.5 -18.5 q0 -6 -5.5 -27.5t-0.5 -32.5q6 -10 23.5 -11t28.5 -1q4 0 32.5 -1t61.5 -2t61.5 -2.5t35.5 -1.5q16 0 26 -4t27 -2q16 4 29 20.5t13 37.5q0 20 -21 25.5t-38 -4.5q-8 -4 -27 -8t-39.5 -6t-39 -3.5t-23.5 1.5q-12 1 -25 8t-21 4q-7 -4 -14 -7.5t-16 -3.5t-23 4.5t-14 9.5 q0 1 16.5 24.5l36 50.5t39.5 51.5l28 34.5q7 8 30 38.5l47 64l43.5 61t23.5 31.5q6 6 12 24t6 29q0 9 -14.5 24t-22.5 14q-9 -1 -16 -8.5t-17 -7.5q-2 0 -28.5 -1t-58 -1t-59 -0.5t-31.5 -0.5q-5 0 -14.5 0.5t-17.5 2.5q-11 2 -24 4zM481 518q-1 -12 -2 -22q-4 -10 -7 -19.5 t-8 -15.5q-3 -5 -18.5 -26l-38 -49.5l-47 -61l-46 -61.5l-36.5 -48.5t-16 -23.5q-4 -6 -6 -10t-6 -8q-4 -5 -6 -8l48 7q-7 -4 -12 -4q-11 0 -7 12q1 8 25 41.5l52 71.5l52 72l29 41l15.5 21.5t20 30t15 32t-0.5 28.5z" />
<glyph unicode="\" horiz-adv-x="550" d="M560 -324h-609v1222h609v-1222zM130 457l21 -27.5t41.5 -58.5l51 -74.5l52 -75.5l43.5 -62t23 -35q10 -14 20 -29.5t21 -29.5t18.5 -22.5t11.5 -4.5q13 8 -7 43q-5 10 -16.5 28.5l-24 37.5l-24 36.5t-15.5 25.5q-5 9 -29 43t-50.5 76l-50.5 82.5t-34 61.5q-8 20 -16 31.5 t-14.5 16t-10.5 8.5t-5 7q-6 7 -8.5 6.5t-6.5 -3.5q-6 -4 -10.5 -17t-4.5 -23q0 -11 24 -41zM287 353l66 -103q24 -41 46.5 -74t29.5 -39q8 -4 -12.5 28l-49.5 74z" />
<glyph unicode="^" horiz-adv-x="602" d="M614 -324h-634v1222h634v-1222zM272 414l-18 -6t-6 -10v-37q0 -4 -9 -22l-20 -39l-20.5 -40t-13.5 -26l-27 -57q-9 -19 -22 -38q4 -9 5 -12.5t8 -7.5q5 -3 10.5 -2t12.5 -2q6 -4 11 -9.5t8 -5.5q2 0 13 23.5l24.5 53.5l25 57.5l13.5 32.5q5 15 4.5 22t2.5 17q4 10 15 19 t28 1q7 -6 14 -20t15 -34l18 -43t27 -45l2 -7q6 -8 6 -12.5t4 -0.5l4 1q4 -7 12 -12q2 -8 5 -23t14 -19q14 -7 19.5 -5.5t13.5 13.5q9 11 10 17t-7 16q-4 2 -16.5 17t-27.5 35t-28 41.5t-21 40.5l-2 3q-11 23 -17 45q-7 40 -9 45.5t-10 9.5q-9 3 -34 15.5t-37 9.5zM334 426 q8 -5 15 -11q5 -4 11 -8t9 -8q3 -3 9.5 -21.5t16 -42l21 -49.5t24.5 -43q12 -18 28.5 -35.5t30 -30.5l22 -21.5t7.5 -8.5q-1 2 -20 19t-43 49t-48.5 74.5t-39.5 97.5q-4 11 -10.5 19t-15.5 11q-6 5 -17 9z" />
<glyph unicode="_" horiz-adv-x="512" d="M520 -324h-542v1222h542v-1222zM175 -29q-12 4 -40 4t-38 -4q-8 -1 -7 -6t5 -7q2 -4 11 -10.5t8 -11.5q0 -5 -7 -9l-7 -3q0 -6 3 -10q3 -6 11 -9q5 -4 23 -3.5t30 0.5h201q8 0 12 -3.5t17 0.5q12 2 18 11.5t9 20.5q1 10 -4.5 27t-18.5 21q-15 6 -28.5 -1t-19.5 -7h-82 q-32 0 -61.5 -0.5t-34.5 0.5z" />
<glyph unicode="`" horiz-adv-x="594" d="M611 -324h-631v1222h631v-1222zM371 594q10 0 -5 13.5t-30 18.5q-14 7 -25.5 16.5t-23.5 14.5q-12 7 -29 21.5t-26 25.5q-10 12 -25 9.5t-23 -16.5q-9 -13 3 -21t21 -9q9 -4 12 -7.5t14 -7.5q4 -3 16.5 -10.5l25.5 -15.5q17 -9 33 -22q8 -5 18 -8q17 -7 25 -7t9.5 2.5 t9.5 2.5zM217 641q5 -3 2.5 -8.5t1.5 -5.5q1 0 6 -1q5 -3 9 -4t8 -3l20 -11l52 -23l-15 9q-8 4 -15 8q-16 6 -27 13z" />
<glyph unicode="a" horiz-adv-x="577" d="M595 -324h-631v1222h631v-1222zM117 27q6 -2 13.5 -7t15.5 9q8 12 13.5 30.5t6.5 26.5q3 10 0.5 17.5t5.5 9.5q9 2 13.5 -7t16.5 -9q11 0 25 5.5t46 5.5q33 0 47.5 -3t26.5 4q12 6 23.5 14t16.5 4q1 -1 6.5 -9.5t10 -17t9 -18.5t4.5 -15q3 -10 9 -26t25 -18q20 -4 26.5 2 t8.5 22q5 13 -8 24.5t-18 24.5q-3 6 -12.5 30l-21.5 52.5t-22.5 57t-16.5 43.5q-5 17 -15.5 42.5l-21 50l-19 45t-10.5 26.5q-3 5 -4 17t-4 25t-6.5 25t-9.5 18q-6 5 -13 0t-13 -12.5t-10.5 -16t-6.5 -14.5q-1 -12 3 -21t4 -16q0 -6 -6 -14.5t-10 -19.5q-4 -9 -5.5 -17.5 t-1.5 -15.5q0 -8 -18 -43t-31 -73q-12 -35 -13 -48t-4 -23q-1 -8 -6.5 -25t-14.5 -31q-4 -10 -13.5 -26t-17.5 -34.5t-10 -33.5t7 -17zM366 235q9 -17 11.5 -34.5t-1.5 -31.5q-1 -6 -8 -7t-17.5 1t-22 5t-18.5 3q-30 0 -41 5q-4 4 -13 -0.5t-28 -10.5q-20 -7 -27 -5.5 t-14 4.5q-4 1 -1 8.5t9 16.5t12 19.5t8 19.5t9.5 29.5l16 42l14.5 38t6 17.5q0 4 -5.5 7.5l-10.5 6.5q-3 1 4 8t13 15q7 10 9 16t11 3q4 -2 16 -26l26.5 -55t26.5 -59.5zM243 222l7 16q4 8 7 15t4 11q6 8 7 20q1 8 4 18q-5 -4 -10.5 -17.5t-8.5 -28.5q-6 -18 -10 -34z M294 186q-2 7 -6 15t-11 6q-5 -2 -12 -2h-8zM201 78l139 5q-12 3 -34 2.5t-46 -2.5q-29 -1 -59 -5zM194 70q-4 -10 -6 -17q-7 -17 -12 -23q-4 -3 -7 -5.5t-4 -6.5q-3 -3 -3 -6q13 11 19 19q15 21 13 39zM491 126q3 -4 -2 10t-14.5 38l-23 58.5l-27.5 70.5l-80 193l70 -182 l28 -69l23 -58.5t16 -42.5t10 -18z" />
<glyph unicode="b" horiz-adv-x="596" d="M605 -324h-634v1222h634v-1222zM167 423q0 5 -5.5 8t-7.5 -3q-4 -5 -4.5 -12t-1.5 -15q-6 -13 -6 -30q0 -7 5.5 -17t8.5 -14q4 -4 6.5 -11t6.5 -3q9 3 7 11t-7 21q-1 11 -7 27t-2 20q1 2 2 4.5t3 6.5q2 3 2 7zM183 411v-12.5t0.5 -21.5t1.5 -17t1 -1q0 11 2.5 34.5 t6.5 23.5q2 0 10.5 1t21.5 4q12 1 29 2q-19 3 -35 0q-13 -1 -25 -4t-13 -9zM381 284q12 15 16 25q2 2 3 14.5t4 16.5q5 4 10.5 26.5t4.5 40.5q-4 20 -12 36.5l-11 22.5l-9.5 22.5t-7.5 6.5q-1 -7 2.5 -13t-7.5 -5q-8 2 -20.5 6.5t-22.5 10.5q-6 1 -23 1.5t-33 3.5 q-20 1 -44 1q-17 0 -29 -1q-27 -4 -41 -9q-13 -7 -31 -13.5t-22 -11.5q-2 -5 0 -8.5t4 -9.5q2 -5 2 -26v-35q0 -7 -1 -45.5t-1 -85.5t1 -87t5 -48q7 -18 8 -24.5t1 -15.5q0 -6 5 -25t31 -25q27 -5 65.5 -7t61.5 2q26 4 45 4t28 1q11 3 14.5 1.5t6.5 1.5q1 3 10 12.5t18.5 22 t18 29t8.5 31.5q0 31 -4 51t-12 36q-8 14 -11.5 28.5t-8.5 19.5q-6 4 -10 0l-3 -5q-4 6 -5 11q-6 10 -4 15zM290 261q22 0 52.5 -22.5t49.5 -46.5q9 -12 7 -29t-10 -33.5t-19 -31t-25 -20.5q-12 -7 -33.5 -9t-42.5 -1.5t-38 3.5t-18 5q-4 2 -22 -5q-8 -4 -18 -1.5t-19 8.5 q-5 2 -7 12.5t-2 22.5v30q-1 -6 0 -12q0 -11 8 -22q4 -8 8 -8h8q6 1 4.5 18t-5.5 25q-3 10 -4 27.5t-1 25.5q0 6 4 19l2 11l-6 -4q-9 -4 -9 -8q-1 -4 -3 -16.5t-6 -25.5q-3 -18 -7 -37l4 93h2q1 0 5 5q4 4 14 18l11 15q4 -3 9 -4q3 -2 7.5 -4t10.5 -3q16 0 34 1q15 1 30 2.5 t25 1.5zM277 451q14 2 31 -1.5t40 -18.5q23 -14 23 -37.5t-4 -49.5q-4 -15 -8.5 -24.5t-8.5 -16.5q-7 -6 -11 -12l24 11q-4 -11 -8 -18q-4 -8 -7 -12.5t-5 -4.5q-6 0 -10.5 9.5t-7.5 11.5q-5 4 -16 9.5t-24 5.5h-23.5h-37t-35 -0.5t-20.5 -0.5q-8 -4 -6 -15t5 -20 q4 -11 -11 -15q-7 -3 -13 -3v24q0 11 -1 20.5t-1 15.5v27v45.5t1 43.5t2 21q4 3 21 5.5t21 1.5q6 -2 10 -10t6 -1l9 2t21.5 3.5t24.5 2.5t19 1zM333 543q30 -18 53 -37q21 -18 36.5 -39t16.5 -43q0 -43 -4 -82.5t-9 -47.5q-15 -10 -13 -14q0 -1 9 -12t18.5 -26.5t16.5 -34 t5 -36.5q-4 -35 -13.5 -67.5t-28.5 -59.5q-19 -25 -36 -38q-10 -7 -17 -13q25 14 44 36q17 19 34 48t23 69q5 40 -2.5 65.5t-17 38.5t-18 19.5t-7.5 14.5q3 7 8.5 22t10 35.5t7.5 42t-3 43.5q-5 19 -20 40t-31.5 38t-33.5 27.5t-28 10.5zM213 352l82 -5q-5 4 -18.5 4.5 t-26.5 0.5h-37zM190 124l49 -12l-42 12v12q0 6 0.5 10.5t0.5 8.5t-0.5 13.5t-0.5 20.5v26q-4 -1 -4 -15.5t-2 -32.5q-1 -19 -1 -43z" />
<glyph unicode="c" horiz-adv-x="597" d="M606 -324h-634v1222h634v-1222zM410 352q8 -13 19 -13.5t13 2.5q4 4 11 24.5t-1 40.5q-6 11 -21.5 28.5t-34.5 35l-34 30.5t-18 16q-9 3 -9.5 6.5t-7.5 0.5q-7 -4 -22 -7t-23 -3q-6 0 -22 -3t-37 -13.5t-43.5 -31t-35.5 -54.5q-24 -66 -26 -139t36 -139 q37 -67 92.5 -93.5t121.5 -7.5q31 11 50.5 34t30 49.5t13.5 48.5t6 30q1 15 -5 30t-13 15q-9 0 -18 -3.5t-11 -13.5q-3 -2 -4.5 -13t-4 -23.5t-5.5 -24t-4 -16.5q-4 -6 -13.5 -18.5t-24.5 -24t-35.5 -20t-41.5 -4.5q-44 7 -87 60t-46 136q-1 41 11 71t28.5 51t33.5 33t25 16 q8 3 26 2.5t38.5 -4t36.5 -9t20 -6.5q7 -7 13 -17t8 -19q4 -6 6.5 -20.5t8.5 -19.5zM452 329q5 -2 12 -2q12 0 14 8q4 10 4 40.5t-19 65.5q-21 36 -48 60.5t-45 33.5q-8 4 -17 7.5t-15 6.5q-8 4 -17 4q26 -11 52 -25q20 -12 41 -31t34 -41q24 -47 28 -72.5t-1 -34.5 q-11 -14 -15 -16q-4 -4 -8 -4zM196 333q-11 -32 -8 -62t9.5 -51.5t13.5 -36.5t7 -16q0 -4 -12.5 31t-8.5 105q2 35 15.5 59t28.5 37q20 18 41 27q-2 2 -11.5 0t-23.5 -12.5t-28.5 -30t-22.5 -50.5zM486 217q0 -27 -6 -56q-4 -24 -14 -52t-31 -47q-19 -20 -38.5 -32.5 l-34.5 -21.5q-19 -8 -35 -12q28 8 54 21q23 10 44 27.5t35 46.5q15 25 19 48.5l7 40.5q1 19 0 37z" />
<glyph unicode="d" horiz-adv-x="598" d="M610 -324h-634v1222h634v-1222zM136 457q0 -15 -0.5 -26.5t-10.5 -44.5q-2 -16 -1.5 -52t3.5 -74l5.5 -68t2.5 -35q0 -9 1.5 -34t1.5 -37q0 -7 2.5 -15.5t14 -16t36 -14.5t69.5 -7q84 0 124.5 43.5t65.5 108.5q12 31 10.5 76t-11.5 88.5t-23.5 79t-27.5 50.5 q-14 16 -33 25.5t-39 14.5t-35.5 5.5t-22.5 -0.5q-12 -5 -41 -3.5t-43 1.5t-27.5 -6.5t-16.5 -20.5q-2 -7 -2 -14q-2 -5 -2 -12.5v-11.5zM172 472q16 -7 30 -11q28 -8 42 -3q5 2 20.5 5t33.5 3t35 -6t31 -19q10 -14 24.5 -44.5t23.5 -67t7.5 -79t-21.5 -81.5 q-20 -38 -40 -56t-36 -23t-28.5 -2.5t-18.5 3.5q-7 0 -16.5 1.5t-18.5 1.5q-10 0 -22 1q0 -4 -4 -6q-7 -8 -14 -3q-9 5 -13 8.5t1 13.5q3 8 5 9.5t-1 13.5q-1 11 -6.5 32t-5.5 33q0 5 -1 38.5t-3 73t-2.5 72.5t-0.5 43q0 8 -0.5 15.5t-0.5 15.5v18zM203 431q0 -80 3 -144 q1 -54 1.5 -99t2.5 -45q2 -1 3.5 29.5t3 70t2 75.5t0.5 45v19.5t2 22.5q0 13 1 25l46 5q-17 2 -31 2q-12 0 -21.5 -1t-12.5 -5zM485 358q5 -49 4 -95q-3 -41 -11.5 -83t-31.5 -71q-45 -56 -80.5 -73t-51.5 -19q-15 -6 -35 -6h-23q28 -5 60 0q26 3 56 17t56 46 q52 64 61.5 138.5t-4.5 145.5z" />
<glyph unicode="e" d="M611 -324h-634v1222h634v-1222zM360 449q12 0 31.5 -3t34.5 0q17 1 23.5 11.5t8.5 20.5q2 11 -6.5 28t-18.5 21q-7 4 -21 1.5t-22 -7.5q-6 -3 -18 -5l-25 -4t-26.5 -3t-20.5 -1t-28.5 1t-46.5 2t-46 0t-28 -4q-7 -5 -11.5 -22t-7 -38.5t-3.5 -41t-1 -30.5t2 -28.5 t3.5 -33.5t2.5 -30t-1 -19q-2 -8 -6 -28.5t-4 -38.5q0 -8 1.5 -31t4 -47.5l4.5 -45t2 -21.5q0 -5 7 -18t18 -16q5 0 33.5 -0.5t63 -0.5h64h33.5q5 0 17.5 -3t26 -5.5t23.5 -4t16 -1.5q9 0 24.5 10.5t17.5 22.5q0 12 -3.5 31.5t-17.5 22.5q-12 4 -41 -7t-46 -13 q-8 -3 -29.5 -1t-45.5 5t-44 5t-26 2q-8 0 -24.5 -4.5t-22.5 0.5q-7 4 -3 16.5t4 16.5q0 3 -0.5 12.5t-4.5 19.5q-2 2 -2.5 18.5t1 33t3.5 30.5t6 15q5 5 16 2t19 1q3 0 18 1t32 1h31.5t20.5 -2q8 -4 14 -6.5t25 1.5q21 2 25 14t5 31q3 20 -10 24.5t-22 9.5q-11 2 -28 -4.5 t-27 -8.5h-16.5t-23 1.5l-22 3t-15.5 1.5q-6 -3 -14.5 -3t-18.5 -1q-8 -2 -19 -2v65v46.5t2 27.5q46 1 85 4q33 1 62 2t36 1zM295 423h-95q-2 -15 -2 -27v-34q0 -14 -1 -18q-3 -5 -4 -9q27 0 47 1q19 3 33.5 3t18.5 1q1 0 -7.5 0t-20 2l-23 4t-13.5 12q-5 16 -6 31.5t5 18.5 q3 3 13.5 4t22.5 5q14 3 32 6zM348 341l28 -19q-8 10 -16 14q-7 4 -12 5zM223 208q1 0 12.5 1t25 3t23 2.5t8.5 0.5q-5 4 -17.5 2.5t-25.5 -3.5t-20.5 -4.5t-5.5 -1.5zM198 220q0 -5 1 -20.5t3 -34.5q2 -22 3 -46l22 4q-4 -6 -6 -6q-4 0 -4.5 5t-1.5 22q-3 18 -4.5 31.5 t-5.5 24.5q-3 10 -7 20z" />
<glyph unicode="f" horiz-adv-x="602" d="M613 -324h-634v1222h634v-1222zM150 500q-4 -4 2 -16.5t6 -17.5q0 -2 -3 -22.5t-3 -38.5v-27t0.5 -38t0.5 -35.5v-18.5v-34.5t-0.5 -61.5t-0.5 -62.5v-36.5q0 -27 13 -31q6 -1 23.5 -2.5t22.5 1.5q6 3 12.5 9t-5.5 15q-12 8 -18 13t-8 13q-1 4 -1 11v12q0 7 -3 12 q3 -2 4 -2q2 0 3 17q0 9 2 21t6 23l6 23q-6 -4 -10 -7q-8 -9 -8 -18q0 -5 -1.5 -8.5t-1.5 -7.5v-5l-11 91q9 0 15 -2q6 -1 12 -1.5t11 -3.5q3 0 17.5 -1.5t31.5 -1.5h31t19 3q10 4 26 1.5t24 -1.5q10 4 16.5 13t8.5 17q2 9 -10 16t-26 4q-13 -4 -33.5 -8t-27.5 -4 q-6 0 -15 0.5t-20.5 0.5h-21.5t-13 -1q-9 -4 -16.5 -6.5t-11.5 -7.5q-2 -1 -5 2.5t-6 7.5t-5 8t-2 6q0 4 0.5 14t3.5 15v18.5v34v35.5v23q6 19 25 19h17t26.5 -1t26 -1h17.5q4 0 22.5 1t39.5 1h39t19 -2q4 -4 20.5 -6.5t31.5 6.5q6 6 9.5 14.5t3.5 19t-2.5 20t-5.5 13.5 q-10 8 -17.5 6.5t-28.5 -10.5q-22 -8 -48 -16.5t-47 -8.5q-11 0 -39.5 -0.5l-59 -1t-54 -2t-25.5 -3.5zM201 328q2 -1 3 5.5t1 15.5t-1 17.5t-3 13.5q0 2 4 11t6 18.5t3 17.5t-4 10q-15 4 -18.5 -12t-2 -37.5t5 -40t6.5 -19.5zM230 428q-1 2 -1.5 -10.5t-2 -26.5t-1.5 -27 t3 -13q1 -1 3.5 9l6 23.5t8.5 24.5t10 11q3 0 26 1.5t47 1.5h68q-46 -3 -82 0q-29 0 -55 1t-30 5zM306 215h-48q12 -4 23 -4q18 -3 25 4zM229 128q0 -30 -0.5 -43.5t-4.5 -20.5q-3 -8 -6 -8h4q3 0 7 3q1 1 3 14t3 30.5t1 37.5v33q0 15 -3 25.5t-5 16.5q-6 7 -10 13 q4 -7 6 -21q1 -24 5 -80z" />
<glyph unicode="g" horiz-adv-x="602" d="M612 -324h-634v1222h634v-1222zM422 326q9 3 19.5 18t8.5 33q0 9 -6.5 22t-16.5 27t-21 26.5t-19 20.5q-18 18 -48.5 28.5t-71.5 5.5q-19 -4 -46.5 -17.5t-53.5 -45t-44.5 -79.5t-18.5 -120t22 -119.5t51.5 -74.5t62.5 -38.5t54 -11.5t44.5 10.5t44.5 25.5t35.5 28 t18.5 18q3 6 4 21t1 30.5t-1 30.5t-1 22q0 15 2.5 25t3.5 22q3 11 -6 20.5t-15 17.5q-4 3 -5 5.5t-3 6.5q-2 3 -2 4q-7 -12 -13 -19q-7 -6 -18 -11.5t-25 -5.5q-29 0 -45.5 1t-23.5 -19q-7 -19 5.5 -34t21.5 -17q9 -5 18.5 -1.5t17.5 7.5q8 3 8.5 7t7.5 -4q8 -7 17.5 -20 t2.5 -42q-9 -33 -30 -52t-65 -15q-21 1 -43.5 15.5t-42.5 35.5t-32.5 47t-14.5 55t0 59.5t8 58.5t16 49.5t27 32.5q33 22 60.5 23t47.5 -5q22 -8 35.5 -28t22.5 -29q9 -11 5.5 -26.5t15.5 -26.5q9 -6 16 -2zM296 537q0 -4 25.5 -7.5t44.5 -15.5q21 -12 43 -30.5t33 -33.5 q10 -14 13.5 -29.5t7.5 -20.5q0 -4 0.5 -5.5t0.5 -2.5v-4q-3 23 -9 43q-9 19 -22.5 39.5t-37.5 36.5q-26 16 -44.5 22.5t-30.5 7.5q-13 1 -24 0zM187 242q1 -46 13.5 -74t26.5 -45.5t25.5 -23.5t14.5 -6q4 0 16 12q6 7 13 14q-7 1 -14 4q-7 1 -15 4t-15 9q-16 11 -31 33.5 t-18 86.5q-2 31 3.5 57.5t11.5 45.5q7 22 18 41q-15 -14 -26 -36q-9 -19 -18 -48t-5 -74zM347 298h60q-12 0 -24 1q-11 0 -22 1.5t-14 -2.5zM427 291l15 -17q4 -7 9.5 -15.5t9.5 -13.5q3 -5 4.5 -20t1.5 -33t-1.5 -34t-1.5 -27q0 -19 -1.5 -34t-6.5 -22l-13.5 -13.5 l-20.5 -20.5l-27 -28q17 12 32 27q15 12 27.5 27.5t17.5 34.5q4 18 4 43t-1 47.5t-4.5 39.5t-6.5 20q-1 4 -6.5 12t-11.5 15.5t-11.5 12.5t-7.5 -1z" />
<glyph unicode="h" horiz-adv-x="607" d="M614 -324h-633v1222h633v-1222zM487 507q-17 -10 -34 -17q-13 -6 -24.5 -13t-13.5 -12q-3 -3 -4.5 -17t0 -28.5t2.5 -28.5t1 -20v-25t-1 -30t-3 -28t-4 -15q-3 -10 -7 -13.5t-11 1.5q-8 2 -15 10t-14 15q-7 5 -35 -1t-50 -6q-27 0 -38.5 3.5t-15.5 17.5q-4 7 -5 12.5 t-3 11.5q-1 6 -1 10l-3 -15q-1 -5 -4 -10.5t-7 -7.5q-14 -5 -16.5 14t-2.5 35q0 15 -0.5 28.5t2.5 26.5q7 24 7 35q0 6 -4 21q-2 3 -3 5q3 0 8 1q12 4 13 4t3.5 -18.5t3.5 -37.5q1 -29 1 -58l2 110v9q0 9 -4 9h-14.5t-23 -2t-25 -9.5t-18.5 -21.5q-6 -13 -6 -46.5t0.5 -69.5 t5.5 -66.5t5 -36.5v-36t-2.5 -62.5t-2.5 -62.5v-30t2.5 -9t5.5 -13t7 -11.5t13 -4.5q14 3 28.5 13.5t14.5 19.5q0 4 -3 10t-7 11q-4 7 -7 13l3 63q2 23 3 43.5t1 24.5q0 6 -9.5 17t0.5 19q9 5 18 3t13 -2q3 0 18 -0.5t32.5 -2.5t38.5 -2.5t34 -0.5q26 0 32 0.5t11 4.5 q5 1 9 8q5 3 6 5l11 -5q3 -3 8 -6t6 -6q1 -4 1.5 -23t4.5 -43.5t4.5 -46.5t0.5 -31q0 -4 -0.5 -18t-4 -27.5t0 -25t5.5 -12.5q8 -3 22.5 4t24.5 15q1 6 0.5 15t-5.5 21.5t-6.5 23t-1.5 18.5q0 7 0.5 29t1 52t0.5 65.5v65.5v50.5v27.5q0 13 6 32t6 26q0 10 -11 18l-4 6 q1 2 3 5q2 2 6.5 3t6.5 1q6 0 12 6.5t-1 15.5zM335 341l-106 2q5 -8 21 -8.5t36 0.5zM212 193q-3 1 -3 -10v-29t1.5 -34t1.5 -20q2 -12 2 -31.5t-3 -30.5q-2 -5 -2.5 -7.5t-0.5 -5.5v-5q1 15 4 33q4 13 6 31.5t2 38.5v50t-8 20zM494 348q0 -2 -1 -20.5t-1 -36.5v-35.5v-18.5 v-15.5v-24t1 -25.5t2 -16q1 -8 1 -22v-34v-43q1 8 1 17q0 14 1 17v53q0 16 -1 43q0 7 1 15q0 6 2 13.5t2 12.5q0 6 -2 37t-3 69q-1 43 -1 96q-1 -19 -1 -38q0 -15 -0.5 -27.5t-0.5 -16.5z" />
<glyph unicode="i" horiz-adv-x="602" d="M613 -324h-633v1222h633v-1222zM374 525l3 -2q3 -3 10 0q8 2 8 5.5t-10 6.5q-9 3 -15.5 -3.5t-12.5 -8.5q-6 -4 -12 -12.5t-33 -13.5q-26 -3 -41 -2l-29 2q-6 0 -17 1.5t-20 0t-17 -7.5t-9 -19q-3 -13 5.5 -18t21 -5.5t23.5 -0.5t15 -3q17 -22 17 -75q0 -13 1 -54 t2.5 -88t1.5 -86v-44q-3 -12 -6.5 -22.5t-14.5 -14.5q-9 -3 -15.5 0.5t-15.5 2.5q-4 0 -10 -7.5t-11 -15t-9 -15.5t0 -10q5 -5 33 -2.5t46 2.5q16 0 35 -1.5t34 -3.5q14 -4 31.5 -3.5t25.5 14.5q8 12 11.5 27t-3.5 22q-10 10 -27 6q-5 -1 -14 6t-14 7q-7 0 -17.5 -9 t-15.5 -8q-4 0 -4.5 11t-1.5 23.5t-1 25v18.5v256v22t6 11q13 5 26 0q5 -3 21.5 -6.5t25.5 6.5q8 7 16.5 16.5t4.5 19.5q-5 20 -22 26q-8 3 -12.5 6.5t0.5 6.5q2 4 20.5 4.5t22.5 -14.5q1 -9 1 -16v-13v-12q3 14 3 25q0 8 -2 17t-6 13q-3 4 -9 4t-11 1q-7 0 -13 1zM240 539 l145 -4q-35 3 -65 4q-25 3 -48.5 3.5t-31.5 -3.5zM338 391l4 -278l8 2q-3 3 -3 5q0 1 -0.5 3t-0.5 5q-2 5 -3 47t-3 90zM353 107q0 -4 5 -5.5t13.5 -1.5t15 -1t8.5 -1q4 -3 12 -12t8 -15q0 -7 1.5 -15.5t-0.5 -3.5q-1 2 -0.5 22.5t-16.5 28.5q-17 10 -29.5 13.5t-16.5 -9.5z " />
<glyph unicode="j" horiz-adv-x="601" d="M613 -324h-633v1222h633v-1222zM425 466q-2 6 -4 18t-9 12q-6 0 -15.5 -15t-14.5 -26v-27t1.5 -58.5t1.5 -73t-1.5 -74.5t-2 -63t-4.5 -35q-8 -29 -8.5 -40.5t-24.5 -18.5q-10 -4 -19 -4.5t-16 -2.5t-12 -2l12 10q-9 2 -16 5q-14 2 -26 8q-10 5 -26 14.5t-23 36.5 q-5 26 -4.5 43t4.5 24q1 4 9 7q5 1 10 1l-7 16l-11 -6q-4 -4 -8 -7t-5 -6q-3 -4 -10 -7t-13 -12.5t-8 -26.5t8 -43q15 -55 51 -78.5t70 -23.5t68.5 28.5t43.5 75.5q3 24 4.5 81t2.5 117q2 70 2 153zM245 163q0 4 1.5 -13.5t6.5 -25.5q4 -10 13 -17t15 -7q4 0 10 3q4 3 6 6 q-4 0 -10 2q-9 3 -13 9q-7 6 -18 17.5t-11 25.5zM453 430q-1 -79 -1 -140v-146q0 -5 -2 -17.5t-5 -17.5q-5 -9 -5 -11v-4q2 8 6 15q7 16 9 36q2 11 1 58t-1 95q-2 60 -2 132zM453 485q0 4 -0.5 4.5t-0.5 3.5l-3 1q0 -4 3 -7q0 -4 0.5 -4.5t0.5 2.5zM445 517q1 6 -7 3t-11 -8 q-4 -6 5.5 -2.5t12.5 7.5z" />
<glyph unicode="k" horiz-adv-x="604" d="M613 -324h-633v1222h633v-1222zM483 509q-1 4 -13.5 7t-16.5 3q-1 -2 -8 -6q-4 -1 -5 -5l-9 -3q-2 -3 -13 -9q-8 -6 -22.5 -27t-23.5 -29q-4 -6 -17 -19.5l-27 -27l-27.5 -27t-17.5 -20.5q-13 -14 -22.5 -31t-12.5 -19q-3 -3 -15 -12t-25 -21.5l-25.5 -23.5t-14.5 -11 t-7 30q-2 17 -2 34t5 16q2 -3 8.5 -9.5t10.5 -5.5q2 3 1.5 10.5t-0.5 16.5v14.5t0.5 23.5t0.5 22.5v13.5q0 5 -2.5 14t-2.5 11q0 4 6.5 22t6.5 26q0 4 -2 9.5t-3 10.5q-4 6 -5 10q0 3 1 4q4 4 9 4q13 0 17 -5q5 -4 5 -11t3 -34t0 -63q-3 -19 -4 -37q1 3 4 10q1 4 2 9.5 t3 8.5q0 4 1 21.5t1 36.5t-1 36t-1 20q-2 4 -8.5 13.5l-8.5 12.5q-3 0 -13 -8q-5 -3 -10 -9h-6q-4 0 -5.5 -2t-5.5 -3q-8 -4 -19 -13.5t-13 -16.5q-6 -7 -3 -15t3 -14q0 -2 0.5 -11t2 -20t2.5 -20.5t1 -14.5q0 -6 1 -20.5t1.5 -30.5t2.5 -28t2 -14q0 -6 1 -25t2 -32 q3 -15 -0.5 -25.5t-3.5 -21.5v-29v-51t0.5 -50t0.5 -26q7 -16 26 -10q11 5 20 13t9 15q0 6 -3 13t-3 11q-1 6 -1 17.5t-2 19.5q0 5 -1 15.5l-2 22t-1 21.5v12t-2 4t4 10q5 10 10 17t12 12q2 4 9.5 11.5t15.5 17.5q7 10 18 23l4 -3q1 -1 4.5 -3t7.5 -5q3 -4 13 -16.5 t20.5 -28l21.5 -31t15 -23.5q5 -9 15.5 -21.5t20 -27.5t16 -28t10.5 -17q6 -11 12 -25.5t14 -22.5q11 -15 35 0q14 8 16 24t1 25q0 7 -6 9t-15 7q-2 2 -9 11.5l-16 21.5l-17 23.5t-12 18.5l-22 31t-38 48q-22 30 -49 63v3q0 3 6 8q5 6 29 32.5t43 43.5l25.5 21.5t27.5 25.5 t22.5 23.5t12.5 14.5q1 2 -1.5 8.5t-5.5 11.5q-5 7 -9 15l5 3q4 4 6 0.5t8 -6.5q4 -1 11 -1h4l2 -11q3 -7 3 -14q0 -4 -3 -4q5 7 4 20.5t-5 16.5zM242 208q-6 -10 -12 -16q-12 -17 -12 -21q0 -3 0.5 -14.5t2.5 -24t3 -24.5t1 -13q0 -5 1 -23.5t0 -24.5l-5 -10q-2 -3 -3 -6 q5 4 8 12q4 10 5.5 22t0.5 33q-2 41 -3.5 59t3.5 26q1 3 3 8t3 7q2 6 4 10zM346 304l36 -57q15 -21 29 -43.5t20 -30.5q9 -10 19 -23.5t19.5 -28.5t17.5 -26t8 -12q0 -4 2 -13t2 -17q0 -4 -1 -8t-1 -8q-2 -6 -2 -7q4 8 6 17q4 17 0 34q-2 7 -25.5 41l-51 73.5t-52.5 71 t-26 37.5z" />
<glyph unicode="l" horiz-adv-x="582" d="M598 -324h-632v1222h632v-1222zM173 533q-14 5 -25.5 -4.5t-14.5 -16.5q-4 -9 1.5 -20t5.5 -15q0 -1 -0.5 -28.5t-2 -61t-1.5 -65v-42.5q0 -10 2 -46t5 -75l5.5 -71t3.5 -37q3 -8 18 -13.5t19 -5.5q2 0 35 -1t73 -1.5t73 -2t36 -1.5q7 0 13 -3t16 -3q8 0 21.5 6.5 t16.5 23.5q4 17 -5 33t-22 16t-40 -7t-38 -7h-150q-6 0 -17.5 -0.5t-11.5 4.5q0 4 -2.5 30.5t-2.5 37.5v16t-1 38.5t-1 50.5v54v153q11 7 8.5 32t-17.5 32zM215 503q-1 -102 -1 -183v-67.5t0.5 -58.5t2 -42.5t2.5 -16.5l6 -2zM413 -1l-143 2q7 -5 30 -5h49q30 0 64 3z M492 54q-3 -11 -8 -18q-4 -7 -8.5 -13t-9.5 -9q-7 -3 -19 -3q-6 0 -10 2q15 -7 26 -6q8 2 17 10.5t12 36.5z" />
<glyph unicode="m" horiz-adv-x="604" d="M612 -324h-632v1222h632v-1222zM467 489q-10 -2 -21.5 -14.5t-23 -30.5t-22.5 -38.5t-22 -33.5q-10 -15 -22.5 -39l-25.5 -47.5t-27.5 -44.5t-27.5 -29q-14 -10 -22 -1t-13 23t-7.5 28.5t-3.5 17.5q-4 6 -15 25t-32 38q-10 11 -27 33.5l-34 45.5t-31.5 39t-19.5 10 q-6 -5 -4 -15.5t7 -22t10.5 -21.5t5.5 -14t-1 -15t-3 -25.5t-3 -28.5t-4 -21q-2 -7 -3 -44t-2.5 -79.5t-2 -78.5t-0.5 -41q-2 -10 -0.5 -15t24.5 -12q11 -4 20.5 2.5t15.5 17.5l11 21t6 16q0 4 0.5 34.5t0 65t-2.5 62.5t-5 28q-9 -1 -15 -19t-13 -31q-4 -8 -3 -33.5t1 -54.5 v-53t-4 -25q-2 -1 -4 31.5l-4.5 72.5t-3 76t-1.5 45q-4 15 -4 41t2 37q3 9 12 11t18 -2q4 -1 14.5 -15t22 -32.5l23.5 -39t22 -33.5q20 -29 38.5 -63.5t30.5 -44.5q12 -7 26.5 2.5t20.5 8.5q5 -1 2.5 -14.5t2.5 -13.5t7.5 5t7.5 14l9 12.5t13 16.5l17 22l-24 -30l42 80 l-60 -89l57 107l-9 6v32q0 8 2.5 20.5t5.5 16.5q4 3 17 20.5t18 17.5q6 3 8.5 -4.5t8.5 -21.5q5 -15 8.5 -54.5t-0.5 -89.5q0 -27 -1.5 -55.5t-1.5 -54.5v-44t3 -25q1 -8 8.5 -10.5t13.5 -2.5h12.5t7.5 -2q4 -6 4 -9t5 1q2 0 13 13q2 7 8 12q-2 -1 -3 -5q-4 -7 -5 -8 q-4 -2 -10 -2h-3v7q0 3 3 21q4 12 -5.5 35t-9.5 42q0 10 1 57.5t1.5 102.5t2 102.5t1.5 56.5q0 15 12 25q5 5 12 8q7 5 2 8t-14.5 3t-21.5 -1t-20 -3zM272 294q3 -2 -0.5 3.5t-6.5 11.5q-5 7 -12 18q0 -8 3 -15q4 -18 16 -18zM271 330l-41 64q-16 25 -29 47.5l-17 29.5 q-2 6 8.5 -18t26.5 -54t31 -53.5t21 -15.5zM529 489q-3 -113 -5 -204v-76t1 -68.5t2 -51t4 -25.5q2 -5 3 13t1 47t-1 68t-1 79q-2 95 -4 218z" />
<glyph unicode="n" horiz-adv-x="587" d="M606 -324h-634v1222h634v-1222zM174 63q2 8 -6 20t-10 20q0 5 -0.5 28t-1.5 52.5t-1 57v44.5q2 29 4.5 46t0.5 25q-2 3 -9 -10q-4 -7 -9 -13q-1 15 -3 30q-1 12 -0.5 23.5t3.5 14.5q9 6 14.5 11.5t12.5 0.5q1 -1 13.5 -21.5l30 -49l37.5 -62l37 -63.5t29.5 -49.5 t14.5 -24.5l35 -47q1 -1 3.5 -10.5t5 -20.5t6 -21.5t8.5 -12.5q4 -3 14.5 -4.5t20.5 0t19 5.5t10 14q4 19 -4 46.5t-8 93.5q0 31 1.5 71t1.5 79t0.5 69.5t1.5 42.5q3 25 7.5 39t2.5 21q-3 4 -3.5 10t-3.5 13q-4 7 -5 14l-11 -15q-11 -17 -17 -21q-6 -2 -14.5 -7t-9.5 -13 q0 -10 7.5 -35t4.5 -47q0 -9 -0.5 -41.5t-2.5 -69.5t-3 -69t-1 -40q-4 -14 -6 -32t-11 -24q-7 -7 -16.5 -5.5t-16.5 15.5q-8 13 -13 22.5t-7 20.5q-3 11 -4.5 20t4.5 11q4 2 5 2t6 3q4 0 5 1l-26 31q-26 30 -34 45q-5 7 -16.5 31l-24 51l-24 51t-14.5 29q-9 11 -18.5 35 t-15.5 29q-5 4 -5 11.5v10.5q0 4 -1.5 -1.5t-6.5 -11.5q-6 -5 -24 -14t-21 -18q0 -6 2.5 -15.5t7 -19.5t7.5 -19t3 -11q2 -10 -3.5 -31t-5.5 -33q0 -14 -4 -29.5t-4 -26.5q0 -5 -1.5 -40.5t-1.5 -78.5v-81t3 -48q12 -38 30 -36q8 4 17.5 15.5t11.5 16.5zM164 25 q-2 -2 -1 -8.5t2 -3.5q0 3 4.5 7.5t7.5 10.5q6 6 12 15l-9 -9q-11 -6 -16 -12zM193 61v82v59t2 31q0 4 -3 17t-5 27q-6 15 -10 33q4 -66 8 -120q2 -23 2.5 -46.5t2.5 -41t2.5 -28.5t0.5 -13zM343 273l-24 49l-22.5 44t-20.5 37t-19.5 35.5l-21 39.5l-19.5 34t-16 19t-12 7.5 t-11 6.5q-7 4 -12 5q20 -23 39 -50q18 -25 39 -59t42 -72q21 -40 32.5 -59t15.5 -28q9 -9 10 -9zM473 76v-22q2 1 2 7v7t-2 8zM407 -1h7q2 0 13 4q4 0 8 2.5l10 6.5q7 4 12 9zM207 201l10 8l-2 8zM469 96v4q0 1 1 4t1 7q0 3 4 8t4 11v186q0 82 1 184q-4 -6 -5.5 -25.5 t-3.5 -48t-2 -64.5v-74v-192z" />
<glyph unicode="o" d="M611 -324h-632v1222h632v-1222zM294 466q28 -3 49.5 -21.5t36.5 -45t23 -58.5t8 -63t-8.5 -65.5t-24.5 -62t-37 -45.5t-44 -18q-24 0 -52.5 10.5t-53 35t-40.5 64t-12 97.5q2 58 24.5 92.5t49 53t51 23.5t30.5 3zM366 497q-24 23 -41 32.5t-9 -6.5q0 -3 -21.5 -3t-53 -6 t-63.5 -21.5t-49 -49.5q-20 -34 -31.5 -84.5t-10 -103.5t18.5 -101t55 -80q40 -31 79 -42t72 -5.5t58 25.5t39 45q12 26 23 59.5t17 68t5 67t-7 58.5q-30 98 -81 147zM525 199q-4 -4 -4 -6q0 -5 1 -8t6 -5zM392 526q-23 13 -40.5 22t-31.5 13q-16 5 -30 5l37 -12 q3 -1 20.5 -11.5t38 -25.5t39 -34t26.5 -40t14.5 -48.5t11 -57.5t6.5 -58.5t-2 -50.5q-7 -46 -19.5 -83t-52.5 -78q-21 -20 -42.5 -33.5t-39.5 -21.5q-22 -10 -41 -15q34 9 65 23q26 12 53.5 32.5t44.5 50.5t25.5 66.5t12.5 70.5t3.5 61t-1.5 41l-10 34.5t-19 53t-29.5 55 t-38.5 41.5zM245 429q-15 -8 -29 -20q-13 -11 -25 -28t-19 -39q-14 -46 -7 -97.5t21 -81.5q8 -15 20 -26t24.5 -17t22.5 -9t13 -1q3 5 -7.5 14.5l-22.5 20.5l-14.5 12t-17 20t-15 35.5t-7.5 60.5q-5 36 4.5 66t23.5 49q16 23 35 41z" />
<glyph unicode="p" horiz-adv-x="589" d="M602 -324h-633v1222h633v-1222zM221 238q8 -4 13.5 -4t17.5 4q5 1 40 -1t72 7t68.5 35t31.5 85t-19 92t-43.5 48.5t-47.5 19t-33 3.5h-31.5h-48.5h-46.5t-25.5 -2q-8 -2 -13.5 -11t-5.5 -18q0 -3 -1.5 -16.5t-3 -31.5t-2 -36t-0.5 -35q0 -15 0.5 -37.5t2.5 -42.5t4.5 -37 t2.5 -22q0 -8 -2.5 -25t-5 -38l-5 -41t-4.5 -28q-4 -18 2 -36t31 -32q23 -14 29 -1.5t9 21.5q0 8 -4 19t-7 17q-4 4 -7.5 20t-3.5 31v25.5t2 33.5q0 19 2 42q3 -1 10 -3q4 -2 10 -3.5t12 -1.5zM199 365q0 5 -1 20t-1.5 30t-1 28.5t0.5 16.5q3 7 5.5 5.5t6.5 -1.5 q6 0 17.5 -2.5t19.5 -2.5h52q4 0 15 0.5t22.5 0.5t23.5 -0.5t19 -4.5q14 -8 25.5 -23t11.5 -55q0 -19 -9.5 -32.5t-21.5 -24.5t-24 -16.5t-17 -5.5h-21.5t-31.5 3q-19 0 -40 1q-4 0 -9 -1q-3 -3 -8.5 -3.5t-9.5 -1.5q-19 -6 -27 6q0 14 1 26q1 11 2 20.5t1 16.5zM215 442 q-3 -1 0.5 -16t3.5 -23q0 -9 1.5 -19.5t-1.5 -18.5q-4 -10 -5 -14q-2 -4 -2 -6q4 1 10 8q4 4 8 12t7 16q1 19 -5.5 42.5t-16.5 18.5zM306 433h-17q-7 0 -11 -1.5t-2 -2.5q10 -6 22 -1q5 1 8 5zM310 323l-31 8q5 -5 12 -8q10 -6 19 0zM214 223l7 -18q4 -7 6 -13.5t2 -10.5 q0 -3 1 -17.5t1 -30.5v-42l3 107l67 10q-19 -3 -37 0q-14 1 -28.5 4t-21.5 11zM484 317q13 29 12 68.5t-12 71.5q-6 15 -14.5 27t-16.5 21q-9 8 -22 15q4 -1 7 -5q4 -3 7.5 -8t10.5 -10q15 -14 25 -44t10 -58q3 -27 -8.5 -63t-26.5 -55q-8 -8 -19.5 -17t-24.5 -15 q-13 -7 -28 -17q30 4 59.5 33t40.5 56z" />
<glyph unicode="q" d="M609 -324h-632v1222h632v-1222zM337 536v-5q0 -4 -6 -4h-17t-29.5 -0.5t-32 -3t-22.5 -5.5q-7 -4 -26 -16.5t-38.5 -35.5t-37.5 -60t-23 -91q-6 -54 6 -100t32 -81t42.5 -57.5t41.5 -29.5q21 -10 40 -12t37 0t31.5 5t17.5 4q11 4 14.5 8t14.5 3q10 -1 13.5 -1t11.5 -10 q10 -7 10.5 -9t6.5 -2q5 0 14.5 3t13.5 8q14 15 9 25q-3 5 -15.5 14t-12.5 21q0 7 6.5 20.5t12.5 29t10.5 30.5t4.5 23q0 10 1.5 38t-1 64t-11 72.5t-25.5 64.5q-19 24 -35.5 42t-31.5 27zM369 182q-5 13 -6.5 20.5t-6.5 7.5q-6 0 -5 -6t-2 -10t-9 -5t-12 -3q-6 -6 13 -21 q9 -8 8.5 -14t2.5 -20q1 -16 -3 -21.5t-12 -13.5q-10 -11 -17 -9t-24 2q-10 0 -24.5 7t-29.5 16.5t-27.5 20t-18.5 19.5q-7 8 -15.5 31.5t-13 55t-1.5 67.5t18 69q16 34 35 53t38.5 28t36.5 9.5t28 -0.5q23 -4 42 -20.5t43 -57.5q11 -20 14.5 -48.5t3 -56.5t-4 -52.5 t-7.5 -37.5q-7 -24 -18.5 -35t-18.5 -9q-1 4 -1 9q-2 3 -2 9.5t-4 15.5zM188 307q-10 -42 1 -73.5t26 -51.5q21 -25 45 -41l-5 5q-6 6 -10 12q-1 2 -7.5 9.5t-14.5 21t-14 36.5t-7 60q-5 35 6 63t23 49q14 20 34 38q-2 1 -11.5 -3t-22 -19t-24.5 -41t-19 -65zM379 9v4l-6 4 q-9 0 -34.5 -7.5t-34.5 -7.5h-31q28 -1 49 0q19 0 36 2t21 5zM470 24q3 2 7.5 13t7.5 19q3 4 1 16l-4 24q-4 13 -5 27l12 15q6 5 10 21.5t6.5 35l4.5 34t2 23.5q0 7 1 25.5t-1 45t-11 58t-26 65.5q-20 32 -44 54.5t-45 36.5q-28 16 -53 24q23 -8 46 -23q19 -12 40.5 -31 t41.5 -46q35 -55 38.5 -107.5t7.5 -94.5q1 -22 -4.5 -44.5t-12 -42t-13.5 -32.5t-7 -17q-3 -5 1 -16t7 -27q4 -17 3 -21.5t-6 -11.5q-4 -8 -6.5 -7t-9.5 -3q-7 -1 -6 -3l5 -10q1 -3 3 -3q6 0 9 3z" />
<glyph unicode="r" horiz-adv-x="598" d="M606 -324h-632v1222h632v-1222zM136 527q-8 -5 -11 -26t-3 -36v-46.5t1 -84.5t1 -83.5v-44.5q0 -5 -1 -26t-1 -45t1 -46t5 -30q7 -13 7 -14t12 -5q12 -3 23.5 6.5t13.5 22.5q1 12 -6.5 29t-7.5 25q0 6 1.5 18t2.5 25.5t2 24.5t1 16q-2 10 -3 25t5 20q6 3 32.5 3t38.5 4 q15 2 27.5 8t27.5 -1q7 -4 16 -21.5t18.5 -39.5l18.5 -43l14 -33l12 -30.5t16 -32.5t18.5 -24.5t18.5 -4.5q19 9 22 18.5t-1 24.5q-2 5 -10.5 17.5l-19.5 28l-21.5 31t-15.5 30.5q-20 55 -20 63q0 6 -1.5 7.5t2.5 4.5q1 3 15.5 13.5t30 30t28 41t10.5 43.5q-1 42 -17.5 70 t-33.5 41q-15 15 -26.5 21.5t-21.5 7.5q-8 4 -6 5.5t-6 -1.5q-3 -3 -22.5 -3.5t-41 -0.5t-44 -0.5t-30.5 -0.5h-42.5t-28.5 -2zM333 471q20 0 42 -13q12 -7 19 -22.5t9 -33.5q4 -18 -6 -37t-24 -31q-13 -12 -33.5 -15.5t-43.5 -2.5q-10 0 -24.5 3t-27.5 5t-22.5 4t-12.5 2 q-2 0 -18 -7t-20 -1q-4 4 0 17t7 18q4 6 2.5 9t-2.5 13q0 5 -1.5 15.5t-2.5 22t-2 20.5t-1 10q0 11 2 16q5 6 21 0q7 -4 10.5 -2.5t13.5 1.5q8 0 17.5 1.5t18.5 1.5q8 0 29.5 -1.5t28.5 1.5q3 4 7 4.5t14 1.5zM194 433q-4 -4 1.5 -11.5t5.5 -12.5q0 -4 6 -10l2 -2 q-4 6 -6 13q-7 12 0 17q6 2 20 2h14l-22 4q-8 2 -14.5 2t-6.5 -2zM201 379q0 -6 -4 -12q-1 -4 -1 -6l13 -9l53 -3q-13 1 -24 5q-8 3 -17 6t-12 7l-6 9zM365 559q26 -15 48 -30q19 -15 35.5 -33.5t21.5 -41.5q9 -45 3 -92.5t-26 -64.5q-19 -15 -32.5 -28t-13.5 -17t8 -22 t21 -40l30 -56q-13 30 -21 54q-9 22 -14 40.5t-4 23.5q1 3 12 15.5t23.5 30.5t21 41.5t7.5 47.5q-3 25 -4.5 46t-12 41.5t-34.5 40.5t-69 44zM452 25q-2 -5 8 -1.5t19 19.5q7 13 7 26q0 7 -1 12l-4 -22q-2 -8 -4.5 -15t-7.5 -11q-9 -5 -11.5 -5t-5.5 -3zM190 217 q0 -3 1.5 -20t3 -38.5t3.5 -40.5t2 -26q1 -15 0.5 -22t-7.5 -15q-8 -9 -8 -10t-6 -1t-16 3q-8 3 -11 5l15 -15q17 -12 23 -4q4 6 8.5 21t7.5 34l6 38t3 33q-2 13 -1 23.5t1 18.5q0 9 3 16l9 -5q15 -7 23 -6q10 1 2.5 10t-15.5 9q-11 0 -20.5 5.5t-19.5 9.5q-8 3 -7.5 -7.5 t0.5 -15.5z" />
<glyph unicode="s" horiz-adv-x="601" d="M611 -324h-633v1222h633v-1222zM421 383q11 4 18.5 21.5t0.5 36.5q-2 8 -12.5 23t-25.5 30t-33 28t-42 17q-21 4 -56.5 0t-68 -18.5t-56 -41t-23.5 -64.5q0 -41 11 -65t26 -38.5t33 -19.5l32 -9q15 -3 37.5 -6.5t46 -8t42.5 -10t28 -12.5q16 -14 23 -42.5t-2 -45.5 q-7 -17 -35 -40t-77 -23q-24 0 -39 2.5t-24 7t-15 12t-14 15.5l-19.5 23.5t-5.5 15.5q0 8 5.5 13.5t1.5 13.5q-4 10 -9 10.5t-7 4.5q-5 3 -8 8t-2 13q0 7 4 13q1 4 1 6q-4 -2 -9 -3q-10 -4 -10 -11q-2 -5 2 -9q1 -2 1 -3q-9 3 -18 0q-6 -4 -12.5 -11t-6.5 -23q0 -15 7 -35.5 t21.5 -41t32.5 -36.5t41 -26q22 -11 50 -13.5t54.5 0t49.5 11t37 19.5q26 23 45.5 57t15.5 70q-3 37 -22 63t-31 40q-14 14 -23.5 20.5t-13.5 4.5q-1 -3 -1 -9q0 -1 1 -2q-11 -2 -19 0q-17 0 -35 6q-14 5 -40.5 9t-43.5 13q-18 8 -16 8t-8 2q-6 2 -23 17t-17 36 q0 11 10 20.5t23 18t27 15t23 7.5q17 4 46.5 6t41.5 -7q14 -7 27.5 -22t18.5 -25q4 -8 3 -16t9 -16q7 -7 18 -7q4 0 8 3zM338 361l-13 7q-11 5 -22 8q-3 0 -15 2.5l-26.5 5.5t-26 8.5t-14.5 10.5q-9 14 4 23.5t28 9.5h40q-10 1 -21 4q-8 1 -19 1.5t-18 0.5q-16 -1 -32 -16 t-9 -34q4 -11 14.5 -16.5t22.5 -8t23.5 -3t17.5 -0.5q4 -2 15 -2h23q15 0 28 -1zM428 369q0 -7 6 -11.5t10 -0.5q3 4 14.5 16t11.5 26q0 5 -0.5 14.5t-1.5 19.5q-3 9 -5 20q2 0 5 2l5 5q0 3 -8 6l-7 4q-1 1 -3 5q-4 4 -2 8t-15 25.5t-30 29.5q-15 9 -45 21.5t-38 12.5h-17 q-5 0 -6 1l58 -20q23 -10 43 -22t29 -23q7 -12 10.5 -19t7.5 -13q3 -6 3 -9l2 -10l4 -8q4 -15 6 -27q3 -11 0.5 -22.5t-8.5 -16.5q-10 -7 -14.5 -8.5t-8.5 -4.5zM423 323q-6 -2 5 -8l11 -7q16 -21 26 -43q9 -19 14.5 -45.5t0.5 -53.5q-12 -57 -34.5 -79t-48.5 -38 q-27 -15 -57 -25.5t-49 -10.5t-39.5 1.5t-16.5 -1.5q1 0 21 -2.5t47 -0.5t58.5 10t58.5 27q26 19 41 46t21.5 54t8 50t-1.5 35q-2 11 -11 28t-20 31t-20.5 24.5t-14.5 7.5zM211 245q-10 1 -29.5 8t-24.5 7q-4 0 2.5 -5t11.5 -12q7 -8 18.5 -38t23.5 -43q8 -7 19 -9t23 -2h30 q-9 3 -17 3h-14t-11 1q-7 1 -15.5 4.5t-14.5 7.5q-5 4 -11 21t-9 27q-4 8 -10 17q-2 6 -5 7q4 -1 11 -4q4 -1 9.5 -1h7.5q5 0 11 -1t14 -1h20q-9 2 -16 6q-7 1 -14.5 3t-9.5 4z" />
<glyph unicode="t" horiz-adv-x="610" d="M617 -324h-633v1222h633v-1222zM312 535q-10 0 -37 0.5t-57 2t-54.5 3t-29.5 1.5q-11 0 -14 -5.5t-4 -16.5q0 -12 15 -27t20 -18q3 -3 13 -3.5t21.5 -1t21.5 -0.5t12 1q8 4 11.5 9t21.5 5q7 0 11 -7.5t6.5 -19t3.5 -24t3 -21.5t1 -47t-3 -82.5t-4.5 -89.5t-4.5 -66 q-5 -44 4.5 -63t17.5 -22q8 -2 20.5 4.5t17.5 12.5q4 4 2 12.5t-6 18.5l-7 29v350h6q4 0 6.5 0.5t6.5 0.5q10 -1 14 -4t16 -3q13 0 14 1t9 5q10 1 23 3t22 -6q9 -7 13.5 -5t20.5 4q18 4 24 19t-6 50q-4 15 -15 19.5t-22.5 2.5t-21 -7.5t-14.5 -6.5q-9 -4 -25 -4h-26 q-8 -1 -15 -3q-6 -1 -15 -1h-17zM346 449q0 -99 2 -176q0 -35 1 -67.5t1.5 -59t0.5 -44.5v-19q0 -10 -3 -19q-2 -6 -4 -8q6 0 10 8q3 4 5 17t0 37q0 25 -1 76.5t-1 103.5v92v43q0 8 9 8h18t32.5 2t32.5 3t20 3q11 8 18 15q6 6 8 11q-4 -8 -12 -12q-15 -14 -33 -14 q-10 0 -27 1.5t-33.5 1.5h-29t-14.5 -3z" />
<glyph unicode="u" horiz-adv-x="590" d="M605 -324h-633v1222h633v-1222zM445 557q-7 0 -18.5 -8t-19.5 -22q-4 -7 -5 -40.5t0.5 -75.5l3 -83t-1.5 -60q0 -22 -0.5 -48t-6.5 -49t-22 -40.5t-48 -23.5q-32 -5 -48 -6t-24 2t-9.5 7t-6.5 8q-9 7 -9 9.5t-5 1.5q-6 -3 -14.5 6t-18.5 18q-8 9 -8.5 15t-0.5 10q1 3 4 7 t-2 17q-2 13 -6 30t-4 38q0 11 -1 43.5t-1 68v63.5t2 32l8.5 22t0.5 28q-12 29 -30 26q-8 -2 -21.5 -10.5t-19.5 -19.5q-5 -10 2.5 -34.5t7.5 -51.5v-34v-58t0.5 -68t3.5 -69.5t8.5 -58t11.5 -31.5q11 -11 30 -26t44.5 -26t55 -13.5t61.5 9.5q63 25 92 46.5t31 40.5 q0 19 -4 37t-5 23v33v68v70.5v41.5q4 15 8 42.5t8 37.5q1 11 -7.5 32.5t-15.5 22.5zM205 249q-5 -38 2 -53q3 -10 7 -13q0 33 1 63q0 24 1 50t1 39q0 15 -1 46.5t-3 66.5l-8 86q0 -2 1 -40t2 -87t0 -94t-3 -64zM489 498v-153v-58.5t-1 -51t-1.5 -38.5t-0.5 -18 q-3 -7 -5 -22.5t-9.5 -34t-21 -36.5t-36.5 -31q-25 -14 -47.5 -21.5l-39.5 -13.5q-19 -7 -38 -11q42 4 78 18q32 12 64 34t49 63q9 31 11 93.5t2 123.5q0 73 -4 157z" />
<glyph unicode="v" horiz-adv-x="607" d="M617 -324h-634v1222h634v-1222zM484 516q1 6 -4.5 15t-12 16t-13.5 9.5t-12 1.5q-10 -4 -18 -21t-12 -45q0 -13 -12.5 -54.5l-27.5 -88.5t-30 -88.5t-22 -55.5l-20 -46.5t-14 -21.5q-5 0 -12.5 17t-11.5 24q-3 7 0 17t-1 19q-4 5 -11.5 21.5t-17 39.5l-20 47t-15.5 43 q-10 38 -21 68t-11 45q0 6 -1 19t-6 26.5t-11 24t-13 10.5q-16 4 -25.5 -15t-3.5 -51l22.5 -62.5l38.5 -104.5l39.5 -102l23.5 -58l18 -44.5t12 -28.5q2 -4 7 -10.5t12.5 -13t16.5 -10.5t16 -2q12 2 19.5 8.5t7.5 22.5t-1.5 23.5t3.5 13.5q1 4 14.5 40.5t27 82l26 85 t16.5 49.5q4 8 9 23t11 30l10.5 27t7.5 17q5 6 12.5 18.5t9.5 19.5zM280 264q1 3 -5 24.5t-14.5 49l-16.5 51t-9 29.5q-3 2 -9 20t-14 37q-10 22 -19 47l34 -104q15 -41 26.5 -76.5t12.5 -39.5q3 -15 8 -26q4 -7 6 -12zM501 505l-65 -199l-24.5 -73.5t-22 -67l-15.5 -50 t-9 -23.5q-4 -13 -12 -26.5t-13 -16.5q-7 -4 -13 -4h-5q1 -4 1 -7q0 -10 -4 -11l-18 -8q9 1 18 5l14.5 6.5t12.5 12.5q4 3 17 38.5l31 86l37 107l35 106.5l26.5 84t8.5 40z" />
<glyph unicode="w" horiz-adv-x="596" d="M613 -324h-634v1222h634v-1222zM100 550q-7 1 -19 -14t-16 -29q-2 -5 1 -29t6.5 -58t8.5 -74l9.5 -76t8.5 -62t5 -35q3 -25 5 -48t2 -28v-18.5t12 -21.5q14 -6 27.5 -1.5t25.5 29.5q6 12 12.5 31t15 38l15.5 34.5t17 25.5l21.5 23.5t7.5 21.5q1 10 -4.5 13.5t-8.5 13.5 q-4 7 -1 19t11 13q7 3 17.5 -10.5t16.5 -20.5q4 -3 16.5 -20.5t26.5 -40.5l26.5 -42t13.5 -25q1 -5 6.5 -22.5t14 -36t17 -31t17.5 -9.5q10 4 13.5 15.5t3.5 27.5v31.5t2 27.5t5.5 54.5t7 90t7.5 89t9 50.5q10 19 17.5 41t4.5 33q-4 11 -13 21t-15 10q-7 0 -21.5 -22.5 t-14.5 -45.5q0 -11 -3 -49.5t-7.5 -83.5t-10 -84t-6.5 -50q-5 -21 -4.5 -32.5t-11.5 -3.5q-14 6 -24 13t-12 19q-4 13 -7 25t6 12q8 0 11.5 0.5t3.5 9.5q0 8 -9 23.5t-17 26.5q-7 12 -17.5 25t-12.5 25q-1 15 -5 34t-7 25q-1 5 -4 12.5t-7 6.5q-2 -3 -6.5 -8t-7.5 -6 l-18 -17.5t-14 -27.5q-2 -9 -4.5 -23.5t-6.5 -25.5q-3 -11 -1.5 -15.5t-1.5 -14.5q-5 -8 -17.5 -15.5t-16.5 -16.5q-1 -6 -6.5 -17.5l-11.5 -23t-12.5 -21.5t-8.5 -16q-9 -9 -7 -12t-3 1q-4 2 -6 14t-6 28.5t-5.5 32t-1.5 23.5q0 10 -2.5 33.5l-5.5 51t-5 50.5t-2 30 q3 13 4 39t1 36t-10 21t-14 13zM154 521q4 -33 9 -63l4 -48t0 -33q-2 -8 -2 -18.5v-18.5v-18q2 13 6 24q4 8 5.5 16t1.5 12q0 3 -4.5 26.5t-8.5 49.5zM314 435q11 -19 19 -35q9 -14 15.5 -26t8.5 -16q3 -4 7 -13t9 -18.5t7.5 -16.5t2.5 -5q0 1 -8.5 21t-20.5 43.5l-23.5 44 t-16.5 21.5zM525 494q-3 -48 -9 -87q-4 -33 -7 -63t-3 -38q0 -7 -3.5 -38t-7 -68.5t-7 -67.5t-3.5 -35q0 -8 -2.5 -23t-9.5 -21q-11 -11 -23 -7q-4 2 -7 6q-3 1 -3 3l7 -10q8 -11 16 -9q24 4 26 47q0 11 4 43.5t7.5 69.5t7 69t4.5 40q0 9 2 39t5 63q4 39 6 87zM184 53 q-13 -17 -17 -16.5t-9 -3.5q-1 -6 6 -5t23 17q7 8 18.5 29t21.5 44.5t19 41.5t10 22q4 3 6.5 11t4.5 17q4 10 7 23q-19 -44 -38 -80l-31 -61.5t-21 -38.5z" />
<glyph unicode="x" horiz-adv-x="601" d="M612 -324h-634v1222h634v-1222zM471 507q4 15 -6.5 26.5t-13.5 17.5q-5 5 -5 8v5l-7 -2q-7 -4 -7 -9q-4 -2 -15.5 -14.5t-17.5 -21.5q-3 -6 -12.5 -22l-21.5 -36.5l-23.5 -39.5l-17.5 -29q-12 -19 -23 -34t-13 -23l-6 -11q0 1 -1 4q-3 1 -6 8q-5 4 -13.5 13.5t-3.5 12.5 q4 4 7 2t5 6q1 7 -3.5 14.5t-13.5 15.5q-5 7 -18.5 20t-24.5 32l-19.5 42.5l-16.5 35.5q-2 10 -5 13l-8 8q-6 4 -6 2v-4q-13 -6 -23 -13q-19 -15 -15 -35q2 -10 13.5 -27.5t26.5 -36l28 -36l21 -28.5q16 -20 36.5 -42.5t23.5 -27.5l5 -8q-1 -4 -5 -11q-4 -9 -10 -15 q-4 -4 -14 -17t-16 -18q-4 -2 -13.5 -14l-21.5 -27l-23 -30l-17 -23q-9 -15 -20 -29.5t-8 -28.5q1 -13 17.5 -23.5t31.5 4.5q13 15 18.5 35t26.5 47l38 48t19 27q1 8 2 9t-8 5q-16 2 -10 11q4 2 8 10.5t9 9.5q3 0 5.5 2.5l7.5 7.5q2 2 8 6v-15q0 -16 4 -21q1 -5 10 -19 l20 -30.5l21 -32t16 -23.5q12 -15 22 -32t16 -26q5 -9 10.5 -17t12.5 -12q7 -5 17.5 -5t19.5 9q19 12 16 32q-4 10 -26 28.5t-35 37.5q-7 8 -20.5 26.5t-28 36.5t-25.5 34.5t-14 19.5l-6 9q2 2 4 6q1 1 1.5 2.5t5.5 3.5q1 1 3 1.5t3 3.5q2 1 4 1q-2 2 -5 4q-7 3 -11 0 q-3 -4 -11 -8q-3 -1 -4 -1l-8 9q4 2 9 7q3 3 8.5 8l11.5 10q5 4 14 17t17.5 28l16 28t13.5 20q9 13 30.5 33.5t27.5 27.5q13 15 15 27zM475 474l-54 -74q-22 -30 -38 -57t-21 -29q-5 -10 -1 -18.5l7 -14.5l15.5 -21l27 -37l25 -35t8.5 -9q-4 5 -13 18l-18.5 27l-17.5 26.5 t-8 16.5q-3 7 -5 14.5t-5 10.5l-6 7q-3 2 -4 2zM271 412q0 -4 3.5 7.5t0.5 15.5q-1 1 -10 16l-20 33q-12 19 -30 44q18 -25 30 -45q11 -21 20 -40t6 -31zM271 177q-19 -34 -37 -60q-13 -23 -28 -42.5t-19 -23.5q-8 -7 -15 -7q-4 0 -7 1l-14 -20q6 1 14 2q12 4 16 10 q3 1 18 21.5l31.5 43.5t30 45.5t10.5 29.5zM471 37q0 1 -1 1t-3 -4l-4 -7q2 -1 4 -1t4 11z" />
<glyph unicode="y" horiz-adv-x="606" d="M615 -324h-631v1222h631v-1222zM299 328q-7 -2 -10 -2t-4 10q-4 7 -4 12t-3 15q-3 5 -12.5 17t-21 24.5t-21 24.5t-12.5 17q-4 5 -8 17.5l-8.5 27.5t-11 27t-11.5 16q-11 9 -27.5 7t-20.5 -19q-1 -9 8.5 -29.5t24.5 -43.5l30.5 -46.5t26.5 -36.5l40.5 -53t19.5 -27 q0 -3 0.5 -26t2 -51t1.5 -54v-32q0 -7 -2 -21.5t-1.5 -27.5t8 -23.5t25.5 -10.5t22.5 10.5t4 23.5t-4 27.5t-4.5 21.5q-3 6 -4.5 26.5t-2.5 45t0 46.5t4 33q4 9 19.5 32.5t36 51.5l39 52t25.5 32l31 37t18 32t-11.5 20.5t-15.5 15.5q-6 5 -17.5 -3t-22.5 -25l-15.5 -25.5 l-21.5 -36l-19.5 -34t-11.5 -23.5q-4 -4 -13 -16.5t-18.5 -24l-17.5 -21.5t-9 -10zM224 510l68 -106q-2 4 -11.5 20.5t-24.5 35.5q-15 21 -32 50zM499 477l-70 -99l-49 -70t-22 -34v-35t2 -70q0 -46 3 -101q-5 -7 -7 -12q-6 -11 -10 -14l-11 -11q7 3 15 11q6 7 10.5 17 t4.5 31q0 16 1.5 47.5t1.5 62.5v78l64 94l45.5 70t21.5 35z" />
<glyph unicode="z" horiz-adv-x="608" d="M619 -324h-635v1222h635v-1222zM158 559q-5 0 -10 2t-7 -2q-4 -4 -1 -14.5t3 -17.5v-35h71h53.5t31.5 1q12 4 17 2t13 2q8 3 24.5 6t24.5 -10q9 -13 5 -24t-7 -14q-1 -1 -24 -30.5l-51 -65.5l-54 -67.5l-33 -40.5q-8 -8 -19.5 -28l-22.5 -39t-17.5 -34.5t-6.5 -18.5 q0 -6 -5.5 -27.5t-0.5 -32.5q6 -10 23.5 -11t28.5 -1q4 0 32.5 -1t61.5 -2t61.5 -2.5t35.5 -1.5q16 0 26 -4t27 -2q16 4 29 20.5t13 37.5q0 20 -21 25.5t-38 -4.5q-8 -4 -27 -8t-39.5 -6t-39 -3.5t-23.5 1.5q-12 1 -25 8t-21 4q-7 -4 -14 -7.5t-16 -3.5t-23 4.5t-14 9.5 q0 1 16.5 24.5l36 50.5t39.5 51.5l28 34.5q7 8 30 38.5l47 64l43.5 61t23.5 31.5q6 6 12 24t6 29q0 9 -14.5 24t-22.5 14q-9 -1 -16 -8.5t-17 -7.5q-2 0 -28.5 -1t-58 -1t-59 -0.5t-31.5 -0.5q-5 0 -14.5 0.5t-17.5 2.5q-11 2 -24 4zM481 518q-1 -12 -2 -22q-4 -10 -7 -19.5 t-8 -15.5q-3 -5 -18.5 -26l-38 -49.5l-47 -61l-46 -61.5l-36.5 -48.5t-16 -23.5q-4 -6 -6 -10t-6 -8q-4 -5 -6 -8l48 7q-7 -4 -12 -4q-11 0 -7 12q1 8 25 41.5l52 71.5l52 72l29 41l15.5 21.5t20 30t15 32t-0.5 28.5z" />
<glyph unicode="~" horiz-adv-x="611" d="M617 -324h-633v1222h633v-1222zM160 202q-6 -16 5.5 -21.5t21.5 -9.5q11 -3 19 -3t15 8q5 11 6 17.5t5 11.5q3 2 10.5 9.5t15.5 10.5q11 5 23 5t18 -4q1 -2 8.5 -10.5t18.5 -18t23 -17t25 -9.5q12 -2 26 4t26.5 14.5t22 16t10.5 11.5q5 5 2.5 16t-6.5 15q-2 3 -7 -1 t-8 -10l-11 -13v-7q0 -10 -8 -18q-9 -9 -10.5 3t-8.5 16q-8 4 -14 -4t-23 -1q-17 9 -32 33.5t-40 27.5q-12 0 -27 -4.5t-30 -13t-26 -16.5t-15 -14q-8 -6 -15 -6q-3 0 -3 2q-4 -2 -6 -5q-4 -4 -7 -7.5t-4 -7.5zM481 239v-14q0 -12 -4 -23q-4 -8 -8.5 -11t-14.5 -5l-15.5 -10 t-14.5 -7q-3 -1 6 0.5t20 6.5t22 13.5t13 17.5q11 44 -8 37zM291 200l-5 5q-4 1 -16 1q-12 -1 -18 -6l-6 -2z" />
<glyph unicode="&#xa1;" horiz-adv-x="597" d="M617 -324h-634v1222h634v-1222zM271 324q0 -8 -0.5 -36t-1.5 -57.5t-1 -55.5t2 -30q4 -12 18 -25.5t23 -13.5t11.5 11.5t6.5 18.5q-3 50 -3 92q-1 35 -1 65.5v34.5q0 6 -7.5 11.5t-19 6t-19.5 -3t-8 -18.5zM347 107l1 2q4 4 4 6q0 6 -4 -1q-1 -3 -1 -7zM314 90 q4 -6 12 -8.5t4 2.5q-1 4 -10.5 7.5t-5.5 -1.5zM304 471q0 -4 -4 -5.5t-8.5 -4t-8 -5.5t-3.5 -10q2 -13 4.5 -26.5t11.5 -13.5q3 0 14.5 3.5t21 10.5t16.5 19.5t5 31.5q-4 35 -23 42.5t-34 6.5q-25 -6 -25 -21q0 -9 16 -17q7 -6 17 -11zM270 475l-6 12q-1 3 -1 4 q-3 -4 -3 -9v-17q0 -4 -0.5 -8.5t-0.5 -14.5q0 -6 7 -17q4 -6 8 -9q-6 7 -3 28t-1 31zM352 132q0 33 1 61q0 25 1 46t1 27v66q0 3 -1 5t-1 5v8h-4v-46q0 -19 -0.5 -37.5t0.5 -27.5q0 -9 1.5 -25.5t1.5 -35.5v-46z" />
<glyph unicode="&#xa2;" horiz-adv-x="580" d="M592 -324h-634v1222h634v-1222zM392 365q10 -3 28.5 5.5t22.5 29.5q1 11 -8.5 20.5t-23 17.5t-28 12t-21.5 8q-17 6 -33.5 7t-25.5 1q-8 0 -10 11.5t2 17.5q2 5 7.5 21t-1.5 26q-6 13 -10.5 20.5t-13.5 2.5q-11 -4 -19 -8.5t-8 -19.5q0 -14 2 -29.5t2 -20.5q0 -8 0.5 -15 t-4.5 -12q-7 -6 -16 -10.5t-25 -8.5q-8 -2 -20 -13t-24.5 -29t-21.5 -44t-9 -53q0 -60 13 -85t27 -37q15 -15 35 -25.5l29 -15.5q9 -4 12.5 -4t4.5 -8v-17.5v-24.5t2 -24.5t8 -15.5q9 -7 22.5 -2t16.5 12q8 15 -1 36q-3 9 -10 17.5t3 12.5q8 4 30 3t30 3q5 1 17.5 8.5 t24.5 17.5t23 21.5t13 24.5q6 24 -6.5 32t-20.5 11q-9 3 -19.5 -2.5t-14.5 -12.5q-1 -4 -9 -15.5t-21 -23.5t-30 -18.5t-35 0.5q-17 7 -37 17t-36 23.5t-27 34t-11 49.5q0 28 11 49.5t25 36t26.5 23t17.5 9.5q4 1 15 2.5t22.5 2t21.5 0.5t16 -1l27 -14.5t23 -15.5 q5 -5 10 -11t10 -10zM449 182q-10 -12 -20 -21l-15 -19t-11 -13q-8 -6 -31 -12.5t-30 -12.5q-5 -6 2.5 -5t11.5 5q1 0 14.5 4.5t29 14t30 24.5t19.5 35zM232 363l-12 -16l-12 -18zM204 294l4 22q0 -4 -2 -7q-5 -10 -2 -15z" />
<glyph unicode="&#xa5;" horiz-adv-x="607" d="M615 -324h-632v1222h632v-1222zM390 232q7 0 10.5 -3.5t15.5 -1.5q12 4 19.5 13.5t7.5 20.5q2 9 -2 17.5t-19 13.5q-15 6 -29.5 -0.5t-19.5 -6.5h-46q6 11 23 35.5l35.5 49.5l35 46.5t20.5 27.5l32.5 36.5t17.5 30.5t-11 20.5t-16 17.5q-6 4 -18 -3.5t-22 -24.5 q-5 -10 -15 -26.5l-20.5 -35.5t-20.5 -34.5t-13 -22.5q-4 -7 -13 -18.5l-18.5 -23.5t-17.5 -21t-9 -9q-7 -2 -9 -2t-5 6q-2 10 -3 15.5t-5 13.5q-1 5 -10.5 16.5l-21 24.5t-21 26t-13.5 18q-3 5 -7 17.5t-8 27.5t-9.5 27.5t-11.5 14.5q-12 10 -27.5 8t-19.5 -20 q-2 -8 7.5 -28.5t24 -44l29.5 -46.5t26 -37q20 -30 39.5 -54t21.5 -27h-8h-17.5h-23h-22.5h-15q-8 -2 -6 -7t4 -9q4 -3 12.5 -2t7.5 -2q-4 -5 -10 -10l-6 -4q1 -2 5 -8q7 -11 11 -12q4 -4 21 -2t31 2h16q1 -9 1 -24q-4 1 -9 1q-6 1 -17.5 1h-23h-22.5t-15 -1q-8 -4 -6 -8 l4 -8q4 -3 12.5 -2.5t7.5 -3.5q-4 -4 -10 -8l-6 -4q1 -3 5 -8q7 -11 11 -12q4 -5 21 -2.5t31 2.5h17v-33q0 -7 -1.5 -20t-0.5 -26.5t8.5 -23.5t24.5 -10q18 0 22.5 10t4 23.5t-4 26.5t-4.5 20q0 4 -1.5 13t-1.5 20h69q7 0 10.5 -3.5t15.5 -2.5q12 3 19.5 13t7.5 21 q2 10 -2 20t-19 15t-29.5 -2.5t-19.5 -7.5h-55v24h72zM224 511l66 -106q-1 4 -11.5 21l-22.5 36q-13 22 -32 49zM360 69q-2 -7 -5 -12l-6.5 -9.5t-4.5 -4.5q-1 -4 -3 -4.5t-4 -2.5l-4 -4q10 4 17 11q5 7 9 18t7 28v13t0.5 6t0.5 11v23l-9 2q0 -23 1 -37.5t1 -22.5v-15z M378 295l32.5 47.5l41 59t34 51t13.5 25.5q-24 -38 -47 -69l-41 -58l-37 -51zM462 273v-3v3zM462 270v-4.5t-4 -13.5q-2 -8 -3 -12.5t-5 -7.5q-4 -4 -5 -4q4 -1 5 -5q2 -3 6 -14q1 -6 1 -22v-15q0 8 1 18q0 7 1.5 15t-1.5 11q-4 7 -4 12v5q3 7 7 15q5 10 1 22zM245 138 l-24 -1q4 -3 9 -3q11 0 15 4z" />
<glyph unicode="&#xa8;" horiz-adv-x="597" d="M614 -324h-634v1222h634v-1222zM341 625q0 -19 27 -20q14 -4 33 4.5t23 44.5q1 17 -5.5 29.5t-17.5 20t-20.5 11t-14.5 3.5q-8 0 -11 -14t-4 -27q0 -7 3.5 -9.5t8.5 -4.5l8.5 -3.5t3.5 -5.5l-17 -11q-17 -8 -17 -18zM343 707q-3 -4 -7 -8q-7 -11 -7 -18q0 -10 2 -15t2 -8 v-15q0 -7 1 -12q0 2 2 5q1 4 1 7t4 5q2 10 -1 31t3 28zM201 718q-3 0 -7 -5q-5 -1 -17 -7.5t-12 -24.5q0 -10 2 -15t2 -8v-15q0 -7 1 -12q0 2 1 5q3 4 3 7t3 5q1 6 4 16.5l7 23.5q0 -4 -1 -5.5t-1 -5.5q-2 -14 4 -19.5t4 -11.5q-5 -4 -8 -9q-9 -4 -9 -12q0 -19 27 -20 q13 -4 33 4.5t23 44.5q1 17 -6 29.5t-17.5 20t-20 11t-15.5 3.5z" />
<glyph unicode="&#xa9;" horiz-adv-x="603" d="M618 -324h-634v1222h634v-1222zM348 545q-5 -3 -2.5 -8.5t-4.5 -5.5h-18t-32 -0.5t-35 -3.5t-27 -8q-11 -6 -34 -17.5t-43 -41t-32 -85t-3 -149.5q7 -64 30 -100t52.5 -53.5t62 -19.5t60.5 2t45.5 12.5t18.5 9.5l6 8q19 23 35 52q14 24 24.5 54t12.5 61q1 33 -6.5 69 t-18.5 70t-22.5 61t-18.5 38q-14 25 -28.5 42t-21.5 13zM427 291q0 -51 -11 -85t-26.5 -55t-36 -32t-37.5 -18q-17 -5 -33 -2.5t-29 8t-21 12.5t-8 8q-2 6 -5.5 8.5t-12.5 6.5q-3 1 -13 10.5t-20.5 29.5t-20 48.5t-11.5 66.5t12.5 69.5t33.5 53t36.5 33.5t21.5 14 q8 8 23 14.5t44 -3.5q13 -5 33 -15.5t37.5 -31.5t30 -55.5t13.5 -84.5zM320 572q55 -29 99 -69q34 -36 60.5 -88t15.5 -123q-10 -70 -18 -106.5t-14.5 -54t-13 -24t-14.5 -12.5q-8 -7 -23.5 -18.5t-33.5 -22.5l-42 -26q43 3 79 33q30 24 56.5 80.5t32.5 161.5 q6 104 -22.5 159.5t-62.5 79.5q-44 27 -99 30zM301 420q-4 -2 -11.5 -2.5t-11.5 -0.5q-14 -1 -29 -10q-12 -4 -24.5 -14.5t-19.5 -29.5q-10 -29 -13.5 -66.5t19.5 -76.5q19 -36 48 -50t62 -3q16 5 32 22.5t21 59.5v2q4 13 -5 23l-3 1q-4 0 -10 -1t-8 -7q-3 -3 -3 -7t-1 -9 l-2 -14.5t-3 -10.5q-3 -5 -19.5 -20.5t-37.5 -13.5q-24 4 -45 32t-23 68q-2 23 7 39.5t18 27.5q10 12 25 19q3 2 13 1t19.5 -2.5t18.5 -3.5t10 -4q4 -4 6 -8.5t5 -8.5l1 -6q0 -11 6 -15q2 -4 5 -6t7 -3q4 0 7 4q4 1 7.5 11.5t-2.5 23.5q-4 4 -11.5 13t-17 19t-17.5 17t-10 7 l-4 3q-1 2 -6 0zM278 345q-11 1 -18 0q-19 -4 -26 -22q-9 -22 -6.5 -44.5t13.5 -38.5q11 -15 23 -19q7 -4 12 -1q-15 8 -23 19q-9 8 -14 23t0 34q9 38 14 40.5t8 2.5q4 0 8 -2.5t9 8.5zM396 228l-15 -27q-7 -14 -13 -24t-12 -16q-15 -12 -23 -13q-7 -3 -9 -3q15 0 30 9 q12 8 24 25t18 49z" />
<glyph unicode="&#xaa;" horiz-adv-x="577" d="M595 -324h-631v1222h631v-1222zM117 27q6 -2 13.5 -7t15.5 9q8 12 13.5 30.5t6.5 26.5q3 10 0.5 17.5t5.5 9.5q9 2 13.5 -7t16.5 -9q11 0 25 5.5t46 5.5q33 0 47.5 -3t26.5 4q12 6 23.5 14t16.5 4q1 -1 6.5 -9.5t10 -17t9 -18.5t4.5 -15q3 -10 9 -26t25 -18q20 -4 26.5 2 t8.5 22q5 13 -8 24.5t-18 24.5q-3 6 -12.5 30l-21.5 52.5t-22.5 57t-16.5 43.5q-5 17 -15.5 42.5l-21 50l-19 45t-10.5 26.5q-3 5 -4 17t-4 25t-6.5 25t-9.5 18q-6 5 -13 0t-13 -12.5t-10.5 -16t-6.5 -14.5q-1 -12 3 -21t4 -16q0 -6 -6 -14.5t-10 -19.5q-4 -9 -5.5 -17.5 t-1.5 -15.5q0 -8 -18 -43t-31 -73q-12 -35 -13 -48t-4 -23q-1 -8 -6.5 -25t-14.5 -31q-4 -10 -13.5 -26t-17.5 -34.5t-10 -33.5t7 -17zM366 235q9 -17 11.5 -34.5t-1.5 -31.5q-1 -6 -8 -7t-17.5 1t-22 5t-18.5 3q-30 0 -41 5q-4 4 -13 -0.5t-28 -10.5q-20 -7 -27 -5.5 t-14 4.5q-4 1 -1 8.5t9 16.5t12 19.5t8 19.5t9.5 29.5l16 42l14.5 38t6 17.5q0 4 -5.5 7.5l-10.5 6.5q-3 1 4 8t13 15q7 10 9 16t11 3q4 -2 16 -26l26.5 -55t26.5 -59.5zM243 222l7 16q4 8 7 15t4 11q6 8 7 20q1 8 4 18q-5 -4 -10.5 -17.5t-8.5 -28.5q-6 -18 -10 -34z M294 186q-2 7 -6 15t-11 6q-5 -2 -12 -2h-8zM201 78l139 5q-12 3 -34 2.5t-46 -2.5q-29 -1 -59 -5zM194 70q-4 -10 -6 -17q-7 -17 -12 -23q-4 -3 -7 -5.5t-4 -6.5q-3 -3 -3 -6q13 11 19 19q15 21 13 39zM491 126q3 -4 -2 10t-14.5 38l-23 58.5l-27.5 70.5l-80 193l70 -182 l28 -69l23 -58.5t16 -42.5t10 -18z" />
<glyph unicode="&#xab;" horiz-adv-x="580" d="M607 -324h-634v1222h634v-1222zM251 129q-4 7 -13.5 31l-20 53l-19 54.5t-8.5 36.5q0 10 10 33.5t23.5 50.5l26 51t15.5 33q9 20 19 45t7 35q-4 10 -16 16.5t-19 8.5q-6 4 -15 -6.5t-15 -29.5q-4 -11 -17.5 -43l-30 -69.5t-28.5 -69t-12 -36.5q0 -6 10 -36.5l21 -66.5 t22 -67t14 -38q2 -6 3.5 -20t7 -26t15 -20t27.5 -3q16 5 18.5 17t-2.5 24t-13.5 24.5t-9.5 17.5zM298 110q-6 15 -16.5 50.5t-22.5 70.5l-30 90l41 97q13 37 26.5 69.5t12.5 35.5q-26 -56 -44 -102l-29 -71t-14 -36q0 -2 3.5 -12.5t10.5 -26t13.5 -36l13.5 -42.5l37 -109 q-1 -5 -2 -12q-4 -14 -4 -18q-3 -7 -6 -8l-3 -4q6 5 11 15q3 8 5 19.5t-3 29.5zM388 129q-4 7 -14 31t-20.5 53l-19.5 54.5t-9 36.5q0 10 11 33.5l24 50.5l25 51t16 33q8 20 19 45t7 35q-3 10 -15 16.5t-19 8.5q-8 4 -17 -6.5t-13 -29.5l-10 -28t-14.5 -36.5l-15 -35.5 t-8.5 -23t-8.5 -22l-13 -31.5t-12 -29t-5.5 -18.5q0 -5 9 -35t20.5 -65l21.5 -65t14 -37q2 -6 4 -20t7.5 -26t15 -20t26.5 -3q15 5 18 17t-2 24t-13 24.5t-9 17.5zM434 110q-4 15 -15 50.5t-23 70.5l-30 90l41 97q13 37 27 69.5t11 35.5l-44 -102l-29 -71t-13 -36 q0 -2 3.5 -12.5t9.5 -26l13.5 -36t14.5 -42.5q18 -49 38 -109q-1 -5 -4 -12q-3 -14 -3 -18q-4 -7 -5 -8l-4 -4q5 5 11 15q4 8 5 19.5t-4 29.5z" />
<glyph unicode="&#xac;" horiz-adv-x="603" d="M613 -324h-633v1222h633v-1222zM344 545q-6 -4 -3 -9.5t-4 -5.5h-17t-32 -0.5t-35.5 -3t-28.5 -8.5q-11 -5 -33 -16t-42.5 -41.5t-33 -85.5t-1.5 -148q7 -64 29.5 -100t51.5 -53.5t61.5 -20t61 2t46.5 12t19 10.5l5 8q19 23 36 51q13 25 24 55t12 61q2 32 -5.5 68 t-18.5 70.5t-22.5 61.5t-18.5 38q-16 24 -29.5 40.5t-21.5 13.5zM424 290q0 -49 -11 -83t-26.5 -56t-36 -32t-38.5 -17q-17 -5 -32.5 -2.5t-29.5 8t-21 12.5t-7 8q-3 5 -6.5 8t-11.5 7q-4 1 -13.5 10.5t-20.5 29.5t-20.5 48.5t-10.5 65.5q-3 38 11.5 69t34 53t37 33.5 t20.5 15.5q9 7 24 13t42 -4q15 -4 34 -14.5t37 -31.5t30 -56t15 -85zM177 313q-8 -44 3.5 -76.5t30.5 -54.5q20 -24 50 -39q-20 7 -37 26q-13 16 -24.5 44t-13.5 74q-2 47 8.5 78t23 50t22 27t9.5 10q-3 5 -28 -22t-44 -117zM326 575q57 -28 99 -69q35 -35 61.5 -88 t15.5 -122q-10 -69 -17.5 -106.5t-15 -55t-14 -23.5t-12.5 -13l-25.5 -18.5t-33.5 -22.5q-19 -12 -42 -25q44 2 79 34q30 24 56.5 80.5t34.5 158.5q4 106 -24 161t-63 79q-42 27 -99 30zM234 404q-8 -4 -9.5 -8.5t-1.5 -9.5q-1 -4 -2.5 -23.5t-1.5 -35.5q0 -11 1.5 -29 t2.5 -42v-3q0 -8 -3 -32t-4 -33q-3 -2 -3 -7q0 -8 4.5 -15.5t16.5 -14.5q8 -4 15 -1q5 1 5 13v2q0 5 -2.5 10.5t-2.5 6.5q-6 6 -6 27q0 7 1.5 24t1.5 24q3 0 14 -4h4q5 -2 13 0h11q14 0 39 2.5t42 20.5q17 14 17 44q0 28 -7.5 45t-20 25.5t-24.5 11t-22 2.5l-13 1h-43 t-22 -1zM249 287h11l13 3h3q12 -3 20 -3h27q6 0 21 11t15 29q0 19 -5.5 26.5t-15.5 11.5q-3 4 -13.5 3t-18.5 -1h-7h-26q-8 0 -13 2h-6l-1 1q-2 0 -4 -1v-4q0 -4 1 -12.5t1 -14.5v-18q0 -5 -1 -17t-1 -16zM261 241q-1 -2 1 -17t2 -24q0 -8 0.5 -19t-0.5 -18q-3 -5 -3 -13 q0 -4 -1 -7q1 3 5 8q4 7 7 29q0 8 -1 19.5t-3 21t-3 15.5t-4 5zM399 291q7 17 7 38.5t-7 40.5q-4 10 -8.5 16.5t-8.5 10.5q-9 6 -13 8l14 -13q8 -7 13.5 -24t5.5 -33q1 -15 -5 -34.5t-14 -30.5q-4 -5 -11 -9.5t-13 -9.5q-7 -5 -17 -9q18 3 33.5 20.5t23.5 28.5z" />
<glyph unicode="&#xad;" horiz-adv-x="610" d="M620 -324h-635v1222h635v-1222zM253 310q-13 3 -41.5 3t-36.5 -3q-9 -3 -8 -7t4 -8l13 -9.5t6 -11.5q0 -6 -7 -10l-6 -3q0 -5 4 -9q1 -7 9 -10q6 -4 23.5 -3t29.5 1h132q7 0 11.5 -3.5t16.5 0.5q13 1 19 10.5t7 20.5q3 11 -2.5 28t-20.5 22q-14 5 -28 -1.5t-18 -6.5h-48 q-20 0 -37 -1.5t-22 1.5z" />
<glyph unicode="&#xae;" horiz-adv-x="602" d="M614 -324h-633v1222h633v-1222zM345 545q-6 -4 -3 -9.5t-4 -5.5h-17t-32 -0.5t-35.5 -3.5t-28.5 -8t-33 -16t-42.5 -41.5t-33 -85.5t-1.5 -148q7 -64 29.5 -100t51.5 -53.5t61.5 -20t61 2t46.5 12t19 10.5l5 8q19 23 36 51q13 25 24 55t12 61q2 32 -5.5 68t-18.5 70.5 t-22.5 61.5t-18.5 38q-16 24 -29.5 40.5t-21.5 13.5zM425 290q0 -49 -11 -83t-26.5 -56t-36 -32t-38.5 -17q-17 -5 -32.5 -2.5t-29.5 8t-21 12.5t-7 8q-3 5 -6.5 8t-11.5 7q-4 1 -13.5 10.5t-20.5 29.5t-20.5 48.5t-10.5 65.5q-3 38 11.5 69t34 53t37 33.5t20.5 15.5 q9 7 24 13t42 -4q15 -4 34 -14.5t37 -32t30 -56t15 -84.5zM166 325q-9 -44 -8 -76.5t4.5 -44t6.5 3t2 61.5q-1 45 11 79t27.5 56.5t28 34t12.5 13.5q-2 1 -11.5 -2t-23 -15.5t-27 -39t-22.5 -70.5zM318 571q55 -29 97 -68q36 -35 62 -88t16 -124q-11 -68 -18.5 -104.5 t-15 -54.5t-13.5 -24l-13 -13q-8 -8 -24.5 -19t-33.5 -21q-19 -13 -43 -28q45 5 81 34q29 25 55.5 81t33.5 160q6 106 -22.5 160.5t-64.5 78.5q-42 29 -97 30zM319 415q-4 -3 -17.5 -3h-27.5h-24h-15q-18 0 -21 -1q-4 -3 -5 -16t-1 -15v-71v-54v-8v-35q0 -24 2 -27l3 -6 q1 -5 7 -5h3q2 -1 12 3q7 8 7 11q0 4 -5 17q-2 7 -2 11v6t1 10q1 9 1 15v10v1q0 4 -0.5 10t0.5 8q3 1 9 1h13q3 0 7 1.5t7 1.5q1 0 3 0.5t4 0.5q5 2 9.5 4t7.5 -2q6 -3 14.5 -22l14.5 -33l5 -11l1 -5l12 -24.5t13 -14.5q5 -3 8 0q12 2 12 15q0 4 -2 6q0 4 -13 21l-10 16 t-9 15l-5 12q-6 16 -6 19v3v1q3 0 10 5t15 14.5t13 20.5t5 22q-2 24 -10 37t-15 19q-8 9 -13.5 10.5t-10.5 2.5q-2 0 -2 1.5t-1 1.5q0 3 -4 0zM280 378h-7h-8q-3 -2 -10 -2h-3q-5 0 -9 2q-7 3 -7 0q-1 -2 -1 -8q0 -1 1 -11.5t1 -18.5v-1l3 -6q0 -5 -3 -6q-1 -4 -3 -9t1 -8 q5 0 12 4h3l2 2q6 0 10 -2q8 -1 17 -2.5t17 -2.5q28 0 35 8q7 6 11.5 14.5t2.5 18.5q-2 7 -4.5 15t-8.5 11q-13 5 -19 5q-5 0 -6.5 -0.5t-3.5 -0.5q-2 -4 -8 -3t-15 1zM338 423l5 -1v-2q10 -5 26 -17.5t20 -28.5q3 -17 3 -26q0 -39 -13 -47l-2 -4q-23 -16 -23 -20 q0 -1 10.5 -21.5t19.5 -35.5l3 2l-11 28t-8 26v1l5 6q7 7 17 22t10 33v5v7q-4 20 -10 37t-45 36l-6 4zM254 268q-2 -3 -2 -11v-2q0 -2 1 -11t1 -19t0.5 -20.5t0.5 -11.5v-7q0 -7 -3 -11l-2 -2h-2q-5 0 -12 2l-1 -2q1 -4 5 -6q4 -5 10 -5q4 0 5 1q4 6 8 26t4 34v1q-1 4 -1 8 q0 7 0.5 11t0.5 8q4 -1 7.5 -3t7.5 -2q6 1 6 5q0 9 -14 9q-3 0 -6 2t-7 3l-3 3h-4z" />
<glyph unicode="&#xb1;" horiz-adv-x="601" d="M613 -324h-633v1222h633v-1222zM437 311q-12 0 -27 -6.5t-31 -8.5q-3 -3 -19.5 -8t-21.5 -5q-7 0 -21 4q-4 3 -8.5 6t-4.5 11q0 5 2 13.5t6 17t6.5 15.5l2.5 7q0 7 3.5 13t3.5 15q0 8 -7.5 22t-24.5 16q-15 4 -31.5 -4.5t-17.5 -22.5q0 -15 2.5 -23t5.5 -15.5t5.5 -16.5 t-0.5 -24v-30q-20 5 -35 7.5t-16 2.5q-6 0 -18.5 2t-25.5 -2q-14 -4 -24 -14.5t-6 -18.5q9 -22 25 -20.5t18 1.5h27.5t54.5 -3v-73q0 -6 -7.5 -16t-4.5 -25q4 -14 16.5 -25.5t31.5 -6.5q21 3 20.5 22t-0.5 22t0.5 32.5t2.5 68.5q30 -2 53 -2h27q7 0 13 -3.5t14 -3.5 q10 0 22 7t16 23q3 18 -5 33.5t-22 15.5zM372 211q-7 0 -12.5 -1t-8.5 -1h-9q1 -4 12 -4t22.5 1.5t20.5 2t6 0.5t-10.5 1t-20.5 1zM201 220q-2 0 3 -2t11 -2.5t12.5 0t8.5 4.5h-25h-10zM478 287v-37q0 8 1 15q0 7 0.5 13.5t-1.5 8.5zM147 -27q4 -21 21.5 -20t22.5 1 q1 0 34.5 -1t73 -2t73.5 -2t36 -1q9 0 15 -3t14 -3q9 0 22 6.5t17 22.5q3 18 -6 33.5t-22 15.5q-12 0 -39.5 -6.5t-38.5 -6.5h-152q-5 0 -15.5 7.5t-24.5 4.5q-13 -4 -24.5 -16.5t-6.5 -29.5z" />
<glyph unicode="&#xb2;" horiz-adv-x="602" d="M612 -324h-635v1222h635v-1222zM181 372q9 5 12 15l6 20q0 9 -9 6q-3 -1 -7 -6q0 2 1 6q0 1 4 12q3 7 29 28t73 23q45 2 65.5 -19t34.5 -56q8 -18 -6.5 -36t-37.5 -33.5t-47.5 -27.5t-36.5 -19q-26 -15 -48.5 -36t-43.5 -51q-10 -14 -14.5 -37t-4.5 -43.5t1.5 -37 t5.5 -16.5q11 -5 37 -9q7 0 37.5 -2.5t66 -4.5t65.5 -3t35 -1q9 0 18.5 -5t18.5 -5q8 0 25 11.5t23 21.5q3 9 -4.5 27t-24.5 25q-16 6 -36 -4.5l-29 -15.5q-6 -1 -22 -1t-36.5 1.5t-38.5 3t-22 1.5q-12 0 -20 2.5t-18 -0.5q-7 -1 -16.5 -4t-17.5 -1q-9 3 -8.5 9t4.5 21 q1 7 12 23t26 34.5l28.5 34t23.5 22.5q7 7 27.5 19.5l43 26l42 25.5t25.5 21q4 8 8 25t4.5 36.5t-1.5 38t-5 26.5q-4 10 -19 22l-30 25l-42 28l4 -16q-15 3 -28 7t-24.5 5.5t-15.5 1.5q-5 0 -17.5 -1.5t-29 -7t-34 -17t-31.5 -30.5q-15 -22 -19 -41t-4 -35t3.5 -25.5 t7.5 -11.5q12 -3 31 5zM266 450q-11 0 -19 -2q-21 -4 -26 -16q-4 -14 -8 -30q-2 -7 -2 -15l2 1l-2 -1q0 -3 -1 -3t-1 -1q-3 -7 -8 -15t-7 -10q-4 0 -8.5 -0.5t-8.5 -4.5q-5 -4 -8 -8l-4 -8q11 4 18 9q7 3 13 7.5t10 11.5q8 11 9.5 29.5t16.5 36.5q15 13 24 17q6 2 10 2z M465 388q-4 -24 -11 -43l-12 -34.5t-15 -20.5l-22.5 -14t-29.5 -17l-28 -14.5t-18 -10.5q-6 -2 -21 -11.5t-32 -22t-31.5 -24.5t-18.5 -21q-6 -13 -2 -13q1 0 2 1q4 3 10 4q11 4 20 4q4 -2 11 -2h13h13l-49 10q4 6 11 13q8 8 23 19l23 15.5l37.5 24.5l38.5 24.5t25 14.5 q15 9 27.5 22t18.5 24q5 6 6 18t5 24q3 14 6 30zM485 40q-4 0 -7 -2l-13 -7q-11 -6 -15 -6q-3 -3 -7 0q12 0 22 1q19 3 20 14z" />
<glyph unicode="&#xb3;" horiz-adv-x="602" d="M610 -324h-634v1222h634v-1222zM188 422q3 9 18 23t45 29q14 7 39.5 4t50.5 -12.5t42 -26.5t17 -36q0 -40 -26 -60.5t-43 -20.5q-10 -2 -16.5 2.5t-13.5 8.5q-8 5 -15 11q-3 0 -6 -3q-1 0 -8 -12q-2 -3 -2 -11t1 -17t4 -15l4 -8q5 -3 26.5 -8t40.5 -7q20 -4 33.5 -16 t20.5 -24q3 -5 9 -25.5t1 -42t-26.5 -39.5t-73.5 -18q-50 0 -76.5 8.5t-37.5 18t-11 20v16.5q0 9 -0.5 12.5t-10.5 13.5q-8 8 -14 16t-20 8q-8 0 -9 -9.5t-0.5 -24t3 -28.5t8.5 -24q3 -10 16.5 -25t34.5 -29t48 -22.5t60 -8.5q31 0 59 10t49 27.5t34.5 41.5t13.5 54 q0 27 -9.5 49.5t-20.5 36t-20.5 21t-9.5 8.5q0 4 10.5 19l19.5 27q8 12 13 39.5t3 37.5q0 6 -8.5 26.5t-25.5 41.5t-43.5 38.5t-63.5 17.5q-35 0 -63.5 -12t-47.5 -30t-30.5 -37.5t-15.5 -31.5q-7 -26 0.5 -34t15.5 -7q13 3 18.5 16.5t8.5 22.5zM275 444q-10 0 -20 -3 q-24 -2 -33 -17q-10 -14 -12 -26t-14 -22q-12 -8 -21.5 -10.5t-9.5 -8.5q-3 -4 16 2t31 27q6 11 10 20.5t10 17t15.5 12.5t27.5 8zM443 305q3 9 9 15q4 7 8 13t8 13q3 6 4 12.5t3 14.5q1 7 2 15q-12 -19 -19 -36l-11.5 -28t-3.5 -19zM227 163q-2 7 -7.5 6.5t-9.5 6.5 q-3 6 -7.5 21t-11.5 21q-6 4 -13 7q-4 2 -6 2q2 -5 8 -11q4 -4 7.5 -8t7.5 -8q3 -8 9 -22.5t15 -20.5q8 -7 13 -12t5 1l-6 11zM482 161q-6 -26 -13 -45q-6 -18 -17 -33.5t-26 -25.5l-28 -12.5l-17 -7.5q-7 -4 -11 -5q12 0 29 5q12 3 28 11.5t30 29.5q14 17 19.5 33t6.5 27 q3 12 -1 23z" />
<glyph unicode="&#xb4;" horiz-adv-x="590" d="M604 -324h-634v1222h634v-1222zM195 626q7 0 9 -2.5t10 -2.5q4 0 11 2t16 5l18 8q15 12 30 22q14 8 25.5 15.5t16.5 10.5q11 4 14.5 7t12.5 8q9 1 21 8.5t4 22.5q-10 13 -25 16t-23 -9q-11 -13 -27.5 -27t-28.5 -21q-12 -5 -23.5 -14.5t-24.5 -16.5q-15 -6 -30 -19 t-6 -13zM348 673l-43 -26q-10 -7 -26 -14q-6 -4 -16 -7l-13 -8l50 22l20 11q18 8 25 8q3 0 0.5 5.5t2.5 8.5z" />
<glyph unicode="&#xb7;" horiz-adv-x="585" d="M619 -324h-634v1222h634v-1222zM265 331q0 -17 26 -23q14 -3 33.5 5.5t23.5 44.5q1 18 -7 31t-17.5 19.5t-20.5 10t-13 3.5q-10 0 -12.5 -13t-4.5 -27q0 -7 3.5 -10t8.5 -4t9 -3t4 -7l-18 -9q-15 -10 -15 -18zM267 411q-5 -2 -7 -8q-8 -11 -8 -17q0 -10 2 -14.5t2 -8.5 v-28q0 3 1 6q4 8 5 12q5 10 2 31t3 27z" />
<glyph unicode="&#xb9;" horiz-adv-x="590" d="M610 -324h-632v1222h632v-1222zM304 267q0 -17 -2 -44.5t-5 -54.5t-4 -49t-1 -28q1 -12 5.5 -26t29.5 -13q12 0 15.5 11.5t1.5 26.5t-5.5 29.5t-3.5 19.5v39v70.5t1 70t1 38.5q0 5 1 25.5t2 44.5t1.5 45t0.5 28t-1.5 15t-3.5 12q-3 8 -5 12q2 3 5 5q4 1 6 3t4 2 q5 1 13.5 -6.5t3.5 5.5q-6 9 -19 20q-8 6 -15 10l12 -9v-6q0 -6 -3 -13q-5 -6 -10 -7t-13 -1q-5 0 -16.5 -11.5t-22.5 -27l-22 -30t-12 -19.5q-5 -6 -11 -15.5t-13 -17.5q-6 -11 -17 -23q5 -2 12 -2q11 -4 19 0q7 3 16 18.5t13 21.5q11 15 26 11q2 0 4 -22t5 -51.5t5 -59 t2 -47.5zM375 94v32t0.5 78t0.5 98.5v100.5t-0.5 79.5t-0.5 32.5q-3 5 -3 12q0 3 -1 4z" />
<glyph unicode="&#xba;" d="M611 -324h-632v1222h632v-1222zM294 466q28 -3 49.5 -21.5t36.5 -45t23 -58.5t8 -63t-8.5 -65.5t-24.5 -62t-37 -45.5t-44 -18q-24 0 -52.5 10.5t-53 35t-40.5 64t-12 97.5q2 58 24.5 92.5t49 53t51 23.5t30.5 3zM366 497q-24 23 -41 32.5t-9 -6.5q0 -3 -21.5 -3t-53 -6 t-63.5 -21.5t-49 -49.5q-20 -34 -31.5 -84.5t-10 -103.5t18.5 -101t55 -80q40 -31 79 -42t72 -5.5t58 25.5t39 45q12 26 23 59.5t17 68t5 67t-7 58.5q-30 98 -81 147zM525 199q-4 -4 -4 -6q0 -5 1 -8t6 -5zM392 526q-23 13 -40.5 22t-31.5 13q-16 5 -30 5l37 -12 q3 -1 20.5 -11.5t38 -25.5t39 -34t26.5 -40t14.5 -48.5t11 -57.5t6.5 -58.5t-2 -50.5q-7 -46 -19.5 -83t-52.5 -78q-21 -20 -42.5 -33.5t-39.5 -21.5q-22 -10 -41 -15q34 9 65 23q26 12 53.5 32.5t44.5 50.5t25.5 66.5t12.5 70.5t3.5 61t-1.5 41l-10 34.5t-19 53t-29.5 55 t-38.5 41.5zM245 429q-15 -8 -29 -20q-13 -11 -25 -28t-19 -39q-14 -46 -7 -97.5t21 -81.5q8 -15 20 -26t24.5 -17t22.5 -9t13 -1q3 5 -7.5 14.5l-22.5 20.5l-14.5 12t-17 20t-15 35.5t-7.5 60.5q-5 36 4.5 66t23.5 49q16 23 35 41z" />
<glyph unicode="&#xbb;" horiz-adv-x="580" d="M592 -324h-634v1222h634v-1222zM185 41q7 -4 16 6.5t14 29.5q2 11 9.5 29l15 36t13.5 35.5t9 23.5q1 7 7 22l12.5 30.5t13.5 29.5t7 19q0 4 -10.5 34t-21.5 65.5l-21 65.5t-13 37q-2 7 -4.5 20.5t-8 25.5t-15 20.5t-24.5 2.5q-16 -5 -19 -16.5t2 -24.5t12.5 -24.5 t11.5 -18.5q3 -6 13 -30.5t20 -53l19 -53.5t9 -36t-10 -35t-23.5 -51l-26 -51t-16.5 -35l-19 -43.5t-7 -35.5q4 -8 16.5 -14t18.5 -10zM335 305q0 4 -12.5 38.5l-26.5 75.5l-37 109q-3 8 -5 8t0 -5.5l8 -21.5q1 -18 12.5 -53l23.5 -69q13 -43 30 -89l-41 -97 q-15 -36 -27 -69t-9 -37l40 102q15 40 29.5 72.5t14.5 35.5zM286 65q2 -8 15 -14t20 -10t15.5 6.5t14.5 29.5q1 11 15.5 44l30 69.5l28.5 68.5t13 38q0 5 -9.5 35.5l-21.5 67l-22.5 67t-13.5 37.5q-1 7 -3.5 20.5t-8 25.5t-15 20.5t-26.5 2.5q-15 -5 -17.5 -16.5t1.5 -24.5 t12 -24.5t12 -18.5q3 -6 12.5 -30.5l20.5 -53l20 -53.5t9 -36t-11 -35l-24 -51l-25 -51t-17 -35l-19 -43.5t-6 -35.5zM472 305q0 4 -12 38.5l-26 75.5l-39 109q-3 8 -6 8q-1 0 1 -5.5t6 -21.5q4 -18 15.5 -53l23.5 -69l30 -89l-36 -88l-27.5 -67.5t-15.5 -41.5 q-11 -26 -24.5 -53.5t-21.5 -31.5q-14 -9 -34 -1q-8 1 -19 7q11 -7 19 -13q10 -4 18.5 -5t15.5 1q5 2 10.5 12.5l12.5 25t14 31t12 31.5l20 45l28.5 65.5t24.5 60t10 29.5zM209 16q-11 -5 -22 -5h-11q9 -2 18 0q9 1 18 3.5t17 12.5q-1 -3 -5 -4q-3 -1 -8 -3.5z" />
<glyph unicode="&#xbc;" horiz-adv-x="1799" d="M1813 -324h-634v1222h634v-1222zM1598 517q-5 12 -12.5 16t-10.5 10q-4 1 -4 9v4q-1 -3 -1 -7q-2 -2 -2 -5t-2 -4q-3 -4 -17.5 -12.5t-18.5 -16.5q-1 -5 -5 -14.5t-11 -22.5t-11.5 -23t-7.5 -16q-1 -5 -23 -31.5l-47.5 -57.5l-48.5 -59t-26 -35q-7 -16 -11.5 -28 t-8.5 -20q-3 -9 -6.5 -29t-7.5 -24l-5 -5h89h65t34 1q8 3 19 12.5t16 5.5q13 -8 13 -18q0 -1 -2 -16.5t-2 -34t2 -34.5t8 -18q15 -5 18.5 -5t11.5 7q10 9 14 14.5t1 20.5l-10 43t1 29q7 2 20.5 -4t21.5 -10q19 -5 35 7q19 12 19 35q0 14 -15.5 31.5t-22.5 16.5q-9 -4 -12 -6 t-15 -11q-12 -6 -19.5 -15t-10.5 -2q-1 4 -1 19.5v35v38t-2 29.5t-2 34v48t1 46.5t4 26.5q4 5 4 12.5t2 14.5q0 7 2 18zM1548 188q-1 -8 -8 -7.5t-16 4.5q-9 3 -16 6.5t-18 3.5q-10 3 -35 3t-52 -5q-15 -1 -20.5 -1t-7 1.5t-0.5 4t-1 5.5q-4 5 10.5 27t26.5 35q5 7 17.5 20 t24 28l22.5 29.5t13 19.5q4 4 11.5 15t16 22t15 17.5t10.5 5.5q6 -6 8 -41t2 -76t-1.5 -76.5t-1.5 -40.5zM1476 287q-16 -12 -28 -24q-10 -11 -20 -20t-10 -13q-2 -5 15 0.5t26 5.5h17q6 0 10 2q-17 -2 -29 -2q-11 0 -17.5 1t-4.5 5q5 4 11 12.5t13 16.5q6 9 17 16z M1203 -324h-633v1222h633v-1222zM1086 495q0 11 -6.5 23t-10.5 18q-2 4 -5 4.5t-8 -7.5q-6 -10 -18 -16.5t-31 -47.5q-10 -19 -34 -59.5l-50.5 -81.5l-50.5 -76t-29 -41q-6 -8 -17.5 -26l-23.5 -37.5l-23 -38t-15 -27.5q-9 -19 -13.5 -29.5t4.5 -15.5q4 -4 12.5 5t18 23 l20 29.5t19.5 27.5q6 10 24 36.5l42.5 62.5t53 74l52.5 73l41.5 59.5t20.5 29.5q27 30 27 38zM836 82q7 5 30 39l47 73l65 101l-80 -110q-13 -22 -26 -41l-23 -34t-13.5 -23t0.5 -5zM610 -324h-632v1222h632v-1222zM304 267q0 -17 -2 -44.5t-5 -54.5t-4 -49t-1 -28 q1 -12 5.5 -26t29.5 -13q12 0 15.5 11.5t1.5 26.5t-5.5 29.5t-3.5 19.5v39v70.5t1 70t1 38.5q0 5 1 25.5t2 44.5t1.5 45t0.5 28t-1.5 15t-3.5 12q-3 8 -5 12q2 3 5 5q4 1 6 3t4 2q5 1 13.5 -6.5t3.5 5.5q-6 9 -19 20q-8 6 -15 10l12 -9v-6q0 -6 -3 -13q-5 -6 -10 -7t-13 -1 q-5 0 -16.5 -11.5t-22.5 -27l-22 -30t-12 -19.5q-5 -6 -11 -15.5t-13 -17.5q-6 -11 -17 -23q5 -2 12 -2q11 -4 19 0q7 3 16 18.5t13 21.5q11 15 26 11q2 0 4 -22t5 -51.5t5 -59t2 -47.5zM375 94v32t0.5 78t0.5 98.5v100.5t-0.5 79.5t-0.5 32.5q-3 5 -3 12q0 3 -1 4z" />
<glyph unicode="&#xbd;" horiz-adv-x="1796" d="M1806 -324h-635v1222h635v-1222zM1375 372q9 5 12 15l6 20q0 9 -9 6q-3 -1 -7 -6q0 2 1 6q0 1 4 12q3 7 29 28t73 23q45 2 65.5 -19t34.5 -56q8 -18 -6.5 -36t-37.5 -33.5t-47.5 -27.5t-36.5 -19q-26 -15 -48.5 -36t-43.5 -51q-10 -14 -14.5 -37t-4.5 -43.5t1.5 -37 t5.5 -16.5q11 -5 37 -9q7 0 37.5 -2.5t66 -4.5t65.5 -3t35 -1q9 0 18.5 -5t18.5 -5q8 0 25 11.5t23 21.5q3 9 -4.5 27t-24.5 25q-16 6 -36 -4.5l-29 -15.5q-6 -1 -22 -1t-36.5 1.5t-38.5 3t-22 1.5q-12 0 -20 2.5t-18 -0.5q-7 -1 -16.5 -4t-17.5 -1q-9 3 -8.5 9t4.5 21 q1 7 12 23t26 34.5l28.5 34t23.5 22.5q7 7 27.5 19.5l43 26l42 25.5t25.5 21q4 8 8 25t4.5 36.5t-1.5 38t-5 26.5q-4 10 -19 22l-30 25l-42 28l4 -16q-15 3 -28 7t-24.5 5.5t-15.5 1.5q-5 0 -17.5 -1.5t-29 -7t-34 -17t-31.5 -30.5q-15 -22 -19 -41t-4 -35t3.5 -25.5 t7.5 -11.5q12 -3 31 5zM1460 450q-11 0 -19 -2q-21 -4 -26 -16q-4 -14 -8 -30q-2 -7 -2 -15l2 1l-2 -1q0 -3 -1 -3t-1 -1q-3 -7 -8 -15t-7 -10q-4 0 -8.5 -0.5t-8.5 -4.5q-5 -4 -8 -8l-4 -8q11 4 18 9q7 3 13 7.5t10 11.5q8 11 9.5 29.5t16.5 36.5q15 13 24 17q6 2 10 2z M1659 388q-4 -24 -11 -43l-12 -34.5t-15 -20.5l-22.5 -14t-29.5 -17l-28 -14.5t-18 -10.5q-6 -2 -21 -11.5t-32 -22t-31.5 -24.5t-18.5 -21q-6 -13 -2 -13q1 0 2 1q4 3 10 4q11 4 20 4q4 -2 11 -2h13h13l-49 10q4 6 11 13q8 8 23 19l23 15.5l37.5 24.5l38.5 24.5t25 14.5 q15 9 27.5 22t18.5 24q5 6 6 18t5 24q3 14 6 30zM1679 40q-4 0 -7 -2l-13 -7q-11 -6 -15 -6q-3 -3 -7 0q12 0 22 1q19 3 20 14zM1203 -324h-633v1222h633v-1222zM1086 495q0 11 -6.5 23t-10.5 18q-2 4 -5 4.5t-8 -7.5q-6 -10 -18 -16.5t-31 -47.5q-10 -19 -34 -59.5 l-50.5 -81.5l-50.5 -76t-29 -41q-6 -8 -17.5 -26l-23.5 -37.5l-23 -38t-15 -27.5q-9 -19 -13.5 -29.5t4.5 -15.5q4 -4 12.5 5t18 23l20 29.5t19.5 27.5q6 10 24 36.5l42.5 62.5t53 74l52.5 73l41.5 59.5t20.5 29.5q27 30 27 38zM836 82q7 5 30 39l47 73l65 101l-80 -110 q-13 -22 -26 -41l-23 -34t-13.5 -23t0.5 -5zM610 -324h-632v1222h632v-1222zM304 267q0 -17 -2 -44.5t-5 -54.5t-4 -49t-1 -28q1 -12 5.5 -26t29.5 -13q12 0 15.5 11.5t1.5 26.5t-5.5 29.5t-3.5 19.5v39v70.5t1 70t1 38.5q0 5 1 25.5t2 44.5t1.5 45t0.5 28t-1.5 15t-3.5 12 q-3 8 -5 12q2 3 5 5q4 1 6 3t4 2q5 1 13.5 -6.5t3.5 5.5q-6 9 -19 20q-8 6 -15 10l12 -9v-6q0 -6 -3 -13q-5 -6 -10 -7t-13 -1q-5 0 -16.5 -11.5t-22.5 -27l-22 -30t-12 -19.5q-5 -6 -11 -15.5t-13 -17.5q-6 -11 -17 -23q5 -2 12 -2q11 -4 19 0q7 3 16 18.5t13 21.5 q11 15 26 11q2 0 4 -22t5 -51.5t5 -59t2 -47.5zM375 94v32t0.5 78t0.5 98.5v100.5t-0.5 79.5t-0.5 32.5q-3 5 -3 12q0 3 -1 4z" />
<glyph unicode="&#xbe;" horiz-adv-x="1811" d="M1825 -324h-634v1222h634v-1222zM1610 517q-5 12 -12.5 16t-10.5 10q-4 1 -4 9v4q-1 -3 -1 -7q-2 -2 -2 -5t-2 -4q-3 -4 -17.5 -12.5t-18.5 -16.5q-1 -5 -5 -14.5t-11 -22.5t-11.5 -23t-7.5 -16q-1 -5 -23 -31.5l-47.5 -57.5l-48.5 -59t-26 -35q-7 -16 -11.5 -28 t-8.5 -20q-3 -9 -6.5 -29t-7.5 -24l-5 -5h89h65t34 1q8 3 19 12.5t16 5.5q13 -8 13 -18q0 -1 -2 -16.5t-2 -34t2 -34.5t8 -18q15 -5 18.5 -5t11.5 7q10 9 14 14.5t1 20.5l-10 43t1 29q7 2 20.5 -4t21.5 -10q19 -5 35 7q19 12 19 35q0 14 -15.5 31.5t-22.5 16.5q-9 -4 -12 -6 t-15 -11q-12 -6 -19.5 -15t-10.5 -2q-1 4 -1 19.5v35v38t-2 29.5t-2 34v48t1 46.5t4 26.5q4 5 4 12.5t2 14.5q0 7 2 18zM1560 188q-1 -8 -8 -7.5t-16 4.5q-9 3 -16 6.5t-18 3.5q-10 3 -35 3t-52 -5q-15 -1 -20.5 -1t-7 1.5t-0.5 4t-1 5.5q-4 5 10.5 27t26.5 35q5 7 17.5 20 t24 28l22.5 29.5t13 19.5q4 4 11.5 15t16 22t15 17.5t10.5 5.5q6 -6 8 -41t2 -76t-1.5 -76.5t-1.5 -40.5zM1488 287q-16 -12 -28 -24q-10 -11 -20 -20t-10 -13q-2 -5 15 0.5t26 5.5h17q6 0 10 2q-17 -2 -29 -2q-11 0 -17.5 1t-4.5 5q5 4 11 12.5t13 16.5q6 9 17 16z M1215 -324h-633v1222h633v-1222zM1098 495q0 11 -6.5 23t-10.5 18q-2 4 -5 4.5t-8 -7.5q-6 -10 -18 -16.5t-31 -47.5q-10 -19 -34 -59.5l-50.5 -81.5l-50.5 -76t-29 -41q-6 -8 -17.5 -26l-23.5 -37.5l-23 -38t-15 -27.5q-9 -19 -13.5 -29.5t4.5 -15.5q4 -4 12.5 5t18 23 l20 29.5t19.5 27.5q6 10 24 36.5l42.5 62.5t53 74l52.5 73l41.5 59.5t20.5 29.5q27 30 27 38zM848 82q7 5 30 39l47 73l65 101l-80 -110q-13 -22 -26 -41l-23 -34t-13.5 -23t0.5 -5zM610 -324h-634v1222h634v-1222zM188 422q3 9 18 23t45 29q14 7 39.5 4t50.5 -12.5 t42 -26.5t17 -36q0 -40 -26 -60.5t-43 -20.5q-10 -2 -16.5 2.5t-13.5 8.5q-8 5 -15 11q-3 0 -6 -3q-1 0 -8 -12q-2 -3 -2 -11t1 -17t4 -15l4 -8q5 -3 26.5 -8t40.5 -7q20 -4 33.5 -16t20.5 -24q3 -5 9 -25.5t1 -42t-26.5 -39.5t-73.5 -18q-50 0 -76.5 8.5t-37.5 18t-11 20 v16.5q0 9 -0.5 12.5t-10.5 13.5q-8 8 -14 16t-20 8q-8 0 -9 -9.5t-0.5 -24t3 -28.5t8.5 -24q3 -10 16.5 -25t34.5 -29t48 -22.5t60 -8.5q31 0 59 10t49 27.5t34.5 41.5t13.5 54q0 27 -9.5 49.5t-20.5 36t-20.5 21t-9.5 8.5q0 4 10.5 19l19.5 27q8 12 13 39.5t3 37.5 q0 6 -8.5 26.5t-25.5 41.5t-43.5 38.5t-63.5 17.5q-35 0 -63.5 -12t-47.5 -30t-30.5 -37.5t-15.5 -31.5q-7 -26 0.5 -34t15.5 -7q13 3 18.5 16.5t8.5 22.5zM275 444q-10 0 -20 -3q-24 -2 -33 -17q-10 -14 -12 -26t-14 -22q-12 -8 -21.5 -10.5t-9.5 -8.5q-3 -4 16 2t31 27 q6 11 10 20.5t10 17t15.5 12.5t27.5 8zM443 305q3 9 9 15q4 7 8 13t8 13q3 6 4 12.5t3 14.5q1 7 2 15q-12 -19 -19 -36l-11.5 -28t-3.5 -19zM227 163q-2 7 -7.5 6.5t-9.5 6.5q-3 6 -7.5 21t-11.5 21q-6 4 -13 7q-4 2 -6 2q2 -5 8 -11q4 -4 7.5 -8t7.5 -8q3 -8 9 -22.5 t15 -20.5q8 -7 13 -12t5 1l-6 11zM482 161q-6 -26 -13 -45q-6 -18 -17 -33.5t-26 -25.5l-28 -12.5l-17 -7.5q-7 -4 -11 -5q12 0 29 5q12 3 28 11.5t30 29.5q14 17 19.5 33t6.5 27q3 12 -1 23z" />
<glyph unicode="&#xbf;" horiz-adv-x="593" d="M-25 898h632v-1222h-632v1222zM293 433q-12 0 -14.5 -1t-2 -4t3.5 -12t3 -25v-55q-41 -29 -72 -62q-27 -27 -48 -63.5t-15 -75.5q6 -41 25 -66t44 -38t53.5 -18.5t57.5 -5.5q27 0 52 16.5t43.5 37.5t30 42t11.5 32q0 18 3 38.5t-9 28.5q-5 4 -14.5 -1t-17.5 -14.5 t-11.5 -22t1.5 -20.5q12 -15 6 -23t-22 -24q-8 -9 -21.5 -21t-29 -23t-34 -17t-35.5 -2q-35 8 -46 15t-23 27q-7 8 -4 11t6 1q5 -1 14 -6q-12 6 -19 15q-8 9 -12.5 18.5t-4.5 23.5t6.5 33t18 38t24.5 34t25 18q25 9 37.5 12.5t14.5 19.5q4 15 2 24t-2 25v18.5t3 19.5l3 26 q5 7 6 14q3 5 0.5 11.5t-12.5 11.5q-11 2 -15 1.5t-8 -3.5q-2 -4 -2 -9zM341 -18q6 -2 13 -2q12 0 33 5l6 3q15 7 28 18t15 13q10 10 12 17q4 5 7 12q-8 -4 -15 -8q-16 -11 -21 -21q-3 -5 -14.5 -12.5t-25 -13l-25 -10.5t-13.5 -1zM235 139q2 13 7 21q4 10 9.5 17.5 t12.5 13.5q5 5 12 13t12 13l28.5 22.5t23.5 17.5q12 5 12 17q0 6 -2.5 23.5t-2.5 26.5v21q-2 -14 -4 -26q-2 -11 -2.5 -22t0.5 -15q2 -5 -11 -16.5l-28 -24t-29.5 -22.5t-15.5 -13q-3 -4 -8.5 -12.5t-8.5 -19l-6 -21t1 -14.5zM322 543q-1 6 3 11.5t10 8.5q6 4 12 5 q0 12 -3.5 24t-18.5 22q-13 8 -33 11t-28 -9q-10 -14 -20 -33.5t-2 -31.5q18 -26 42 -26q9 0 21.5 -4t19.5 4q5 4 2.5 3.5t-5.5 14.5z" />
<glyph unicode="&#xc0;" horiz-adv-x="594" d="M606 -324h-634v1222h634v-1222zM127 27q7 -2 13 -7t16 7q8 14 13.5 31.5t6.5 26.5t-1.5 18t6.5 9q11 1 15 -7t17 -8q12 0 24 4.5t45 4.5q34 0 49 -2t28 4q12 5 22 14t16 3q5 -2 16.5 -24.5t14.5 -33.5q3 -10 9 -26t25 -19q19 -1 26.5 5t10.5 19q1 14 -10 25t-16 24 q-4 6 -13.5 29.5l-22 53l-24 58t-16.5 44.5q-6 17 -16 42l-21 51l-20 45.5t-10 24.5q0 6 -2 17.5t-5 24.5t-7 24.5t-9 16.5q-14 10 -27 -9.5t-14 -32.5q-4 -12 0.5 -21t4.5 -15q0 -7 -6 -14.5t-10 -17.5q-7 -20 -7 -35q0 -7 -16.5 -43l-31.5 -71q-13 -36 -15 -49.5t-4 -21.5 q0 -10 -6 -28t-15 -32q-3 -7 -12.5 -24.5t-17.5 -35t-11 -32.5t8 -17zM378 234q8 -18 10 -34t0 -30q-2 -9 -9 -10t-18 2t-21.5 5.5t-20.5 2.5q-18 0 -25.5 1.5t-12.5 5.5q-4 1 -13 -2t-28 -10q-21 -8 -28 -7t-17 4q-3 3 0.5 10.5t9.5 17.5l12.5 20t7.5 19q3 9 10.5 29.5 l15.5 41.5l14 36.5t6 17.5q0 4 -5.5 8t-7.5 7q-5 0 2 7.5l15 16.5q3 8 6 14.5t10 3.5q4 -3 16 -27.5l26.5 -54.5t26.5 -57.5t18 -37.5zM253 222l7 18q4 6 7 12.5t6 10.5q2 5 4 23l4 13q-4 -2 -9.5 -14.5t-9.5 -27.5zM303 186q-2 9 -6 16.5t-9 4.5q-6 -3 -13 -3h-8zM211 76 l139 7q-12 4 -34.5 2t-45.5 -3q-29 -4 -59 -6zM205 70q-3 -10 -6 -17q-7 -16 -12 -24l-16 -17q12 10 19 18q8 10 12.5 19.5t2.5 20.5zM500 125q4 -5 0 9t-14.5 40l-24 60l-28.5 69q-32 85 -80 194l72 -183l27.5 -67.5t23.5 -59l16.5 -43.5t7.5 -19zM349 633q-14 7 -26 16.5 t-24 14.5q-13 7 -29.5 21t-24.5 27q-11 12 -25 9.5t-22 -16.5q-10 -14 1.5 -22t19.5 -9q10 -4 14 -7.5t14 -7.5q5 -3 16.5 -10.5l24.5 -15.5l31 -21q11 -5 19 -9q10 -4 16.5 -5.5t10.5 -1.5q8 0 9.5 3t8.5 3q10 0 -5 12.5t-29 18.5zM232 634q8 0 26 -8l19 -11l52 -23l-15 10 q-9 2 -15 6q-17 7 -26 14l-43 27q4 -4 2 -9.5t0 -5.5z" />
<glyph unicode="&#xc1;" horiz-adv-x="594" d="M604 -324h-634v1222h634v-1222zM125 26q7 -1 13 -6.5t15 6.5q9 15 14 32.5t7 26.5q3 9 0 18t5 9q11 1 16 -7t17 -8t24.5 4.5t43.5 4.5q33 0 48 -2t27 4q13 5 23.5 14t16.5 3q5 -4 16 -25.5t15 -32.5q1 -11 7.5 -26.5t26.5 -19.5q19 -2 26 4.5t11 21.5q1 13 -10.5 23.5 t-17.5 24.5q-2 6 -11.5 29.5t-22.5 53t-24 58t-16 44.5q-6 17 -16.5 42l-21 51t-19.5 46t-11 26q0 4 -1.5 15.5t-4 25t-7 25t-9.5 15.5q-15 10 -27 -10t-14 -32q-3 -12 1 -21t4 -16q0 -6 -6 -13t-9 -18q-7 -19 -7 -35q0 -7 -17 -43t-30 -71q-15 -36 -16.5 -49.5t-4.5 -21.5 q0 -9 -6 -27.5t-14 -32.5q-4 -8 -13.5 -25t-18 -34.5t-11 -32.5t8.5 -18zM374 234q10 -18 12 -34t-1 -31q-1 -8 -8 -9t-17.5 1t-22.5 5t-20 3q-17 0 -25 2t-13 5q-5 2 -13.5 -1t-27.5 -12q-19 -6 -27.5 -5t-16.5 4q-4 1 -0.5 9.5t9.5 18t12 20.5t9 19q1 9 9.5 29.5t16 41.5 l13.5 36.5t6 17.5q0 4 -5 8l-9 7q-4 0 3.5 7.5t14.5 16.5l7 14t9 4q4 -2 16 -27l25.5 -55l26.5 -57.5t17 -37.5zM251 222l8 18l6 12.5t7 10.5q1 5 4 23l3 13q-5 -2 -10 -15t-8 -27q-6 -16 -10 -35zM301 187q-1 6 -6 14.5t-9 5.5q-6 -3 -13 -3h-7zM209 76l140 7 q-13 3 -36 1.5t-45 -3.5q-29 -3 -59 -5zM202 68q-1 -8 -5 -15q-7 -16 -12 -24l-17 -16q14 8 21 17q7 8 12 18.5t1 19.5zM498 125q4 -5 -0.5 9t-14 39.5t-24 60l-28.5 69.5l-81 193l72 -182l28 -67.5l23.5 -59l17 -43.5t7.5 -19zM196 626q6 0 8 -3t11 -3q4 0 10.5 2t16.5 6 q7 2 17 8q15 12 30 21l24.5 16.5t17.5 9.5q11 4 14.5 7.5t12.5 7.5q8 2 20.5 9.5t3.5 21.5t-24 17t-23 -10q-11 -12 -28 -26t-28 -21q-11 -6 -22.5 -15.5t-25.5 -16.5q-15 -5 -30 -18t-5 -13zM347 672l-42 -25q-11 -7 -26 -14q-6 -4 -15 -7l-14 -8l50 22l20 11q18 8 24 8 q3 0 1 5.5t2 7.5z" />
<glyph unicode="&#xc2;" horiz-adv-x="587" d="M598 -324h-634v1222h634v-1222zM119 27q6 -2 12.5 -7.5t15.5 7.5q8 14 13.5 32t7.5 26q2 9 -0.5 18t5.5 9q11 1 15.5 -7t17.5 -8q12 0 24 5t45 5t47.5 -2t27.5 3q12 5 23 14t16 4q5 -4 16 -26t15 -33q2 -11 8 -26.5t26 -19.5q19 -1 26 5t11 21q1 13 -10.5 23.5 t-16.5 25.5q-3 5 -12.5 29t-22.5 53t-24 57.5t-16 44.5q-5 17 -16 42t-21 50.5t-19 46t-12 25.5q0 5 -1.5 16.5t-4 25t-6.5 25t-10 15.5q-14 9 -26.5 -10.5t-15.5 -31.5t1.5 -21t4.5 -16t-6.5 -13.5t-8.5 -17.5q-7 -19 -7 -35q0 -7 -17 -43t-31 -71q-15 -36 -16 -49.5 t-4 -21.5q0 -9 -6 -27.5t-14 -32.5q-4 -8 -13.5 -25t-18 -34.5t-11 -32.5t8.5 -17zM369 234q9 -17 11 -33.5t0 -31.5q-2 -8 -8.5 -8.5t-17.5 1.5t-22.5 4.5t-19.5 2.5q-18 0 -25.5 2t-13.5 5q-5 3 -14 -0.5t-28 -11.5q-19 -7 -27 -5.5t-16 3.5q-4 2 -0.5 10t9.5 17.5 t12 20.5t9 19q1 9 9 29.5l15.5 41.5t14 36.5t6.5 17.5q0 4 -5 8t-9 6q-4 0 3.5 7.5t14.5 17.5q5 8 7.5 14t8.5 4q4 -2 16.5 -27t26 -55l26.5 -57.5t17 -37.5zM245 222l8 18q3 6 5.5 12.5t6.5 10.5q2 5 6 23l2 13q-5 -2 -10.5 -15t-8.5 -27q-5 -16 -9 -35zM295 187 q-1 6 -5.5 14.5t-9.5 5.5t-13 -3h-7zM203 77l140 7q-12 2 -35 1t-47 -4q-28 -3 -58 -4zM196 69q-1 -9 -5 -15q-7 -17 -13 -25l-16 -16q14 8 20 18q7 8 12.5 18t1.5 20zM492 126q4 -6 -0.5 8.5t-14 39.5t-24 59.5t-27.5 69.5l-82 193l72 -182l28 -67.5l24 -59t17 -43.5t7 -18 zM55 626q8 0 8.5 -2.5t9.5 -2.5q4 0 10.5 2l16.5 5q8 3 19 8q16 12 31 22q12 8 25 15.5l18 10.5q8 4 12.5 7t13.5 8q8 1 19.5 8.5t3.5 22.5q-9 13 -22.5 16t-24.5 -9q-10 -13 -26 -27t-29 -21q-12 -5 -25 -14.5t-26 -16.5q-14 -6 -29 -19t-5 -13zM208 673l-42 -26 q-11 -7 -26 -14q-8 -4 -16 -7l-13 -8l50 22l21 11q18 8 25 8q1 0 0 5.5t1 8.5zM487 665q-14 6 -25.5 15.5t-23.5 15.5q-12 7 -29 21t-27 26q-9 13 -24 10t-23 -16q-10 -14 2.5 -22t21.5 -10q8 -4 11.5 -7.5t14.5 -7.5q4 -2 16 -9.5l26 -15.5q16 -10 33 -22q8 -6 17 -8 q18 -7 26 -7t9.5 2.5t9.5 2.5q10 0 -5 13t-30 19zM371 666q2 0 7 -1l8 -4t8 -3l21 -11l51 -22l-15 8q-8 3 -14 7q-17 7 -28 14l-42 27q6 -4 3 -9.5t1 -5.5z" />
<glyph unicode="&#xc3;" horiz-adv-x="587" d="M602 -324h-634v1222h634v-1222zM122 28q8 -2 14 -7.5t14 8.5q10 12 14.5 31t7.5 27q1 10 -1.5 17.5t6.5 8.5q8 3 13.5 -6t17.5 -9q13 0 25 5.5t46 5.5t47.5 -2.5t26.5 2.5q13 4 24.5 13t15.5 6q3 -1 7.5 -9.5t9.5 -17t9 -18t4 -15.5q3 -10 9 -26t25 -20q20 -1 27 5t8 20 q4 15 -8 25.5t-18 24.5q-4 7 -13.5 30l-20.5 52l-22.5 57t-16.5 44q-4 17 -15 42l-22 50.5l-19.5 46t-10.5 24.5l-3 17.5t-4.5 24.5t-6 24.5t-10.5 16.5q-5 6 -12 1.5t-14 -12t-11 -17t-5 -14.5q-3 -11 2 -20.5t5 -14.5q0 -8 -6.5 -15t-10.5 -18q-6 -19 -6 -35q0 -7 -18 -43 t-31 -71q-14 -36 -15 -49.5t-3 -21.5q-3 -9 -7.5 -27t-14.5 -34q-4 -6 -13.5 -23.5t-17 -35t-9.5 -32.5t7 -16zM374 236q16 -33 9 -67q0 -7 -8 -7.5t-19 1.5t-22.5 4.5t-17.5 2.5q-30 0 -41 6q-6 3 -14.5 -1.5t-27.5 -10.5t-26.5 -4.5t-15.5 4.5q-4 1 0 8.5t10 17t12 20.5 t8 19q1 9 9 29.5l16 41.5l14.5 37.5t6.5 18.5q0 3 -5.5 7t-9.5 5q-4 2 2.5 9.5l13.5 15.5q7 11 9 17t10 2q4 -2 16.5 -26t26.5 -55.5l26 -59t18 -35.5zM249 222l7 18q4 6 6.5 13.5t4.5 10.5l6 22l5 13q-6 -2 -11.5 -15t-9.5 -27q-5 -16 -8 -35zM301 187l-7 14.5t-11 6.5 q-5 -2 -14 -2h-6zM207 79l138 4q-12 4 -33.5 3.5t-46.5 -3.5q-28 -1 -58 -4zM199 70q-3 -8 -7 -17l-12 -24q-3 -3 -5.5 -5t-5.5 -6q-3 -3 -3 -5q13 11 19 20q17 19 14 37zM496 127q4 -4 -0.5 9.5t-14 38l-24 59t-27.5 69.5q-33 84 -81 193l72 -182l27 -67.5l24 -59t17 -43 t7 -17.5zM150 663q-5 -18 6.5 -23t22.5 -8q10 -4 17.5 -4t15.5 9q5 10 6 17.5t4 9.5l11 11t16 11q11 6 23 6t18 -5q1 -2 9 -10.5t18.5 -18t23 -17.5t25.5 -9q12 -3 25.5 4t26 14.5t22 15.5t10.5 12q4 4 2 15.5t-5 15.5q-4 4 -8 -0.5t-8 -10.5l-10 -13v-7q0 -10 -8 -18 q-9 -9 -10.5 3t-9.5 16q-7 3 -13 -4.5t-24 -0.5q-17 8 -32 33t-40 28q-12 0 -27 -5t-30 -13t-25.5 -16t-16.5 -14t-13 -6q-4 0 -4 1q-3 -1 -7 -4q-4 -4 -7 -7.5t-4 -7.5zM472 700v-14q0 -12 -4 -23q-3 -8 -8.5 -11t-14.5 -7q-8 -2 -15 -7.5t-14 -8.5q-3 -1 5.5 1t20 7.5 t21.5 13t14 17.5q11 45 -9 37zM283 662q-3 1 -5 2q-5 3 -17 3q-12 -3 -17 -5l-7 -4z" />
<glyph unicode="&#xc4;" horiz-adv-x="610" d="M619 -324h-634v1222h634v-1222zM139 27q8 -1 14 -6.5t14 6.5q10 14 14.5 31.5t7.5 27.5q1 8 -1.5 17t7.5 9q9 1 14 -6.5t17 -7.5t24 4t45 4q34 0 49 -1.5t27 4.5q13 4 23.5 13t14.5 4q6 -4 17.5 -25.5t15.5 -32.5q1 -11 7 -26.5t25 -19.5q20 -1 27 5t11 19 q1 15 -10.5 25.5t-16.5 25.5q-3 4 -13.5 27t-22 52.5l-23 58.5l-17.5 45q-4 17 -14.5 42l-21.5 50.5l-20 46t-10 25.5q0 5 -2 16.5t-4 24.5t-7 24.5t-10 16.5q-14 9 -27 -10t-14 -32q-4 -12 0.5 -20.5t4.5 -17.5q0 -6 -6 -12.5t-10 -17.5q-7 -19 -7 -35q0 -7 -17 -43 t-30 -71q-15 -36 -16.5 -49.5t-2.5 -21.5q0 -9 -6.5 -27.5t-15.5 -33.5q-4 -6 -13.5 -23.5t-17.5 -35t-10 -32.5t7 -17zM390 234q10 -18 11.5 -34.5t-0.5 -30.5q-1 -8 -8.5 -9.5t-17.5 1l-21.5 5.5t-21.5 3q-18 0 -25.5 2t-12.5 5q-4 2 -13 -2t-29 -11q-19 -6 -27.5 -5.5 t-16.5 4.5q-4 1 0 9.5t10 18l12.5 20.5t7.5 19q1 9 9.5 29.5l16.5 41.5l14 36.5t6 17.5q0 4 -5.5 8.5t-9.5 6.5q-2 0 4.5 8l13.5 16q4 10 7 16t10 2q4 -2 16 -27l26.5 -55t26.5 -57.5t17 -37.5zM267 222l6 18q4 6 7 12.5t6 10.5q1 5 4 23l4 13q-4 -2 -9.5 -15t-9.5 -27 q-6 -16 -8 -35zM317 187l-7 14.5t-9 4.5q-6 -2 -14 -2h-7zM224 76l141 7q-13 4 -36 2t-46 -3zM216 69q-1 -8 -4 -16l-13 -24l-15 -17q12 10 19 18l11.5 19.5t1.5 19.5zM513 126q4 -5 -0.5 8l-14 39t-24 60.5t-27.5 69.5q-33 85 -81 194l72 -183l27 -67.5l23.5 -59l17 -43 t7.5 -18.5zM209 717q-2 0 -6 -3q-6 -1 -18 -8.5t-12 -25.5q0 -8 2 -13.5t2 -9.5v-13q0 -7 1 -13q0 2 2 6q2 3 2 5.5t3 6.5q1 6 4 16t7 22q0 -3 -0.5 -5t-0.5 -4q-3 -15 3 -20.5t5 -12.5q-6 -3 -8 -7q-10 -5 -10 -12q0 -19 27 -22q14 -2 33.5 6.5t22.5 44.5q1 17 -5.5 29.5 t-17.5 19t-20.5 10t-15.5 3.5zM350 626q0 -19 27 -22q13 -2 33 6.5t23 44.5q2 17 -5.5 29.5t-17.5 19t-20 10t-16 3.5q-8 0 -10.5 -13t-4.5 -26q0 -9 3.5 -11.5t9 -4t9 -3.5t3.5 -4l-18 -11q-16 -10 -16 -18zM352 707q-4 -4 -8 -9q-7 -11 -7 -18q0 -8 2.5 -13.5t2.5 -9.5 v-13q0 -7 1 -13q0 2 1 6q3 3 3 5.5t3 6.5q2 8 -0.5 29t2.5 29z" />
<glyph unicode="&#xc5;" horiz-adv-x="611" d="M619 -324h-634v1222h634v-1222zM140 26q7 -1 13 -6.5t15 6.5q9 15 14 32.5t7 26.5q3 9 0 18t5 9q11 1 16 -7t17 -8t24.5 4.5t42.5 4.5q34 0 49 -2t27 4q13 5 23.5 14t16.5 3q5 -4 16 -25.5t15 -32.5q1 -11 7.5 -26.5t26.5 -19.5q19 -2 26 4.5t11 21.5q1 13 -10.5 23.5 t-17.5 24.5q-2 6 -11.5 29.5t-22.5 53t-24 58t-16 44.5q-6 17 -16.5 42l-21 51t-19.5 46t-11 26q0 4 -1.5 15.5t-4 25t-7 25t-9.5 15.5q-15 10 -27 -10t-14 -32q-3 -12 1 -21t4 -16q0 -6 -6 -13t-9 -18q-7 -19 -7 -35q0 -7 -17 -43t-30 -71q-15 -36 -16.5 -49.5t-4.5 -21.5 q0 -9 -6 -27.5t-14 -32.5q-4 -8 -13.5 -25t-18 -34.5t-11 -32.5t8.5 -18zM389 234q10 -18 12 -34t-1 -31q-1 -8 -8 -9t-17.5 1t-22.5 5t-20 3q-17 0 -25.5 2t-13.5 5q-4 2 -12.5 -1t-27.5 -12q-19 -6 -27.5 -5t-16.5 4q-4 1 -0.5 9.5t9.5 18t12 20.5t9 19q1 9 9.5 29.5 t16 41.5l13.5 36.5t6 17.5q0 4 -5 8l-9 7q-4 0 3.5 7.5t14.5 16.5q3 8 6 14t10 4q4 -2 16 -27l25.5 -55l26.5 -57.5t17 -37.5zM266 222l8 18l6 12.5t7 10.5q1 5 3 23l3 13q-4 -2 -9 -15t-8 -27q-6 -16 -10 -35zM316 187q-1 6 -6 14.5t-10 5.5q-6 -3 -12 -3h-7zM224 76l140 7 q-13 3 -36 1.5t-45 -3.5q-29 -3 -59 -5zM217 68q-1 -8 -5 -15q-7 -16 -12 -24l-17 -16q14 8 21 17q7 8 12 18.5t1 19.5zM513 125q4 -5 -0.5 9t-14 39.5t-24 60l-28.5 69.5l-81 193l72 -182l28 -67.5l23.5 -59l17 -43.5t7.5 -19zM362 633q-15 7 -27 16.5t-24 14.5 q-13 7 -29 21.5t-24 26.5q-11 12 -25 9.5t-22 -16.5q-10 -15 1.5 -22.5t21.5 -10.5q8 -2 12.5 -5.5t13.5 -7.5q5 -4 16.5 -11l23.5 -15l32 -22q10 -5 19 -9q8 -3 15.5 -5t10.5 -2q10 0 10.5 2.5t7.5 2.5q11 0 -4 14t-29 19zM246 634q7 0 24 -9l20 -10l50 -23l-13 8 q-10 4 -16 7q-17 8 -24 15l-42 26q2 -3 1 -8.5t0 -5.5z" />
<glyph unicode="&#xc6;" horiz-adv-x="880" d="M896 898v-1222h-913v1222h913zM766 35q0 6 -0.5 14.5t-3 17t-6 15.5t-9.5 9q-7 2 -18.5 -0.5t-24.5 -7l-25.5 -9t-20.5 -5.5t-29.5 0.5t-46 4l-45 4.5t-24.5 2t-11 -1l-14 -2t-13.5 -1.5t-10.5 0.5q-3 1 -3 6t1.5 10.5l3 10.5t1.5 7q0 4 -1.5 13.5t-3.5 16.5 q-2 3 -2.5 18.5t0.5 33t3 32t5 15.5q8 3 19 1t18 2q4 0 18.5 0.5t31 0.5h31.5t20 -1q5 -2 8.5 -4t7 -3t9 -1t15.5 2q20 5 25 15.5t5 29.5q2 20 -10 26t-22 8q-6 2 -13 0.5t-15 -4t-15 -5.5t-13 -3q-5 -1 -16 0l-23 2t-23 1.5t-15 0.5q-5 0 -13.5 -0.5t-16.5 -1.5 q-10 -1 -21 -2v65q0 25 0.5 46.5t2.5 26.5q46 1 84 3q16 1 32 1.5t29.5 1t23.5 1t13 0.5q14 0 32.5 -2.5t33.5 -1.5q17 2 24.5 12.5t8.5 21.5t-8 27t-16 20q-8 5 -22 2t-23 -8q-5 -3 -16.5 -5t-25.5 -3.5t-27.5 -2t-20.5 -0.5q-6 0 -25.5 1t-42 1.5t-44 0.5t-32.5 -3l2 1 q-6 5 -18.5 2t-26 -10.5t-24.5 -16t-14 -14.5q-5 -11 -3.5 -19.5t0.5 -13.5q-3 -8 -11 -14.5t-16 -15.5q-8 -11 -11.5 -18.5t-6.5 -15.5q0 -3 -8.5 -13.5l-20.5 -25.5l-26.5 -32.5t-26.5 -34.5t-19 -28.5l-11 -18.5t-6 -11.5t-4 -7.5q-2 -8 -13.5 -24t-24.5 -32l-21.5 -21.5 t-29 -32.5t-20 -31t3.5 -16q3 0 7 -3t9.5 -5t13 -2t16.5 5q-6 -4 -8 -5t-3 -2q14 8 26 17q10 8 19 17.5t11 18.5l-13 -15q-5 -6 -10.5 -12t-10.5 -9q14 10 23.5 26t11.5 24q4 8 4 16t11 8q5 1 8 -1t5.5 -4.5t5.5 -5t8 -2.5q7 0 13.5 1.5t15.5 3t20.5 2t28.5 -0.5 q18 0 30 -0.5t21 -1t15.5 0.5t13.5 4q6 1 16.5 3t21.5 5q2 -26 4.5 -49.5t2.5 -26.5q0 -5 7.5 -18.5t17.5 -15.5q4 0 18.5 -0.5t35 -0.5t44 -0.5t43.5 -0.5h34.5h18.5q6 0 18 -2t25 -4.5t24.5 -4.5t16.5 -2q3 0 9.5 3t13 8t12 10.5t6.5 11.5zM412 375q1 -11 3 -28t3.5 -34 t2.5 -31t0 -19q-1 -3 -3 -10.5t-3.5 -17l-3 -19.5t-1.5 -19v-12.5t1 -17.5q-15 3 -30.5 5.5t-24.5 2.5q-20 0 -28 2t-13 3q-6 4 -17 0.5t-32 -8.5q-22 -7 -30 -5.5t-14 4.5q-4 1 1.5 7.5t14.5 15.5t18.5 19.5t14.5 18.5q4 8 17.5 27l28 38.5l26.5 34.5t13 17q0 4 -5 8t-9 4 q-3 1 7 8t20 16q5 5 19.5 14.5t26.5 14.5q-2 -12 -2.5 -22t-0.5 -17zM513 356q-6 16 -6.5 32t4.5 20q2 2 13 4.5t24 4.5q14 3 32 5h-95q-1 -16 -1 -28q0 -11 -0.5 -20.5t1.5 -12.5q0 -8 -4 -18q-2 -4 -3 -9q26 1 47 2q18 1 33.5 1.5t17.5 1.5q3 1 -5.5 1t-20.5 0.5t-23 4 t-14 11.5zM513 208q-4 0 -5 -2q-2 0 0 0t5 2q7 1 18.5 2t22 1.5t17.5 1.5t5 1q-5 3 -13.5 2.5t-17.5 -2t-18 -3.5t-14 -3zM498 144q-1 17 -3 31t-4 24l-6 21q0 -5 0.5 -21t1.5 -34q1 -21 3 -46l12 1q0 2 -1 9t-3 15zM502 120q1 -4 2.5 -4t3.5 2t3 4zM356 96q-12 3 -37 3 t-51 -2q-30 -2 -63 -5zM353 297q-8 -3 -17 -14.5t-18 -24.5q-11 -15 -21 -33q7 8 13 16q5 6 11 12.5t9 9.5q3 4 6.5 10t7.5 11zM339 191q2 8 -0.5 14.5t-10.5 4.5q-4 -1 -8 -1h-7h-8z" />
<glyph unicode="&#xc8;" horiz-adv-x="594" d="M611 -324h-634v1222h634v-1222zM360 447q13 0 31.5 -1t34.5 0q16 0 23 11.5t8 21.5q3 11 -6 28t-18 19q-7 4 -21 1.5t-23 -8.5q-5 -2 -16.5 -4t-26 -3t-27 -2t-19.5 -1t-28.5 1l-45 2t-45.5 0t-30 -6q-7 -4 -11 -20.5t-6.5 -37.5t-4 -41.5t-1.5 -31.5q0 -10 2 -28t4 -34 t2.5 -30.5t-0.5 -18.5q-3 -8 -7 -29t-4 -38q0 -8 1.5 -31t4 -47.5l4.5 -45t2 -22.5q0 -4 8.5 -18t17.5 -15q6 0 35 -0.5t62 -2t61.5 -1.5h34.5q5 0 17 -1.5t26 -4t24 -4.5t15 -2q9 0 25 10.5t18 20.5q1 14 -3 33t-16 24q-7 1 -18.5 -1.5t-25.5 -6.5t-26 -9t-19 -5 q-8 -1 -30.5 1t-45 4.5t-43 4t-26.5 1.5q-8 0 -23.5 -3.5t-23.5 0.5q-7 3 -2 16.5t5 16.5q0 4 -1.5 13.5t-4.5 19.5q-3 2 -3.5 17t1.5 33l3.5 32t5.5 16q7 1 17.5 -0.5t19.5 0.5q4 1 18 2.5t30 1.5t30.5 -1.5t19.5 -2.5q11 -3 16.5 -5t24.5 2q19 3 24.5 14.5t5.5 30.5 q1 17 -11 23.5t-23 10.5q-10 2 -27 -4.5t-27 -8.5h-16.5t-21.5 1.5t-22 1.5h-16q-5 -1 -12.5 -1h-17.5q-8 0 -22 -2v66q0 24 1.5 46t2.5 26q47 1 85 4q30 1 58.5 1.5t37.5 0.5zM294 423h-93v-29q0 -10 -1 -19.5t1 -12.5q0 -8 -4 -18l-4 -11q27 2 48 3q20 3 33 3t17 1 q2 0 -5 -0.5t-19.5 0.5t-24 4t-14.5 12q-5 15 -5.5 32t4.5 21q4 2 14.5 3t22.5 6q15 4 30 5zM349 340l28 -19l-9.5 7t-7.5 7zM223 207q3 1 14.5 2t24.5 3t22 2.5t7 0.5q-5 4 -17 2t-24 -4.5t-20 -4t-7 -1.5zM201 219v-21t2 -35q1 -20 4 -44l20 1q-4 -5 -5 -5q-6 0 -7 29 q-2 18 -3 32.5t-4 22.5q-4 11 -7 20zM361 633q-14 7 -26.5 16.5t-25.5 14.5q-12 7 -27.5 21.5t-24.5 26.5q-11 12 -24.5 9.5t-23.5 -16.5q-8 -15 3 -22.5t20 -10.5q9 -2 13.5 -5.5t12.5 -7.5l17 -11t25 -15l31 -21q11 -5 19 -9l16.5 -5t10.5 -2q8 0 9 2.5t9 2.5 q9 0 -5.5 13.5t-28.5 18.5zM245 634q7 0 24 -8l21 -10l49 -23l-13 8q-9 4 -17 7q-15 8 -25 15l-41 25q3 -3 1.5 -8.5t0.5 -5.5z" />
<glyph unicode="&#xc9;" horiz-adv-x="601" d="M611 -324h-634v1222h634v-1222zM360 447q13 0 32 -2t34 1q17 0 23.5 11t8.5 21q2 11 -6.5 28t-18.5 20q-7 4 -21 1.5t-22 -8.5q-6 -4 -17.5 -5.5t-25 -2.5l-27 -2t-20.5 -1t-28.5 1t-45.5 2t-46 0t-29 -5t-11.5 -21t-7 -38.5t-3.5 -41t-1 -30.5t2 -28.5t3.5 -33.5 t2.5 -30.5t-1 -18.5q-2 -8 -6 -29t-4 -38q0 -8 1.5 -31t4 -47.5l4.5 -45t2 -21.5q0 -5 7.5 -18t18.5 -16q5 0 34.5 -0.5t62.5 -1.5t62.5 -1h33.5q5 0 17.5 -2t26 -4.5t23.5 -4t16 -1.5q9 0 24.5 10.5t17.5 20.5q2 13 -2.5 32t-16.5 24q-7 3 -18.5 0t-24.5 -7.5l-25 -8.5 t-21 -4q-8 -3 -29.5 -1t-45.5 5t-44 5t-26 2q-8 0 -24.5 -4.5t-22.5 0.5q-7 4 -3 16.5t4 16.5q0 3 -0.5 12.5t-4.5 19.5q-2 2 -2.5 17t1 33t3.5 32t6 15q7 3 17 1t19 -1q3 3 17.5 4t31.5 1t31.5 -1t20.5 -4q9 -2 14.5 -4t24.5 2q21 2 25.5 14t4.5 31q3 17 -10 23t-22 11 q-11 2 -28 -4.5t-27 -8.5h-16.5t-23 1.5t-22 1.5h-15.5q-6 -1 -14 -1h-16q-10 0 -22 -2v65q0 25 1 46.5t3 25.5q45 2 84 3q32 3 61 3.5t36 0.5zM295 423h-95v-29q0 -11 -1 -20.5t1 -11.5q0 -8 -3 -18l-4 -11q27 2 47 3q19 3 33.5 3t18.5 1q1 0 -7 -0.5t-20 0.5t-23.5 4 t-13.5 12q-5 15 -6 32t5 20q3 3 13.5 4t22.5 5q14 3 32 6zM349 340l29 -19q-5 3 -9.5 7t-8.5 7zM223 207q1 1 12.5 2t25 3t23 2.5t8.5 0.5q-5 4 -17.5 2t-25.5 -4.5l-20.5 -4t-5.5 -1.5zM200 219v-20.5t2 -33.5q2 -22 3 -46l22 1q-4 -5 -6 -5q-5 0 -6 29q-3 18 -3.5 32.5 t-5.5 23.5q-2 10 -6 19zM209 626q7 0 9 -2.5t10 -2.5q4 0 11 2t15 5l18 9q16 13 32 21l25.5 16t16.5 11q10 3 14 6t12 7q10 2 22 10t3 22q-9 15 -23.5 17t-24.5 -11q-11 -12 -27 -25.5t-29 -21.5q-12 -4 -23.5 -14.5t-25.5 -16.5t-29 -19t-6 -13zM361 674l-42 -27 q-11 -7 -26 -14q-6 -4 -16 -7l-14 -9l51 23l21 11q18 8 25 8q1 0 0 5.5t1 9.5z" />
<glyph unicode="&#xca;" horiz-adv-x="597" d="M611 -324h-634v1222h634v-1222zM359 448q14 0 33 -2.5t34 0.5q16 0 23 11t8 22q3 11 -6 28t-18 19q-7 5 -21 2t-23 -8q-5 -4 -16.5 -5.5t-25 -3t-27.5 -2t-20 -0.5q-7 0 -28.5 0.5t-45 2t-46 0t-29.5 -5.5t-11.5 -21t-6.5 -38t-3.5 -41t-1.5 -31q0 -10 2 -28t3.5 -34 t2.5 -30.5t-1 -18.5q-2 -8 -6 -29t-4 -38q0 -8 1.5 -31t4 -47.5l4.5 -45t2 -21.5q0 -6 7.5 -18.5t18.5 -15.5q6 0 35 -0.5t62 -1.5t62 -1h33q6 0 18 -2t25.5 -4.5t24 -4t15.5 -1.5q10 0 25.5 10t16.5 21q3 12 -1.5 31.5t-17.5 24.5q-6 3 -17.5 0t-24.5 -7.5l-25.5 -8.5 t-20.5 -4q-8 -3 -30 -1t-45 4.5t-43.5 4.5t-25.5 2q-9 0 -25 -4t-23 0t-3 17t4 17q0 3 -0.5 12.5t-4.5 17.5q-1 3 -2 18.5t0.5 33.5t3.5 32t6 16q7 2 17 0t20 0q2 2 16.5 3t31 1t31.5 -1t20 -3q10 -3 15.5 -5t24.5 2q20 3 25 14.5t5 30.5q2 17 -10.5 23.5t-22.5 10.5 q-11 2 -28 -5.5t-26 -7.5h-17t-22.5 1.5t-21.5 1.5h-16q-5 -1 -13.5 -1h-16.5q-9 0 -21 -2v66q0 24 0.5 46t3.5 26q44 1 84 2q30 3 59.5 4t35.5 1zM294 423h-94v-28q0 -11 -0.5 -20.5t0.5 -12.5q0 -8 -3 -18l-4 -11q27 2 48 3q19 3 32.5 3t17.5 1q2 0 -5.5 -0.5t-20 1t-24 4 t-12.5 11.5q-6 15 -6.5 32t4.5 20q3 3 14 4.5t23 5.5q14 2 30 5zM349 340l28 -19q-4 3 -8.5 7t-9.5 7zM223 207q1 1 13 2t25.5 3t22.5 2.5t7 0.5q-5 4 -16.5 2t-24.5 -4.5l-20.5 -4t-6.5 -1.5zM200 219v-20.5t3 -33.5l2 -46l22 1q-4 -6 -5 -6q-6 0 -7 30q-3 18 -3.5 32.5 t-4.5 23.5q-3 10 -7 19zM60 626q7 0 9 -2.5t10 -2.5q4 0 11 2t15 4q8 4 17 10q17 12 33 20q14 10 25.5 16.5t16.5 11.5q10 2 14 5.5t12 7.5q10 1 22 9.5t3 21.5q-9 15 -23.5 17t-24.5 -10t-27 -25.5t-29 -21.5q-12 -4 -23.5 -14.5t-25.5 -17.5q-15 -5 -30 -18t-5 -13z M212 674l-42 -28q-9 -6 -26 -13q-7 -4 -16 -7l-14 -9l51 23l21 11q18 8 25 8q1 0 0 5.5t1 9.5zM491 664q-13 7 -24.5 17t-24.5 16q-12 7 -29 20.5t-28 26.5q-8 13 -23 10t-24 -18q-8 -13 4 -21.5t22 -9.5q8 -4 11 -7.5t14 -6.5q4 -4 16.5 -10.5t26.5 -16.5q16 -8 31 -20 q9 -6 17 -10q18 -7 28 -7q8 0 10 3t9 3q8 0 -7 13t-29 18zM376 667q1 0 7 -3q2 -1 7 -3t8 -4l21 -11l52 -21l-15 8q-8 4 -15 7q-16 6 -27 15l-42 25q5 -4 2.5 -8.5t1.5 -4.5z" />
<glyph unicode="&#xcb;" d="M611 -324h-634v1222h634v-1222zM361 446q13 0 31.5 -1t34.5 0q15 0 22 11.5t8 21.5q3 11 -6 28t-17 19q-7 4 -21 1.5t-23 -8.5q-5 -2 -16.5 -4t-26 -3t-27 -2t-19.5 -1q-8 0 -30 1l-45.5 2t-45.5 0t-30 -6q-7 -4 -11 -20.5t-6.5 -37t-3.5 -41t-1 -31.5q0 -10 1.5 -28 t3.5 -34t2.5 -30.5t-0.5 -18.5q-3 -8 -6.5 -29t-3.5 -38q0 -8 1.5 -31t3.5 -47t4 -44.5t2 -22.5q0 -4 8.5 -18t17.5 -15q6 0 35 -0.5t62.5 -2t62.5 -1.5h35q5 0 17 -1.5t26 -4t24 -4.5t14 -2q9 0 25 10.5t18 20.5q1 14 -3 33t-16 24q-7 1 -18 -1.5t-25 -6.5t-26 -9t-19 -5 q-8 -1 -30.5 1t-46 4.5t-44 4t-26.5 1.5q-8 0 -23.5 -3.5t-23.5 0.5q-7 3 -2 16.5t5 16.5q0 4 -1.5 13.5t-4.5 18.5q-3 2 -3.5 17t1.5 33l3.5 32t5.5 16q7 1 17.5 -0.5t19.5 0.5q4 1 18 2.5t30.5 1.5t31.5 -1.5t20 -2.5q11 -3 16.5 -5t24.5 2q19 3 24.5 14.5t5.5 30.5 q1 17 -11 23.5t-23 10.5q-10 2 -27 -4.5t-27 -8.5h-17.5t-22.5 1.5t-22 1.5h-16q-5 -1 -12.5 -1h-17.5q-8 0 -22 -2v66q0 24 1.5 46t2.5 25q47 1 85 4q32 1 60.5 1.5t37.5 0.5zM295 423h-95v-29q0 -10 -1 -19.5t1 -12.5q0 -8 -4 -18l-4 -11q27 2 48 3q20 3 33.5 3t17.5 1 q2 0 -5.5 -0.5t-20 0.5t-24 4t-14.5 12q-5 15 -5.5 32t4.5 21q4 2 14.5 3t22.5 6q15 4 32 5zM350 340l28 -19l-9.5 7t-7.5 7zM222 207q3 1 14.5 2t24.5 3t22.5 2.5t7.5 0.5q-5 4 -17.5 2t-24.5 -4.5t-20 -4t-7 -1.5zM200 219v-21t2 -35q1 -20 4 -43l20 1q-4 -5 -5 -5 q-6 0 -7 28q-2 18 -3 32.5t-4 22.5q-4 11 -7 20zM333 626q0 -19 28 -21q13 -4 33 5t22 44q2 18 -5 30.5t-18 19.5t-20.5 10.5t-14.5 3.5q-8 0 -11 -13.5t-4 -27.5q0 -6 3.5 -9t9 -5t8.5 -3.5t3 -5.5l-17 -10q-17 -9 -17 -18zM335 707q-3 -4 -7 -8q-7 -11 -7 -17 q0 -10 2 -15.5t2 -8.5v-14q0 -7 2 -13q0 3 1 6q3 4 3 6.5t2 5.5q2 9 0 30.5t2 27.5zM195 718q-4 0 -7 -4q-5 -1 -17.5 -8t-12.5 -24q0 -10 1.5 -15.5t1.5 -8.5v-14q0 -7 1 -13q0 3 3 6q1 4 1 6.5t4 5.5q2 5 4.5 16t5.5 23q0 -4 -1 -5t-1 -6q-1 -13 5 -18.5t5 -12.5l-10 -8 q-8 -4 -8 -12q0 -19 26 -21q14 -4 33.5 5t23.5 44q2 18 -5.5 30.5t-18 19.5t-20 10.5t-14.5 3.5z" />
<glyph unicode="&#xcc;" d="M614 -324h-634v1222h634v-1222zM373 525l3 -4q3 -1 10 3q19 7 0 12q-11 3 -17.5 -3.5t-11.5 -8.5q-7 -4 -13 -13t-33 -13q-26 -3 -40.5 -2t-28.5 1q-6 0 -17 2t-20 0.5t-17 -7.5t-9 -19q-2 -13 7 -18t20.5 -5.5t22.5 -0.5t15 -3q17 -22 17 -75q0 -13 1 -55t2.5 -89t2 -86 t0.5 -44q-1 -12 -6 -23t-16 -14q-9 -3 -15.5 0t-14.5 3q-2 0 -9.5 -7.5t-12.5 -16.5l-9 -16.5t0 -10.5q5 -5 33 -2.5t46 2.5h35.5t32.5 -2q14 -4 31.5 -3.5t25.5 14.5q10 9 12.5 25.5t-4.5 23.5q-8 5 -14 5.5t-11 0.5q-7 -1 -14.5 6t-15.5 7q-7 0 -17.5 -9t-15.5 -8 q-4 0 -4.5 10.5t-1.5 23.5t-1 25v19v258v19.5t7 10.5q11 10 25 3q5 -3 21.5 -6.5t25.5 3.5q8 10 16.5 19.5t4.5 18.5q-2 10 -8.5 17.5t-13.5 9.5q-6 3 -11.5 6.5t-0.5 6.5q1 0 7.5 2t14 2t14 -3.5t7.5 -13.5q1 -8 2.5 -15.5t1.5 -11.5q0 -8 -3 -11q3 14 3 25q0 8 -1.5 17 t-3.5 13q-6 1 -12 3t-11 2h-13zM240 540l146 -4q-36 3 -66 4q-24 3 -48 3.5t-32 -3.5zM337 392l4 -280l9 1q-1 -1 -1 0q-3 1 -4 12q-2 7 -3 48.5t-3 90.5zM352 105q0 -4 5 -5t13.5 -1t15 -1t8.5 -1q4 -3 12.5 -12.5t8.5 -14.5q0 -7 1 -16t-1 -6q0 4 1 25t-17 29 q-18 10 -30.5 12.5t-16.5 -9.5zM358 633q-13 5 -24.5 14.5t-24.5 16.5q-12 6 -27.5 20.5t-26.5 27.5q-10 12 -25 8.5t-23 -16.5q-9 -15 3.5 -22t21.5 -11q8 -1 12 -4.5t13 -7.5q4 -3 16 -10.5l26 -15.5q16 -8 32 -21q8 -5 18 -9q18 -7 26 -7q9 0 10 3t9 3q9 0 -6 12t-30 19z M244 633q1 0 7 -2q4 -2 8 -3.5t8 -2.5l19 -11l52 -22l-14 7q-9 4 -16 8q-16 7 -25 14l-43 25q5 -2 2.5 -7.5t1.5 -5.5z" />
<glyph unicode="&#xcd;" horiz-adv-x="604" d="M614 -324h-634v1222h634v-1222zM388 524l4 -2q1 -3 8 1q20 7 0 12q-10 4 -16 -2.5t-11 -9.5q-7 -4 -14 -13t-33 -11q-24 -4 -39 -3.5t-30 0.5q-7 0 -18 2t-19.5 1.5t-16 -7t-10.5 -18.5q-1 -15 7.5 -19t20 -5.5t23.5 -1.5t14 -2q18 -22 18 -75q0 -13 1.5 -55.5t2 -89 t1 -85.5t0.5 -44q-1 -12 -5 -23.5t-15 -13.5q-11 -4 -17 -1t-13 3q-4 0 -11 -7t-12 -15.5t-8.5 -17t-0.5 -9.5q5 -6 33.5 -3t46.5 3h35t31 -4q15 -3 33 -2.5t26 13.5q9 11 11 26.5t-4 22.5q-7 5 -13 6.5t-12 1.5q-7 -3 -15 4.5t-15 7.5q-6 0 -17 -9t-17 -7q-2 0 -3 9.5 t-2 23t-1 25.5v19v259v19t6 11q11 8 26 1q4 -1 21 -5t27 4q8 8 16 17.5t4 19.5q-1 10 -8.5 17t-14.5 11q-5 1 -10 4.5t-2 7.5q2 0 9 1.5t14 1.5t13 -3.5t9 -11.5q1 -9 1.5 -16t0.5 -12q0 -7 -1 -11q1 13 1 24q0 10 -0.5 18.5t-4.5 11.5q-6 3 -12 4t-11 1h-12zM256 541 l144 -6q-34 4 -64 6q-25 1 -49.5 1.5t-30.5 -1.5zM351 391l5 -279l10 1q-3 -1 -3 0q-1 2 -3 13q-2 6 -3 47.5t-2 90.5zM367 104q0 -3 5.5 -4.5t13 -1.5t15 -0.5t8.5 -0.5q4 -3 13 -13t9 -15q0 -7 0.5 -16t-0.5 -5q0 3 0.5 24.5t-16.5 29.5q-18 10 -31.5 12t-16.5 -10z M222 626q9 0 9.5 -2.5t9.5 -2.5q4 0 10.5 2l16.5 5q7 3 17 8l31 22q15 8 25.5 15.5t16.5 10.5q11 4 14 7t13 8q8 1 20 8.5t4 22.5q-9 13 -24 16t-23 -9q-11 -13 -27.5 -27t-28.5 -21q-12 -5 -23 -14.5t-26 -16.5q-14 -6 -29 -19t-6 -13zM375 673l-42 -26q-11 -7 -25 -14 q-6 -4 -16 -7l-13 -8l49 22l22 11q17 8 23 8q2 0 -0.5 5.5t2.5 8.5z" />
<glyph unicode="&#xce;" horiz-adv-x="607" d="M614 -324h-634v1222h634v-1222zM372 525l5 -3q1 -3 8 1q20 7 0 12q-10 4 -16 -2.5t-11 -9.5q-7 -4 -14 -13t-33 -11q-24 -4 -39 -3.5t-30 0.5q-7 0 -18 2t-19.5 1.5t-16 -6.5t-10.5 -19q-1 -15 7.5 -19t20 -5t23.5 -1t14 -3q18 -22 18 -75q0 -13 1.5 -55.5t2 -89t1 -85 t0.5 -44.5q-1 -12 -5 -23.5t-15 -13.5q-11 -4 -17 -1t-13 3q-4 0 -11 -7t-12 -15.5t-8.5 -17t-0.5 -9.5q5 -5 33.5 -2.5t46.5 2.5h35t31 -4q15 -3 33 -2t26 13q9 11 11 26.5t-4 22.5q-7 5 -13 6.5t-12 1.5q-7 -3 -15 4.5t-15 7.5t-17.5 -9t-16.5 -7q-2 0 -3 9.5t-2 23 t-1 25.5v19v259v19t6 11q11 8 26 1q4 -1 21 -5t27 4q8 8 16 17.5t4 19.5q-1 11 -8.5 17.5t-14.5 10.5q-6 2 -10.5 5t-1.5 7q2 0 9 1.5t14 1.5t13 -3.5t8 -11.5q2 -9 2.5 -16t0.5 -12q0 -7 -1 -11q1 13 1 24q0 10 -0.5 18.5t-4.5 11.5q-6 3 -12 4.5t-11 1.5h-13zM241 541 l144 -6q-34 4 -64 6l-49.5 2t-30.5 -2zM336 392l5 -280l10 1q-3 -1 -3 0q-1 2 -3 13q-2 6 -3 47.5t-2 90.5zM352 104q0 -3 5.5 -4.5t13 -1.5t15 -0.5t8.5 -0.5q4 -3 13 -13t9 -15q0 -7 0.5 -16t-0.5 -5q0 3 0.5 24.5t-16.5 30.5q-18 9 -31.5 11t-16.5 -10zM61 626 q7 0 8.5 -2.5t10.5 -2.5q3 0 10.5 2t15.5 5t18 8q16 12 32 22q14 8 25.5 15.5t16.5 10.5q11 4 14.5 7t11.5 8q10 1 22 8.5t3 22.5q-8 13 -23 16t-25 -9q-9 -13 -26 -27t-29 -21q-13 -5 -24.5 -14.5t-24.5 -16.5q-15 -6 -30 -19t-6 -13zM216 673l-42 -26q-11 -7 -27 -14 q-7 -4 -16 -7l-14 -8l52 22l20 11q18 8 23 8q4 0 1.5 5.5t2.5 8.5zM493 665q-15 6 -26.5 15.5t-23.5 15.5q-12 7 -28.5 21t-27.5 26q-9 13 -24 10t-23 -16q-10 -14 2.5 -22t21.5 -10q8 -4 12.5 -7.5t13.5 -7.5q4 -2 16.5 -9.5l25.5 -15.5q16 -10 33 -22q8 -6 17 -8 q18 -7 26 -7q10 0 11 2.5t8 2.5q10 0 -5 13t-29 19zM377 666q6 0 24 -8l22 -11l50 -22l-14 8q-9 3 -16 7q-15 7 -26 14l-42 27q3 -4 1.5 -9.5t0.5 -5.5z" />
<glyph unicode="&#xcf;" horiz-adv-x="596" d="M614 -324h-634v1222h634v-1222zM374 525l2 -4q3 -2 10 2q19 7 0 13q-11 2 -17 -4t-12 -9q-6 -4 -12.5 -12.5t-33.5 -12.5q-26 -3 -40.5 -2.5t-28.5 0.5q-7 0 -17.5 2t-19.5 1t-17 -7.5t-10 -18.5q-1 -14 8 -18.5t20.5 -5t22 -0.5t14.5 -3q18 -22 18 -75q0 -13 0.5 -55 t2 -89t2 -86t0.5 -44q-1 -12 -5.5 -23t-15.5 -14q-10 -2 -16 0.5t-14 2.5q-3 0 -10.5 -7.5t-12 -16.5t-8.5 -16t0 -10q5 -6 33 -3t45 3h36.5t33.5 -3q13 -4 30.5 -3.5t26.5 14.5q9 9 12 25.5t-4 23.5q-8 5 -14.5 6t-11.5 1q-7 -2 -14.5 5t-15.5 7q-7 0 -17 -9t-15 -7 q-5 0 -5.5 10t-1 23t-0.5 25v19v258v19.5t7 10.5q10 9 24 2q5 -2 21.5 -5.5t25.5 3.5q9 9 17 18.5t4 19.5q-2 9 -8.5 16.5t-13.5 10.5q-5 3 -10.5 6t-1.5 6q1 0 8 2t14.5 2t13.5 -3.5t7 -12.5q2 -8 3 -15.5t1 -11.5q0 -8 -2 -11q2 14 2 24q0 9 -1 17.5t-4 12.5q-5 2 -11.5 4 t-11.5 2h-12zM239 540l147 -4q-35 2 -65 4q-25 2 -49.5 3t-32.5 -3zM337 392l4 -280l10 1q-2 -1 -2 0q-2 2 -4 13q-1 6 -2.5 47.5t-2.5 90.5zM352 105q0 -4 5.5 -4.5t13.5 -0.5t15 -1.5t8 -1.5q4 -3 13 -12.5t9 -14.5q0 -7 0.5 -16t-0.5 -6q0 4 0.5 25t-17.5 29 q-17 10 -30 12.5t-17 -9.5zM341 626q0 -19 27 -21q14 -3 33.5 6t22.5 44q3 16 -4.5 29t-18 20t-20.5 10t-14 3q-10 0 -12.5 -12.5t-3.5 -27.5q0 -7 3 -10t8.5 -4t9 -3t3.5 -5l-18 -11q-16 -9 -16 -18zM344 707q-4 -3 -7 -9q-8 -10 -8 -17q0 -10 2 -14.5t2 -8.5v-14 q0 -7 1 -12q0 1 3 5q1 3 1 5.5t3 7.5q3 8 0 29t3 28zM201 717q-4 0 -6 -2q-6 -3 -18 -10t-12 -24q0 -10 1 -14.5t1 -8.5v-14q0 -7 3 -12q0 1 1 5q2 3 2 5.5t4 7.5q1 5 4 15l7 23q0 -3 -1.5 -5t-1.5 -6q-1 -14 5 -19.5t5 -12.5q-6 -4 -10 -6q-8 -6 -8 -13q0 -19 26 -21 q15 -3 34 6t23 44q1 16 -6 29t-17.5 20t-20 10t-15.5 3z" />
<glyph unicode="&#xd1;" horiz-adv-x="629" d="M644 -324h-658v1222h658v-1222zM161 661q-5 -16 7 -21.5t23 -9.5q12 -3 20 -3t16 8q4 12 5.5 18.5t3.5 10.5q5 3 12 10.5t17 9.5q11 5 23.5 5t17.5 -2q2 -4 10 -12t19 -17.5t24 -18t25 -9.5q13 -1 28 5.5t27.5 14t22.5 15.5t13 11q3 6 1.5 17.5t-5.5 13.5q-4 4 -8.5 -0.5 t-8.5 -9.5l-10 -14v-7q0 -9 -10 -18q-9 -9 -11 4t-8 16q-8 4 -14 -4.5t-25 -0.5q-19 9 -34.5 33.5t-40.5 28.5q-12 0 -27.5 -5.5t-31 -14t-27 -16t-16.5 -12.5q-8 -8 -15 -8q-4 0 -4 3q-3 -3 -7 -6q-5 -3 -7 -7t-5 -8zM496 700v-16q0 -11 -2 -23q-4 -8 -10 -10.5t-14 -5.5 q-11 -3 -18 -9t-13 -7q-5 -2 4 -0.5t21 7.5t23 13.5t15 17.5q12 44 -8 38zM298 660q-1 1 -5 4q-3 1 -15 1q-13 -1 -19 -5l-7 -3zM190 64q1 9 -7 20t-10 20q0 6 -0.5 28.5t-2.5 51.5t-2 57.5v44.5l6.5 46t0.5 25q-2 4 -9 -9q-5 -7 -10 -15q-1 17 -3 30t-1 24.5t4 15.5 q10 7 15.5 12t12.5 0q2 -2 14.5 -22.5l31 -49.5l39 -62l38 -62.5l30.5 -50l15 -23.5l37 -47q1 -3 3.5 -12.5l5 -20t6 -21t8.5 -11.5q5 -5 16 -5.5t21 0t19.5 5.5t10.5 13q4 19 -4 47.5t-8 94.5q0 31 1.5 71t1.5 78.5t0.5 69.5t1.5 44q3 24 8 38.5t2 20.5q-3 3 -3.5 10 t-3.5 13q-4 7 -5 14q-6 -9 -12 -16q-11 -16 -17 -20q-7 -2 -15.5 -6.5t-9.5 -13.5q0 -9 7.5 -34.5t4.5 -46.5q0 -11 -0.5 -44t-2.5 -69t-3 -69t-1 -39q-4 -14 -6.5 -33t-11.5 -23q-7 -8 -17 -6t-17 14q-9 14 -14 24t-7 20q-3 10 -4.5 19t4.5 13q4 2 5.5 2t5.5 1q4 0 6 3 q-15 15 -28 32q-27 29 -35 44q-5 7 -16.5 31l-24.5 51l-25 51t-15 29q-10 9 -20 33t-15 30q-6 5 -6 11.5v11.5q0 4 -1.5 -1.5t-6.5 -11.5q-6 -5 -25 -14t-22 -19q0 -4 3 -14.5l6 -20t7.5 -18.5t4.5 -13q2 -8 -4 -29t-6 -34t-4 -29t-4 -27q0 -4 -1.5 -39.5t-1.5 -79.5v-82 t3 -46q12 -40 31 -36q8 3 18 14.5t13 16.5zM210 63v82v58.5t1 31.5q0 3 -2.5 16.5t-5.5 27.5q-6 15 -11 33q5 -68 8 -122q3 -23 3.5 -45.5t2.5 -40t3 -29t1 -12.5zM365 273l-25 50l-24 44t-21 37q-9 16 -19.5 36.5t-22 40l-20.5 34t-17 18.5l-11.5 6t-12.5 8q-6 4 -12 5 q20 -23 41 -51l40 -58t43 -72q22 -40 34 -60t17 -27q8 -11 10 -11zM500 76v-21q2 1 2 8v6t-2 7zM431 0h8q2 0 13 4q4 0 8.5 3l10.5 7q7 2 12 8zM224 201l10 10l-3 8zM496 98v2q0 3 1 5.5t1 6.5t4 8.5t4 10.5v187q0 81 1 183q-4 -4 -5.5 -24l-3.5 -49t-2 -65v-73v-192z" />
<glyph unicode="&#xd2;" horiz-adv-x="591" d="M611 -324h-631v1222h631v-1222zM296 468q26 -4 48.5 -22.5t37.5 -46t22.5 -59t7.5 -61.5q0 -31 -9 -64.5t-24.5 -62t-37 -47t-44.5 -18.5q-24 0 -52 10.5t-51.5 35.5t-39.5 64.5t-12 96.5q1 57 23 91.5t48.5 53t51 24t31.5 5.5zM368 498q-24 24 -42 33t-8 -8q1 -2 -22 -2 t-53.5 -6t-63 -22.5t-49.5 -49.5q-19 -34 -31 -84t-9.5 -101.5t18.5 -101.5t56 -81q37 -31 76.5 -42t72 -5t58.5 24.5t39 45.5q13 26 23.5 59.5t17 68t5 66.5t-8.5 57q-31 102 -79 149zM527 200q-4 -4 -4 -6q0 -10 7 -11zM393 526q-24 14 -41.5 23t-31.5 11q-16 6 -29 6 q9 -3 16 -6q7 -2 12.5 -3t7.5 -4q4 0 22 -9.5t38.5 -25t38.5 -35t26 -40.5q7 -22 14.5 -49.5t11.5 -57t6 -57.5t-2 -51q-5 -45 -18 -82.5t-54 -77.5q-20 -21 -42.5 -33.5t-40.5 -20.5q-20 -10 -39 -15q32 7 64 22q27 12 54 32.5t45 50.5q16 30 25 66.5t13 70.5t3.5 61.5 t-3.5 38.5q-1 12 -8 36.5t-19 52t-30 54t-39 42.5zM248 431q-16 -11 -30 -23q-12 -12 -24.5 -28.5t-20.5 -38.5q-13 -46 -6.5 -96.5t20.5 -80.5q7 -15 19 -26.5t25 -18t23.5 -9t11.5 1.5q4 4 -7 13.5t-23 21.5q-5 6 -14 12t-16.5 19t-14.5 35.5t-8 60.5q-4 37 6 67t24 49 q16 23 35 41zM372 594q8 0 -7 13t-28 19q-15 6 -26 16.5t-23 15.5q-14 7 -30 20.5t-27 26.5q-8 12 -23 9.5t-24 -17.5q-8 -13 3.5 -21t20.5 -10q9 -4 12.5 -7.5t14.5 -5.5q2 -4 14.5 -11l27.5 -16t31 -21l18 -9q18 -7 26 -7q9 0 10 2.5t10 2.5zM217 642q6 -4 3 -9t0 -5t8 -2 q3 -2 7.5 -4t7.5 -3l22 -11l50 -22l-14 8l-16 7q-15 7 -26 15z" />
<glyph unicode="&#xd3;" horiz-adv-x="594" d="M610 -324h-631v1222h631v-1222zM295 467q26 -4 48.5 -22t37.5 -45.5t22.5 -59.5t7.5 -61q0 -31 -9 -64.5t-24.5 -62t-36.5 -46.5t-44 -18q-25 0 -52.5 10t-51.5 35t-40 64.5t-12 96.5q1 57 23.5 91.5t49 53t51 23.5t30.5 5zM367 497q-24 25 -41.5 33.5t-8.5 -7.5 q2 -3 -21.5 -3t-54 -6t-63 -22t-50.5 -49q-19 -34 -30.5 -84.5t-9.5 -101.5t18.5 -100.5t55.5 -81.5q38 -31 77.5 -42t72 -4.5t58.5 24.5t40 46q12 25 23 58.5t17 68t4.5 66t-8.5 57.5q-31 102 -79 148zM526 200q-4 -4 -4 -6q0 -10 7 -11zM392 526q-23 13 -40.5 22t-31.5 12 q-16 5 -30 5q10 -3 16 -5q7 -3 12.5 -3.5t8.5 -3.5q4 0 21.5 -9.5t38 -25t39 -35.5t26.5 -40q7 -22 14 -49.5t11.5 -57t6.5 -57.5t-2 -51q-6 -45 -19 -82.5t-53 -76.5q-21 -22 -43.5 -34.5t-39.5 -20.5q-21 -9 -40 -15q33 7 64 22q27 12 54.5 32.5t44.5 50.5t25.5 66.5 t12.5 70.5t3.5 61.5t-3.5 38.5q-1 12 -8 36.5t-19 52t-29.5 54t-39.5 42.5zM248 431q-16 -11 -30 -23q-12 -13 -25 -29t-21 -38q-14 -46 -7 -96.5t22 -80.5q7 -15 19 -26.5t25 -17.5t23 -9t12 1q4 4 -7 13.5t-23 21.5q-6 6 -14.5 12t-16 19t-15 35.5t-9.5 60.5q-4 37 7 67 t25 49q16 23 35 41zM213 625q6 0 7.5 -2.5t9.5 -2.5q4 0 11 2t16 6q9 2 19 8q15 12 32 22q12 8 24 14.5t18 10.5q9 4 13 7.5t14 6.5q8 3 19.5 10.5t2.5 22.5q-8 13 -22.5 16t-25.5 -10q-8 -12 -25 -26t-29 -21q-12 -6 -24.5 -15.5t-25.5 -15.5q-15 -6 -30 -19.5t-4 -13.5z M363 659q3 0 1 5.5t2 8.5l-42 -26q-11 -7 -27 -15q-7 -3 -15 -7l-15 -8l52 23l20 9q18 10 24 10z" />
<glyph unicode="&#xd4;" d="M612 -324h-632v1222h632v-1222zM296 465q26 -2 48 -20.5t37 -45t22.5 -58.5t7.5 -62q0 -32 -8.5 -65t-24.5 -61.5t-37 -47t-44 -18.5t-51 10t-52 35.5t-40 65t-12 96.5q1 57 23.5 91.5t49 53t50.5 24t31 2.5zM368 498q-25 24 -42.5 33t-7.5 -7q1 -3 -21.5 -3t-53.5 -6 t-63.5 -22.5t-49.5 -48.5q-19 -34 -31 -84.5t-10 -102.5t18.5 -101.5t56.5 -80.5q38 -32 77 -42.5t71.5 -4.5t58 24.5t39.5 45.5q12 26 23 59t17 68t5 67t-8 58q-30 99 -79 148zM527 200q-4 -4 -4 -7q0 -10 7 -11zM392 526q-23 14 -40.5 23t-31.5 11q-16 6 -30 6 q10 -3 17 -6q6 -2 11.5 -3t8.5 -3q4 0 21.5 -9.5t38 -25.5t39 -35.5t26.5 -39.5q7 -22 14.5 -50t11.5 -57t6 -58t-2 -52q-5 -45 -18 -82.5t-54 -76.5q-20 -22 -42.5 -34t-40.5 -20q-20 -10 -39 -15q32 6 64 21q27 13 54 33t45 50q16 30 25 67t13 71t3.5 61t-3.5 40 q-2 12 -8.5 36.5t-19 51.5t-30 53.5t-39.5 42.5zM249 431q-16 -11 -30 -23q-12 -12 -25 -28.5t-21 -37.5q-14 -47 -7 -98t22 -81q7 -15 19 -26.5t25 -17.5t23.5 -9t11.5 1q4 5 -7 14.5t-23 21.5q-5 5 -14 11t-16.5 19t-15 35.5t-8.5 60.5q-4 39 6.5 68.5t24.5 49.5 q16 23 35 40zM94 657q-13 -5 -28 -18.5t-7 -13.5q9 0 10 -3t9 -3q4 0 11 2t16 6q7 3 18 9q15 12 31 21l26 15.5t16 10.5q11 4 14.5 7.5t12.5 6.5q9 2 21 9.5t4 22.5q-10 14 -25 16.5t-23 -9.5q-11 -12 -28 -26.5t-29 -20.5t-23.5 -15.5t-25.5 -16.5zM211 659q3 0 0 5.5 t3 7.5l-42 -26l-26 -14q-8 -3 -16 -7l-14 -8l50 23l22 9q18 10 23 10zM527 632q9 0 -5.5 13.5t-28.5 18.5q-14 7 -26.5 16.5t-25.5 14.5q-12 7 -28.5 21.5t-25.5 26.5q-10 12 -24 9.5t-24 -16.5q-8 -15 3.5 -22.5t19.5 -8.5q10 -4 14 -7.5t14 -7.5q4 -3 15.5 -10.5 t26.5 -15.5l31 -22q11 -5 19 -8q10 -4 16.5 -5.5t10.5 -1.5q8 0 9 2.5t9 2.5zM373 679q4 -3 2 -8t0 -5q6 0 24 -9l22 -11l50 -23l-13 9q-9 4 -17 8q-15 6 -26 13z" />
<glyph unicode="&#xd5;" horiz-adv-x="605" d="M620 -324h-634v1222h634v-1222zM302 468q26 -3 48.5 -21t38 -45t23.5 -59.5t8 -63.5q0 -33 -9 -66t-25 -61t-37 -46.5t-44 -18.5q-24 0 -52 10.5t-52.5 35t-40.5 64.5t-12 97q1 58 24 92t49.5 53t50 24t30.5 5zM374 498q-25 23 -42.5 34t-9.5 -7q3 -4 -19 -4t-52.5 -6 t-63 -22t-50.5 -50q-19 -32 -30.5 -82.5t-9.5 -103.5t18 -102t56 -80q38 -33 77 -43t71 -4t57.5 25t39.5 46q12 26 23.5 59.5t17 68t5.5 66t-8 58.5q-31 103 -80 147zM534 200q-4 -4 -4 -8q-4 -7 6 -10zM400 526q-23 17 -40 25.5t-32 11.5q-15 6 -30 6q7 -2 15 -6 q13 -7 21 -7q5 -1 22 -10.5t36.5 -26t38.5 -35.5t27 -41q7 -20 15 -48.5t12 -57t6.5 -57t-2.5 -51.5q-6 -45 -18.5 -83t-54.5 -79q-22 -19 -43 -32t-39 -23q-19 -8 -39 -13q33 7 65 22q26 12 53.5 31.5t44.5 49.5t25.5 67.5t12 71.5t3.5 62.5t-3 38.5q-1 12 -8 37t-19 52 t-30 53t-39 42zM255 431q-16 -11 -30 -23q-12 -12 -24 -27.5t-19 -38.5q-17 -44 -8.5 -95.5t21.5 -81.5q6 -17 18 -27.5t25 -17.5t24 -8.5t12 0.5q4 2 -6.5 12.5l-23.5 22.5q-5 6 -14 12t-17.5 19t-15.5 34.5t-8 61.5q-4 38 6.5 67.5t24.5 50.5q16 22 35 39zM125 663 q-6 -18 5.5 -23.5t22.5 -8.5q11 -4 18.5 -4t14.5 10q5 9 6.5 16.5t4.5 10.5l10.5 11t16.5 11q9 5 22 5t17 -4q3 -2 10.5 -10.5t18 -18t22.5 -17.5t25 -10q12 -2 26 4t26.5 14t22 16.5t10.5 10.5q4 6 2 17.5t-5 15.5q-4 3 -8 -1t-8 -10l-11 -13v-9q0 -8 -8 -17q-9 -8 -10.5 4 t-8.5 16q-7 3 -13.5 -4.5t-23.5 -0.5q-17 8 -31.5 32.5t-39.5 28.5q-13 0 -28 -5.5t-30 -13t-25.5 -15.5t-15.5 -14q-7 -7 -14 -7q-4 0 -4 2l-6 -6q-5 -2 -7.5 -5.5t-3.5 -7.5zM446 699v-13q0 -12 -4 -23q-3 -8 -8.5 -11t-13.5 -7q-9 -4 -16 -9t-14 -7q-4 -2 5 0t20.5 7 t21.5 13t14 19q11 44 -9 37zM257 661q-2 2 -6 3q-3 3 -15 3q-12 -3 -17 -6l-7 -4z" />
<glyph unicode="&#xd6;" horiz-adv-x="597" d="M612 -324h-632v1222h632v-1222zM296 468q26 -4 48.5 -22.5t37 -45.5t22 -59t7.5 -63t-8.5 -64t-24.5 -61.5t-37 -47t-44 -18.5q-24 0 -52 10t-51.5 35.5t-40 64.5t-12.5 97q2 57 24.5 92t48.5 53t50.5 23.5t31.5 5.5zM368 498q-25 24 -42.5 33t-7.5 -7q1 -3 -22 -3 t-53.5 -6t-63 -22.5t-50.5 -48.5q-19 -34 -30.5 -84.5t-9.5 -102.5t18.5 -101.5t55.5 -80.5q38 -31 77.5 -42t72 -5t58 24.5t39.5 45.5q12 26 23 59t17 67.5t4.5 67t-7.5 58.5q-32 102 -79 148zM527 200q-5 -5 -5 -7q0 -10 7 -11zM392 526q-23 14 -40.5 23t-31.5 11 q-16 6 -29 6q9 -3 16 -6q7 -2 12 -3t8 -3q4 0 22 -9.5t38 -25.5t38.5 -35.5t26.5 -39.5q7 -22 14.5 -50t11.5 -57t6 -58t-2 -52q-6 -45 -18.5 -82.5t-53.5 -76.5q-20 -22 -42.5 -34t-40.5 -20q-20 -10 -39 -15q32 7 64 22q27 12 54 32t45 50q16 30 25 66.5t13 70.5t3 62.5 t-3 39.5q-2 12 -8.5 36.5t-19 51.5t-30 53.5t-39.5 42.5zM249 431q-17 -10 -30 -23q-13 -12 -25.5 -28t-20.5 -38q-14 -46 -7 -97.5t22 -81.5q6 -15 18.5 -26.5t25 -17.5t23 -9t11.5 1q4 4 -6.5 13.5t-23.5 22.5q-5 5 -14 11t-16.5 19t-15 35.5t-8.5 60.5q-4 39 7 69t24 49 q17 23 36 40zM338 643q-16 -8 -16 -18q0 -19 27 -20q13 -4 33 5t22 44q3 18 -4.5 30t-17.5 18.5t-20 11t-14 4.5q-10 0 -12.5 -14t-4.5 -27q0 -7 3.5 -9.5t9 -4.5t9 -3.5t3.5 -5.5zM322 648q2 10 -0.5 31t2.5 28q-4 -4 -6 -10q-8 -9 -8 -17t2 -13.5t2 -8.5v-15q0 -7 1 -12 q0 1 3 5q1 4 1 7t3 5zM240 654q2 18 -5 30t-18 18.5t-20 11t-15 4.5q-4 0 -7 -4q-5 -2 -17.5 -9.5t-12.5 -24.5q0 -8 1.5 -13.5t1.5 -8.5v-15q0 -7 3 -12q0 1 1 5q2 4 2 7t4 5q1 6 3.5 17t7.5 23q0 -4 -1.5 -6t-1.5 -5q-2 -15 4.5 -19.5t4.5 -11.5q-5 -4 -9 -8q-8 -6 -8 -13 q0 -19 25 -20q15 -4 34 5t23 44z" />
<glyph unicode="&#xd7;" horiz-adv-x="582" d="M598 -324h-635v1222h635v-1222zM359 352q-9 -10 -15 -25t-14 -28q-5 -5 -11 -19.5t-10 -17.5q-3 -4 -16 -15q-7 3 -11 12.5t-10 15.5l-17 17.5t-11 10.5q-4 4 -6.5 11.5t-7.5 12.5q-8 7 -21.5 11t-28.5 -5q-14 -10 -19.5 -27.5t4.5 -25.5q8 -11 16 -14.5l16.5 -7t16 -9 t16.5 -16.5l20 -21q-17 -14 -28.5 -22t-14.5 -11q-4 -4 -13 -10t-17 -20q-9 -12 -7 -27t10 -19q20 -8 27.5 -7t11.5 6q2 1 22 27.5t43 49.5l52 -53q3 -4 5 -16.5t14 -20.5q14 -9 31 -8.5t26 18.5q7 13 -0.5 24t-19 21.5t-21.5 15t-12 7.5q-4 1 -6 12t-28 38q24 22 39.5 37.5 l16.5 16.5q6 4 13.5 7t13.5 10q6 5 10 19.5t-6 27.5q-9 15 -26.5 20t-26.5 -3zM384 233q-6 -5 -8.5 -8.5t-6.5 -7.5l-4 -5q3 -2 11 5t15.5 15.5t13 16t3.5 6.5q-4 -4 -10 -7.5t-14 -14.5z" />
<glyph unicode="&#xd8;" d="M617 -324h-634v1222h634v-1222zM254 458q-2 1 -9 -3t-16.5 -20t-21.5 -44t-26 -73q-7 -24 -5 -41.5t8 -30.5q5 -13 13 -24q-1 5 -2 15q-3 8 -4.5 21t0.5 34q1 52 11 83t22.5 50t21 25.5t8.5 7.5zM504 309q0 35 -5 56.5t-12 35.5q-7 15 -18 22q10 -19 16 -40q6 -17 10 -39 t1 -46q-9 -71 -16 -107.5t-15 -55.5t-15 -23.5t-15 -13.5q-8 -6 -23.5 -16.5t-33.5 -21.5q-20 -12 -42 -27q48 3 84 33q31 24 57.5 80.5t26.5 162.5zM191 85q29 -20 63.5 -25t63 -1.5t48 11.5t20.5 11l6 9q19 23 35 52q14 24 24.5 54t12.5 61q2 41 -9.5 88t-26.5 85 q22 29 23 33q28 30 28 38q0 11 -6.5 24.5t-10.5 16.5q-4 4 -6.5 5t-6.5 -8q-6 -8 -17.5 -14t-27.5 -38q-1 2 -2 5t-3 4q-15 26 -29.5 42t-21.5 14q-5 -4 -2.5 -8.5t-5.5 -4.5h-17t-31 -1t-35 -4.5t-28 -8.5q-10 -6 -33 -17.5t-43.5 -41.5t-32.5 -85t-1 -150 q5 -46 17.5 -76.5t31.5 -50.5q-3 -6 -6 -10t-5 -8q-19 -36 -8 -45q5 -4 16.5 10.5zM143 303q-4 38 11 69.5t34.5 53t37.5 33t20 15.5q10 7 25 13t42 -3q14 -3 32 -14t36 -31q-15 -28 -38 -64l-45 -69l-38 -58.5t-22 -32.5q-7 -8 -17.5 -24.5l-23.5 -35.5q-13 14 -31.5 50 t-22.5 98zM316 107q-18 -6 -33 -3t-28 7.5t-21 12t-8 8.5q0 2 -1 4q9 15 31.5 46.5l48.5 68.5l53 76t47 71q18 -36 22 -101q0 -52 -11 -86.5t-26.5 -55.5t-36 -31.5t-37.5 -16.5zM267 139q6 6 24.5 34.5l40.5 59.5l53 83l-67 -94l-23 -33.5l-19 -27.5t-10.5 -18.5t1.5 -3.5z " />
<glyph unicode="&#xd9;" horiz-adv-x="586" d="M594 -324h-632v1222h632v-1222zM445 557q-7 2 -19 -6.5t-20 -21.5q-3 -7 -3.5 -41.5t1 -76.5t2 -83t-0.5 -62q-2 -21 -2 -47t-6 -49t-21.5 -40.5t-48.5 -23.5q-31 -5 -46.5 -5.5t-24 2t-10.5 6.5t-6 8q-9 7 -10 9.5t-6 1.5q-5 -3 -13.5 6l-16.5 18q-9 9 -10.5 15t-0.5 10 q2 5 4.5 8t-0.5 16q-4 14 -7.5 30t-4.5 40q0 9 -1.5 42t-1.5 68t1.5 63.5t1.5 31.5q3 5 9 23t1 30q-13 27 -30 24q-8 -1 -22 -10t-18 -20q-5 -10 2 -34t7 -51v-61t2 -100t6.5 -101t15.5 -57q11 -13 30 -28t44 -26.5t53.5 -14t61.5 9.5q65 26 92.5 48.5t29.5 39.5 q3 19 -1.5 38t-5.5 22q0 3 -0.5 33.5t-0.5 68.5t0.5 71.5t0.5 41.5q4 15 7.5 42t7.5 38q3 10 -6 31.5t-16 22.5zM206 247q-5 -35 2 -51q4 -7 6 -12q3 31 3 61v51t2 40q0 14 -1 46.5t-5 67.5q-3 41 -7 86q0 -2 1 -40.5t2 -87t0 -95.5t-3 -66zM489 500q-2 -84 -2 -154 q0 -59 -0.5 -110t-0.5 -58q-3 -5 -5 -20.5t-9.5 -34.5t-21.5 -38t-36 -32q-24 -13 -47.5 -21.5t-40.5 -13.5q-22 -7 -40 -9q44 2 80 17q32 12 64 34t49 63q8 31 11 94t3 126q0 73 -4 157zM349 647q-15 7 -27.5 16.5t-24.5 14.5q-12 7 -28.5 21t-25.5 27q-11 12 -24.5 9 t-23.5 -16q-8 -14 3.5 -22t20.5 -9q8 -4 12.5 -7.5t12.5 -7.5q6 -3 17.5 -10.5l24.5 -15.5l33 -22q11 -5 19 -8q8 -4 15.5 -5.5t10.5 -1.5q9 0 10 3t7 3q11 0 -4 12.5t-28 18.5zM231 648q7 0 24 -8l22 -11l50 -23l-13 10q-10 2 -17 6q-15 7 -26 14l-42 26q3 -3 1.5 -8.5 t0.5 -5.5z" />
<glyph unicode="&#xda;" horiz-adv-x="590" d="M596 -324h-631v1222h631v-1222zM449 557q-7 1 -19.5 -7t-20.5 -21q-3 -7 -3.5 -42t1 -77t2 -82.5t-0.5 -60.5q-2 -22 -2 -47.5t-6 -49t-21.5 -41t-48.5 -22.5q-31 -6 -46.5 -6.5t-23.5 2t-10 7t-7 8.5q-9 6 -9.5 9t-6.5 1q-5 -2 -13.5 6.5t-16.5 18.5q-9 8 -10.5 14 t-0.5 10q2 6 4.5 8.5t-0.5 16.5q-4 13 -7 29.5t-5 39.5q0 10 -1 42t-1 67.5t1 64t1 31.5q3 5 9 22.5t1 30.5q-12 27 -30 24q-8 -1 -21.5 -10t-18.5 -20t2 -34.5t7 -50.5v-61.5t2 -99.5t6.5 -100t15.5 -58q11 -12 30 -27t44 -26.5t53.5 -14.5t61.5 10q65 25 93 47.5t29 40.5 q3 19 -1 38t-6 22q0 2 -0.5 32.5t-0.5 68.5t0.5 71t0.5 42q4 15 7.5 42t7.5 38q3 9 -6 31t-15 23zM210 248q-6 -35 1 -52q4 -6 7 -12q2 31 2 61v51t2 40q0 13 -1 45.5t-5 68.5q-2 40 -6 85q0 -1 0.5 -39.5t2 -87t0 -95t-2.5 -65.5zM492 500q-1 -84 -1 -155q0 -58 -1 -109 t-1 -57q-2 -6 -4 -21.5t-9.5 -34.5t-22 -38t-36.5 -31q-24 -14 -47 -22l-41 -14q-22 -6 -39 -9q43 3 80 18q31 12 63 33.5t50 62.5q8 31 10.5 94.5t2.5 124.5q0 74 -4 158zM227 625q8 0 9.5 -2.5t9.5 -2.5q4 0 11 2t16 6q7 2 17 8q16 12 32 22l25.5 14.5t16.5 10.5 q11 4 14.5 7.5t11.5 6.5q10 3 22 10.5t3 22.5q-9 13 -23.5 16t-24.5 -10q-9 -12 -26 -26t-30 -21q-12 -6 -23.5 -15.5t-25.5 -15.5t-29 -19.5t-6 -13.5zM382 673l-42 -26q-11 -7 -27 -15q-7 -3 -15 -7l-15 -8l51 23l21 9q18 10 23 10q4 0 1.5 5.5t2.5 8.5z" />
<glyph unicode="&#xdb;" horiz-adv-x="604" d="M236 672l-43 -26q-10 -6 -27 -14q-7 -3 -15 -7l-15 -7l52 22l20 9q18 10 24 10q4 0 1 5.5t3 7.5zM612 -324h-632v1222h632v-1222zM463 558q-7 1 -19 -7t-20 -22q-3 -7 -3.5 -41.5t0.5 -76.5l2 -83t-1 -62q-1 -21 -1 -47t-6 -49t-22 -41t-48 -23t-47 -6t-23 2t-10 7t-6 8 q-10 7 -10.5 9.5t-6.5 1.5q-5 -3 -13 6t-17 18q-9 8 -10.5 14.5t0.5 10.5q1 5 3.5 8t0.5 16q-4 14 -7.5 30t-5.5 40q0 9 -1 42t-1 68t1 63.5t1 31.5q3 6 9 23.5t1 29.5q-12 27 -30 25q-8 -2 -21.5 -10.5t-17.5 -19.5q-6 -11 1 -35.5t7 -50.5v-61t2 -100t6.5 -101t15.5 -58 q11 -12 30 -27t44.5 -26.5t53.5 -14t60 9.5q66 26 93.5 48t29.5 40q2 19 -2 38t-5 22q0 3 -1 33.5t-1 68.5t1 71.5t1 41.5q4 15 7.5 42t7.5 38q2 10 -6.5 31.5t-15.5 23.5zM225 247q-6 -35 1 -51q4 -7 7 -13q3 32 3 62v51t1 40q0 14 -0.5 46.5t-4.5 67.5q-3 41 -7 86 q0 -1 0.5 -40t2 -87t0 -95.5t-2.5 -66.5zM507 501q-2 -85 -2 -155q0 -59 -0.5 -110t-0.5 -58q-3 -5 -5 -21t-9.5 -35t-21.5 -38t-36 -31q-25 -14 -48 -22t-41 -13q-21 -7 -39 -10q43 3 80 18q31 12 63 34t50 62q8 32 11 95t3 126q0 73 -4 158zM81 625q8 0 9 -2.5t10 -2.5 q4 0 10.5 2t14.5 5q9 3 18 9q16 12 33 21q13 9 24.5 15.5t17.5 10.5q11 4 14.5 7.5t11.5 6.5q9 2 21.5 9.5t2.5 22.5q-8 14 -23 16.5t-24 -9.5q-10 -12 -27 -26.5t-29 -20.5t-23.5 -15.5t-25.5 -16.5q-15 -5 -30 -18.5t-5 -13.5zM515 664q-15 7 -27.5 16.5t-24.5 14.5 q-12 7 -29 21.5t-25 26.5q-11 12 -25.5 9.5t-22.5 -16.5q-9 -15 2.5 -22.5t20.5 -8.5q8 -4 13 -7.5t13 -7.5l17 -10.5l25 -15.5l33 -22q9 -5 19 -8q8 -4 15.5 -5.5t10.5 -1.5q9 0 10 2.5t7 2.5q11 0 -4 13.5t-28 18.5zM396 666q7 0 25 -9l20 -11l52 -22l-14 8q-9 4 -16 8 q-16 6 -26 13l-43 26q4 -3 2 -8t0 -5z" />
<glyph unicode="&#xdc;" horiz-adv-x="592" d="M600 -324h-632v1222h632v-1222zM451 558q-7 1 -19 -6.5t-19 -22.5q-4 -7 -5 -41.5t0.5 -76.5l3 -83.5t-1.5 -61.5q-1 -22 -1 -47.5t-6 -48.5t-22 -41t-48 -23q-31 -5 -47 -6t-24 2t-10 7t-6 8q-9 7 -10 9.5t-6 1.5q-6 -3 -14 6l-16 18q-10 8 -11 14t0 10q1 6 4 8.5 t0 16.5q-4 13 -7.5 29.5t-4.5 39.5q0 10 -1.5 43.5t-1.5 68.5t1.5 63.5t1.5 30.5q3 6 9 23.5t0 29.5q-12 27 -29 25q-9 -2 -21.5 -10.5t-18.5 -19.5q-5 -11 1.5 -34t6.5 -52v-61t2 -100t7 -101t16 -58q11 -12 30 -27t44 -26.5t53.5 -14t60.5 10.5q65 25 93 47t29 40 q3 19 -1 38t-5 22q0 2 -1 32.5t-1 69.5t1 72t1 41q4 15 7 42t8 38q2 10 -6.5 31.5t-15.5 23.5zM212 247q-5 -35 1 -52q5 -6 7 -12q3 31 3 61v52t1 41q0 13 -0.5 45.5t-4.5 67.5q-3 41 -7 86q0 -1 0.5 -40t2 -87t0 -95.5t-2.5 -66.5zM494 501q-1 -84 -1 -154 q0 -61 -0.5 -111.5t-0.5 -57.5q-3 -6 -5 -21.5t-9.5 -34.5t-21 -38t-36.5 -31q-25 -13 -48 -21.5t-41 -13.5q-21 -7 -39 -10q44 3 80 18q31 12 63 34t50 62q8 31 10.5 94.5t2.5 126.5q0 74 -4 158zM342 625q0 -19 26 -20q15 -4 34 5t23 44q1 18 -5.5 30t-17.5 18.5t-20.5 11 t-14.5 4.5q-10 0 -12 -14t-5 -27q0 -7 3.5 -9.5t9 -4.5t9 -3.5t3.5 -5.5l-18 -11q-15 -8 -15 -18zM344 707q-4 -4 -7 -10q-7 -9 -7 -17t1.5 -13.5t1.5 -8.5v-15q0 -7 3 -12q0 3 1 5q1 4 1 7t4 5q2 10 -1 31t3 28zM201 718q-2 0 -7 -4q-5 -2 -17 -9.5t-12 -24.5q0 -8 2 -13.5 t2 -8.5v-15q0 -7 1 -12q0 3 1 5q2 4 2 7t4 5q1 6 4 17t7 23q0 -4 -1 -6t-1 -5q-2 -14 4 -19t4 -12q-5 -4 -8 -8q-9 -4 -9 -13q0 -19 26 -20q15 -4 34 5t23 44q1 18 -6 30t-17.5 18.5t-20 11t-15.5 4.5z" />
<glyph unicode="&#xdd;" horiz-adv-x="592" d="M604 -324h-632v1222h632v-1222zM287 331q-7 -2 -9.5 -3t-5.5 8q-3 8 -3 13.5t-4 13.5q-1 6 -10.5 17.5l-21 25l-21 24.5t-13.5 16t-8.5 17.5t-9 27.5t-9.5 27t-10 18q-12 9 -29 6.5t-20 -19.5q-3 -8 6.5 -28.5t25.5 -44l31.5 -46.5t26.5 -37q20 -30 38.5 -53.5 t20.5 -28.5q0 -2 1 -25t1.5 -51t0.5 -54v-32q0 -7 -1.5 -20.5t-0.5 -26.5t7.5 -24t24.5 -11t23.5 11t4.5 24t-5 26.5t-5 20.5q0 6 -1.5 27t-3 45t-1.5 45.5t4 32.5q3 10 19.5 34.5l36 53t38.5 51.5t26 33q13 16 31 35.5t18 30.5t-11.5 20.5l-17.5 14.5q-5 6 -16 -1t-22 -24 q-5 -10 -16 -27.5t-21 -36l-19 -34t-13 -20.5q-3 -7 -11.5 -18.5l-18 -24t-18 -21t-9.5 -8.5zM211 510l69 -106q-3 4 -12.5 21.5t-22.5 36.5q-16 21 -34 48zM489 479l-70 -101l-50 -70t-22 -35v-35t1 -71q0 -44 1 -97q-1 -6 -5 -13q-4 -10 -10 -16q-2 -1 -3.5 -2l-4.5 -3 l-2 -3q6 3 13 11q6 7 11 16.5t5 28.5q0 17 1 47.5t1 63.5v77l66 96l46.5 68.5t21.5 37.5zM191 625q8 0 8.5 -2.5t10.5 -2.5q2 0 9.5 2t15.5 6l18 8q16 12 31 22l26.5 14.5t15.5 11.5q11 4 14.5 7t12.5 6t21 10.5t4 22.5q-8 13 -23 16t-25 -10q-11 -12 -27 -26t-28 -21 q-13 -5 -24.5 -14.5t-26.5 -16.5q-13 -6 -28 -19.5t-5 -13.5zM344 673l-42 -26q-10 -7 -26 -15l-16 -7l-14 -8l50 23l22 10q18 9 23 9q3 0 1 5.5t2 8.5z" />
<glyph unicode="&#xe0;" horiz-adv-x="580" d="M589 -324h-634v1222h634v-1222zM110 26q7 -1 13 -6.5t15 6.5q9 15 14 32.5t7 26.5q3 9 0 18t5 9q11 1 16 -7t17 -8t24.5 4.5t43.5 4.5q33 0 48 -2t27 4q13 5 23.5 14t16.5 3q5 -4 16 -25.5t15 -32.5q1 -11 7.5 -26.5t26.5 -19.5q19 -2 26 4.5t11 21.5q1 13 -10.5 23.5 t-17.5 24.5q-2 6 -11.5 29.5t-22.5 53t-24 58t-16 44.5q-6 17 -16.5 42l-21 51t-19.5 46t-11 26q0 4 -1.5 15.5t-4 25t-7 25t-9.5 15.5q-15 10 -27 -10t-14 -32q-3 -12 1 -21t4 -16q0 -6 -6 -13t-9 -18q-7 -19 -7 -35q0 -7 -17 -43t-30 -71q-15 -36 -16.5 -49.5t-4.5 -21.5 q0 -9 -6 -27.5t-14 -32.5q-4 -8 -13.5 -25t-18 -34.5t-11 -32.5t8.5 -18zM359 234q10 -18 12 -34t-1 -31q-1 -8 -8 -9t-17.5 1t-22.5 5t-20 3q-17 0 -25 2t-13 5q-5 2 -13.5 -1t-27.5 -12q-19 -6 -27.5 -5t-16.5 4q-4 1 -0.5 9.5t9.5 18t12 20.5t9 19q1 9 9.5 29.5t16 41.5 l13.5 36.5t6 17.5q0 4 -5 8l-9 7q-4 0 3.5 7.5t14.5 16.5l7 14t9 4q4 -2 16 -27l25.5 -55l26.5 -57.5t17 -37.5zM236 222l8 18l6 12.5t7 10.5q1 5 4 23l3 13q-5 -2 -10 -15t-8 -27q-6 -16 -10 -35zM286 187q-1 6 -6 14.5t-9 5.5q-6 -3 -13 -3h-7zM194 76l140 7 q-13 3 -36 1.5t-45 -3.5q-29 -3 -59 -5zM187 68q-1 -8 -5 -15q-7 -16 -12 -24l-17 -16q14 8 21 17q7 8 12 18.5t1 19.5zM483 125q4 -5 -0.5 9t-14 39.5t-24 60l-28.5 69.5l-81 193l72 -182l28 -67.5l23.5 -59l17 -43.5t7.5 -19zM332 633q-15 7 -27 16.5t-24 14.5 q-12 7 -28.5 21.5t-24.5 26.5q-11 12 -25 9.5t-22 -16.5q-10 -15 1.5 -22.5t21.5 -10.5q8 -2 12.5 -5.5t13.5 -7.5q5 -4 16.5 -11l24.5 -15l31 -21q10 -5 19 -9q8 -3 15.5 -5t10.5 -2q10 0 10.5 2.5t7.5 2.5q11 0 -4 13.5t-29 18.5zM216 634q7 0 24 -8l21 -10l49 -23l-13 8 q-10 4 -16 7q-16 8 -24 15l-42 25q2 -3 1 -8.5t0 -5.5z" />
<glyph unicode="&#xe1;" horiz-adv-x="569" d="M585 -324h-634v1222h634v-1222zM106 27q7 -2 13 -7t16 7q8 14 13.5 31.5t6.5 26.5t-1.5 18t6.5 9q11 1 15 -7t17 -8q12 0 24 4.5t45 4.5q34 0 49 -2t28 4q12 5 22 14t16 3q5 -2 16.5 -24.5t14.5 -33.5q3 -10 9 -26t25 -19q19 -1 26.5 5t10.5 19q1 14 -10 25t-16 24 q-4 6 -13.5 29.5l-22 53l-24 58t-16.5 44.5q-6 17 -16 42l-21 51l-20 45.5t-10 24.5q0 6 -2 17.5t-5 24.5t-7 24.5t-9 16.5q-14 10 -27 -9.5t-14 -32.5q-4 -12 0.5 -21t4.5 -15q0 -7 -6 -14.5t-10 -17.5q-7 -20 -7 -35q0 -7 -16.5 -43l-31.5 -71q-13 -36 -15 -49.5t-4 -21.5 q0 -10 -6 -28t-15 -32q-3 -7 -12.5 -24.5t-17.5 -35t-11 -32.5t8 -17zM357 234q8 -18 10 -34t0 -30q-2 -9 -9 -10t-18 2t-21.5 5.5t-20.5 2.5q-18 0 -25.5 1.5t-12.5 5.5q-4 1 -13 -2t-28 -10q-21 -8 -28 -7t-17 4q-3 3 0.5 10.5t9.5 17.5l12.5 20t7.5 19q3 9 10.5 29.5 l15.5 41.5l14 36.5t6 17.5q0 4 -5.5 8t-7.5 7q-5 0 2 7.5l15 16.5q3 8 6 14.5t10 3.5q4 -3 16 -27.5l26.5 -54.5t26.5 -57.5t18 -37.5zM232 222l7 18q4 6 7 12.5t6 10.5q2 5 4 23l4 13q-4 -2 -9.5 -14.5t-9.5 -27.5zM282 186q-2 9 -6 16.5t-9 4.5q-6 -3 -13 -3h-8zM190 76 l139 7q-12 4 -34.5 2t-45.5 -3q-29 -4 -59 -6zM184 70q-3 -10 -6 -17q-7 -16 -12 -24l-16 -17q12 10 19 18q8 10 12.5 19.5t2.5 20.5zM479 125q4 -5 0 9t-14.5 40l-24 60l-28.5 69q-32 85 -80 194l72 -183l27.5 -67.5t23.5 -59l16.5 -43.5t7.5 -19zM177 626q7 0 8 -2.5 t11 -2.5q2 0 9.5 2t16.5 4q6 4 17 10q17 12 31 20q14 10 26 16.5t16 11.5q11 2 14 5.5t13 7.5q8 1 20.5 9.5t3.5 21.5q-8 15 -23 17t-24 -10q-11 -12 -27.5 -25.5t-28.5 -21.5q-11 -4 -22.5 -14.5t-26.5 -17.5q-14 -5 -29 -18t-5 -13zM328 674l-42 -28q-11 -6 -26 -13 q-6 -4 -15 -7l-14 -9l49 23l22 11q18 8 25 8q1 0 -0.5 5.5t1.5 9.5z" />
<glyph unicode="&#xe2;" horiz-adv-x="584" d="M594 -324h-634v1222h634v-1222zM115 26q6 -1 12.5 -6.5t15.5 6.5q8 15 13.5 33t7.5 26q2 9 -0.5 18t5.5 9q11 1 15.5 -7t17.5 -8q12 0 24 5t45 5t48 -2.5t27 3.5q12 5 23 14t16 4q6 -5 16.5 -26.5t14.5 -32.5q2 -11 8 -26.5t26 -19.5q19 -1 26 5t11 21q1 13 -10.5 23.5 t-16.5 25.5q-3 5 -12.5 29t-22.5 53t-23.5 57.5l-16.5 44.5q-5 16 -16 41.5t-21 51t-19 46t-12 25.5q0 4 -1 16t-4 25.5t-7 25t-9 15.5q-15 9 -27.5 -10.5t-15.5 -31.5t1.5 -21t4.5 -16t-6.5 -13.5t-8.5 -17.5q-7 -19 -7 -35q0 -7 -17 -43t-31 -71q-15 -36 -16 -49.5 t-4 -21.5q0 -9 -6 -27.5t-14 -32.5q-4 -8 -13.5 -25t-18 -34.5t-11 -32.5t8.5 -18zM365 234q9 -18 11 -34t0 -31q-2 -8 -8.5 -9t-17.5 1.5l-22.5 5t-19.5 2.5q-18 0 -25.5 2t-13.5 5q-5 2 -14 -1t-28 -11q-19 -7 -27 -6t-16 4q-4 2 -0.5 10t9.5 17.5t12 20.5t9 19 q1 9 9 29.5l15.5 41.5t14 36.5t6.5 16.5q0 5 -5 9t-9 6q-4 0 3.5 7.5t14.5 17.5q5 8 7.5 14t8.5 3q4 -1 16.5 -26t26 -55l26.5 -57.5t17 -37.5zM241 222l8 18q3 6 5.5 12.5t6.5 10.5q2 5 6 23l2 13q-5 -3 -10.5 -15.5t-8.5 -26.5q-5 -16 -9 -35zM291 187q-1 6 -5.5 14.5 t-9.5 5.5t-13 -3h-7zM199 77l140 6q-12 3 -35 1.5t-47 -3.5q-28 -3 -58 -4zM192 69q-1 -9 -5 -15q-7 -17 -13 -25l-16 -16q14 8 20 18q7 8 12.5 18t1.5 20zM488 126q4 -6 -0.5 8.5t-14 39.5t-24 59.5t-27.5 69.5l-82 193l72 -182l28 -67.5l24 -59t17 -43.5t7 -18zM268 682 q7 3 10 12q1 5 1 7h8q4 0 9 -1t8 -4q9 -3 22.5 -10.5t24.5 -14.5q10 -5 16.5 -9t12.5 -11q6 -5 6 -10.5t10 -16.5q9 -13 17.5 -6t16.5 15q8 7 -3 19q-5 7 -11 13l-17 13q-7 6 -14 11t-11 7q-4 0 -8.5 5.5t-12.5 10.5q-7 7 -15 14l-6 5q-9 10 -11 18q-4 12 -13.5 9.5 t-24.5 -4.5q-15 -4 -17.5 -8t-2.5 -11q0 -5 -17 -22l-30 -31q-12 -15 -22 -22.5t-20 -16.5q-8 -8 -7 -8t1 -11q0 -6 4 -5.5t8.5 3.5t8 4.5t2.5 -2.5q-4 -7 6.5 -1t23.5 18.5t27.5 24.5zM348 746l79 -69q-4 8 -17 19.5t-28 22.5q-17 12 -34 27z" />
<glyph unicode="&#xe3;" horiz-adv-x="585" d="M597 -324h-634v1222h634v-1222zM118 26q7 -1 13 -6.5t15 9.5q9 12 14 30.5t7 26.5q3 9 0 17.5t5 9.5q10 2 15.5 -7t17.5 -9t24.5 5.5t43.5 5.5q33 0 47.5 -3t26.5 3q12 5 23.5 14t17.5 5q1 -2 6.5 -10t9.5 -17t9 -18.5t5 -14.5q2 -11 8.5 -26.5t26.5 -19.5q19 -2 26 4.5 t9 21.5q3 13 -9 24.5t-18 23.5l-13 31l-21.5 53l-22.5 57t-16 44q-6 17 -16.5 42l-21 51t-19.5 46t-11 26q-2 4 -3 15.5t-4 25t-6.5 25t-11.5 15.5q-5 6 -11.5 2.5t-12 -11.5t-10 -17.5t-6.5 -15.5q-1 -9 3 -19.5t4 -15.5q0 -7 -6 -14.5t-9 -18.5q-7 -19 -7 -35 q0 -7 -17.5 -43t-32.5 -71q-12 -36 -13.5 -49.5t-4.5 -21.5q-1 -9 -6.5 -27t-13.5 -33q-4 -8 -13.5 -25t-18 -34.5t-11 -32.5t8.5 -18zM367 237q17 -34 10 -68q0 -7 -8 -7.5t-18.5 2l-22 5.5t-18.5 3q-30 0 -40 4q-4 2 -13 -1t-28 -12q-20 -4 -27 -3t-15 3q-4 3 -0.5 10 t9.5 16.5t12 20.5t9 19q1 9 9.5 29.5t16 41.5l13.5 37.5t6 18.5q0 3 -5 6.5l-9 6.5q-5 1 2 8t15 16q5 11 6.5 17t10.5 2q4 -1 16 -25.5t25.5 -56l26.5 -59t17 -34.5zM244 222l8 18q3 6 6 13.5t4 10.5q4 7 7 22l3 13q-5 -2 -10 -15t-8 -27q-6 -16 -10 -35zM294 187 q-1 6 -6 14.5t-11 6.5q-5 -1 -11 -1h-7zM202 78l138 5q-12 3 -34.5 2.5t-44.5 -2.5q-29 -2 -59 -5zM195 68q-2 -8 -6 -15q-7 -16 -13 -24q-4 -4 -6.5 -6t-4.5 -5q-4 -4 -4 -5q14 10 21 19q15 19 13 36zM491 125q4 -4 -0.5 10.5t-14 39l-24 59l-28.5 69.5l-81 193l72 -182 l28 -67.5l23.5 -59l17 -43.5t7.5 -19zM146 663q-5 -18 6.5 -23.5t22.5 -9.5q10 -2 18 -2t15 8q5 11 5.5 17.5t4.5 10.5q5 3 11.5 10.5t14.5 10.5q11 5 23 5t16 -3q3 -4 10.5 -12t18 -17.5t23 -17t24.5 -10.5q12 -1 26.5 5t26.5 14t21.5 15.5t12.5 11.5q3 6 1.5 17.5 t-5.5 14.5q-4 4 -8 -1t-8 -9l-11 -15v-7q0 -9 -8 -17t-10 4t-9 15q-7 4 -14 -4t-23 -2q-18 10 -33 34.5t-39 28.5q-12 0 -26.5 -5.5t-29.5 -13.5t-25.5 -15.5t-15.5 -13.5q-7 -6 -15 -6q-3 0 -3 1q-4 -1 -7 -6q-4 -4 -6.5 -7t-4.5 -6zM467 700v-15q0 -13 -5 -22 q-2 -10 -7.5 -12.5t-13.5 -5.5q-10 -4 -16.5 -9.5t-13.5 -6.5q-4 -1 4.5 0t20.5 6.5t22 13.5t14 18q11 45 -10 38zM277 660q-1 3 -5 4q-3 2 -15 2q-13 -2 -17 -6l-8 -3z" />
<glyph unicode="&#xe4;" horiz-adv-x="591" d="M600 -324h-634v1222h634v-1222zM121 26q7 -1 13 -6.5t15 6.5q9 15 14.5 32.5t6.5 25.5q3 10 0 19t5 9q11 1 16 -7t17 -8t24.5 4.5t43.5 4.5q33 0 48 -2t27 4q13 5 23.5 14t16.5 3q5 -4 16 -25.5t15 -32.5q1 -11 7.5 -26.5t26.5 -19.5q19 -2 26 4t11 21q1 14 -10.5 24 t-16.5 25q-3 6 -12.5 29.5t-22.5 53t-24 58t-16 44.5q-6 17 -16.5 42l-21 50.5l-19 46t-11.5 26.5q0 4 -1.5 15.5t-4 25t-6.5 25t-10 15.5q-15 10 -27 -10t-14 -32q-3 -12 1 -21t4 -16q0 -6 -6 -13t-9 -18q-7 -19 -7 -35q0 -7 -17 -43t-30 -71q-15 -36 -16.5 -49.5 t-4.5 -21.5q0 -10 -6 -28t-14 -32q-4 -8 -13.5 -25t-17.5 -34.5t-11 -32.5t8 -18zM370 234q10 -18 12 -34t-1 -31q-1 -8 -8 -9t-17.5 1t-22.5 5t-20 3q-17 0 -25 2t-13 5q-5 2 -13.5 -1.5l-27.5 -11.5q-19 -6 -27.5 -5t-16.5 4q-4 1 -0.5 9.5t9.5 18l12 20t9 19.5 q2 9 10 29.5l15.5 41.5l13.5 36.5t6 17.5q0 4 -4.5 8t-9.5 7q-4 0 3.5 7.5t14.5 16.5q5 8 7.5 14t8.5 4q4 -2 16 -27l25.5 -55l26.5 -57.5t17 -37.5zM247 222l9 17q2 7 5 13t7 11q1 5 4 23l3 13q-5 -2 -10 -15t-8 -27q-6 -16 -10 -35zM297 186q-1 7 -6 15.5t-9 5.5 q-6 -3 -13 -3h-7zM205 76l140 7q-13 3 -36 1.5t-45 -4.5zM198 68q-1 -8 -5 -15q-7 -16 -12 -24l-17 -17q14 9 21 18q7 8 12.5 18.5t0.5 19.5zM494 125q4 -5 -0.5 9t-14 39.5t-24 60l-28.5 69.5q-33 85 -81 193l72 -182l28 -67.5l23.5 -59l17 -43.5t7.5 -19zM192 717 q-4 0 -7 -4q-6 -1 -18 -8t-12 -24q0 -10 1.5 -15.5t1.5 -8.5v-15q0 -6 2 -12q0 3 2 6q1 4 1 6.5t4 5.5q2 5 4.5 16t6.5 23q0 -4 -1.5 -5t-1.5 -6q-1 -13 5 -18.5t5 -12.5q-6 -4 -10 -8q-8 -4 -8 -11q0 -19 26 -21q15 -4 34 5t23 43q1 18 -5.5 30t-17.5 19.5t-20.5 11 t-14.5 3.5zM331 626q0 -19 26 -21q13 -4 33 5t24 43q1 18 -5.5 30t-17.5 19.5t-20.5 11t-15.5 3.5q-9 0 -12 -13.5t-4 -27.5q0 -6 3.5 -9t9 -5t9 -3.5t3.5 -5.5l-18 -11q-15 -8 -15 -16zM332 706q-4 -4 -6 -8q-7 -11 -7 -17q0 -10 1 -15.5t1 -8.5v-15q0 -6 2 -12q0 3 3 6 q1 4 1 6.5t4 5.5q1 9 -1.5 30.5t2.5 27.5z" />
<glyph unicode="&#xe6;" horiz-adv-x="868" d="M896 898v-1222h-913v1222h913zM766 35q0 6 -0.5 14.5t-3 17t-6 15.5t-9.5 9q-7 2 -18.5 -0.5t-24.5 -7l-25.5 -9t-20.5 -5.5t-29.5 0.5t-46 4l-45 4.5t-24.5 2t-11 -1l-14 -2t-13.5 -1.5t-10.5 0.5q-3 1 -3 6t1.5 10.5l3 10.5t1.5 7q0 4 -1.5 13.5t-3.5 16.5 q-2 3 -2.5 18.5t0.5 33t3 32t5 15.5q8 3 19 1t18 2q4 0 18.5 0.5t31 0.5h31.5t20 -1q5 -2 8.5 -4t7 -3t9 -1t15.5 2q20 5 25 15.5t5 29.5q2 20 -10 26t-22 8q-6 2 -13 0.5t-15 -4t-15 -5.5t-13 -3q-5 -1 -16 0l-23 2t-23 1.5t-15 0.5q-5 0 -13.5 -0.5t-16.5 -1.5 q-10 -1 -21 -2v65q0 25 0.5 46.5t2.5 26.5q46 1 84 3q16 1 32 1.5t29.5 1t23.5 1t13 0.5q14 0 32.5 -2.5t33.5 -1.5q17 2 24.5 12.5t8.5 21.5t-8 27t-16 20q-8 5 -22 2t-23 -8q-5 -3 -16.5 -5t-25.5 -3.5t-27.5 -2t-20.5 -0.5q-6 0 -25.5 1t-42 1.5t-44 0.5t-32.5 -3l2 1 q-6 5 -18.5 2t-26 -10.5t-24.5 -16t-14 -14.5q-5 -11 -3.5 -19.5t0.5 -13.5q-3 -8 -11 -14.5t-16 -15.5q-8 -11 -11.5 -18.5t-6.5 -15.5q0 -3 -8.5 -13.5l-20.5 -25.5l-26.5 -32.5t-26.5 -34.5t-19 -28.5l-11 -18.5t-6 -11.5t-4 -7.5q-2 -8 -13.5 -24t-24.5 -32l-21.5 -21.5 t-29 -32.5t-20 -31t3.5 -16q3 0 7 -3t9.5 -5t13 -2t16.5 5q-6 -4 -8 -5t-3 -2q14 8 26 17q10 8 19 17.5t11 18.5l-13 -15q-5 -6 -10.5 -12t-10.5 -9q14 10 23.5 26t11.5 24q4 8 4 16t11 8q5 1 8 -1t5.5 -4.5t5.5 -5t8 -2.5q7 0 13.5 1.5t15.5 3t20.5 2t28.5 -0.5 q18 0 30 -0.5t21 -1t15.5 0.5t13.5 4q6 1 16.5 3t21.5 5q2 -26 4.5 -49.5t2.5 -26.5q0 -5 7.5 -18.5t17.5 -15.5q4 0 18.5 -0.5t35 -0.5t44 -0.5t43.5 -0.5h34.5h18.5q6 0 18 -2t25 -4.5t24.5 -4.5t16.5 -2q3 0 9.5 3t13 8t12 10.5t6.5 11.5zM412 375q1 -11 3 -28t3.5 -34 t2.5 -31t0 -19q-1 -3 -3 -10.5t-3.5 -17l-3 -19.5t-1.5 -19v-12.5t1 -17.5q-15 3 -30.5 5.5t-24.5 2.5q-20 0 -28 2t-13 3q-6 4 -17 0.5t-32 -8.5q-22 -7 -30 -5.5t-14 4.5q-4 1 1.5 7.5t14.5 15.5t18.5 19.5t14.5 18.5q4 8 17.5 27l28 38.5l26.5 34.5t13 17q0 4 -5 8t-9 4 q-3 1 7 8t20 16q5 5 19.5 14.5t26.5 14.5q-2 -12 -2.5 -22t-0.5 -17zM513 356q-6 16 -6.5 32t4.5 20q2 2 13 4.5t24 4.5q14 3 32 5h-95q-1 -16 -1 -28q0 -11 -0.5 -20.5t1.5 -12.5q0 -8 -4 -18q-2 -4 -3 -9q26 1 47 2q18 1 33.5 1.5t17.5 1.5q3 1 -5.5 1t-20.5 0.5t-23 4 t-14 11.5zM513 208q-4 0 -5 -2q-2 0 0 0t5 2q7 1 18.5 2t22 1.5t17.5 1.5t5 1q-5 3 -13.5 2.5t-17.5 -2t-18 -3.5t-14 -3zM498 144q-1 17 -3 31t-4 24l-6 21q0 -5 0.5 -21t1.5 -34q1 -21 3 -46l12 1q0 2 -1 9t-3 15zM502 120q1 -4 2.5 -4t3.5 2t3 4zM356 96q-12 3 -37 3 t-51 -2q-30 -2 -63 -5zM353 297q-8 -3 -17 -14.5t-18 -24.5q-11 -15 -21 -33q7 8 13 16q5 6 11 12.5t9 9.5q3 4 6.5 10t7.5 11zM339 191q2 8 -0.5 14.5t-10.5 4.5q-4 -1 -8 -1h-7h-8z" />
<glyph unicode="&#xe8;" horiz-adv-x="597" d="M611 -324h-634v1222h634v-1222zM360 447q14 0 32.5 -1.5t34.5 -0.5q15 0 22 12t8 21q3 11 -6 28t-17 20q-7 4 -21.5 1t-22.5 -8q-5 -3 -16.5 -5t-26 -2.5t-27.5 -2t-20 -1.5t-28.5 1.5t-45.5 2t-46 0t-30 -6.5q-7 -4 -11 -20t-6.5 -37t-3.5 -41.5t-1 -30.5q0 -11 1.5 -29 t3.5 -34t3 -30.5t-1 -18.5q-2 -8 -6 -29t-4 -38q0 -8 1.5 -31t4 -47l4.5 -44.5t2 -23.5q0 -4 8 -17.5t17 -14.5q6 0 35 -1t62.5 -2t62.5 -1h34q6 0 18 -1.5t25.5 -4.5t24 -5t14.5 -2q8 0 24.5 11t17.5 21q2 13 -2 32t-17 25q-7 1 -18 -1.5t-24.5 -6.5t-25.5 -9t-19 -5 q-8 -1 -30.5 1t-46 4.5t-44 4t-25.5 1.5q-8 0 -24 -3.5t-24 0.5q-7 3 -2 16.5t5 16.5q0 4 -1.5 13.5t-4.5 17.5q-2 3 -3 18t1 33l3.5 32t5.5 15q7 2 18 0.5t19 -0.5q4 2 18.5 3.5t30.5 1.5t30.5 -1.5t20.5 -3.5q11 -2 16 -4t25 2q19 2 24 14t5 31q2 17 -10.5 23.5 t-23.5 10.5q-9 2 -26 -4.5t-28 -8.5h-16.5t-22 1.5t-21.5 1.5h-17q-5 -1 -12.5 -1h-17.5q-8 0 -21 -2v66q0 24 1 46t3 25q46 1 84 4q32 1 60.5 2t36.5 1zM295 423h-94v-28q0 -11 -1.5 -20.5t1.5 -12.5q0 -8 -5 -18l-4 -11q28 2 48 3q20 3 34 3t18 1q1 0 -6.5 -0.5t-19.5 1 t-23.5 4t-14.5 12.5q-6 15 -6.5 32t4.5 21q5 1 15 2.5t22 5.5q15 4 32 5zM349 340l29 -19l-9.5 7t-8.5 7zM222 207q3 1 14.5 2t24.5 3t22.5 2.5t8.5 0.5q-6 4 -18 2t-24.5 -4.5l-20.5 -4t-7 -1.5zM201 219v-21t1 -35q1 -20 4 -44l20 2q-4 -6 -5 -6q-5 0 -7 29q-1 18 -2.5 32 t-4.5 23q-4 11 -6 20zM362 634q-14 6 -27 15.5t-25 15.5q-12 7 -28 21t-26 27q-11 12 -24.5 9t-22.5 -16q-8 -15 2.5 -22.5t20.5 -10.5q8 -3 13 -6l13 -8q5 -4 16.5 -10.5l25.5 -14.5l32 -21q10 -6 19 -10q9 -2 16 -4.5t11 -2.5q8 0 8.5 3t9.5 3t-6 13t-28 19zM244 635 q7 0 25 -9l21 -9l50 -23l-14 8q-8 4 -16 7q-15 8 -25 15l-42 25q2 -3 1 -8.5t0 -5.5z" />
<glyph unicode="&#xe9;" horiz-adv-x="596" d="M611 -324h-634v1222h634v-1222zM359 448q14 0 33 -2.5t34 0.5q16 0 23 11t8 22q3 11 -6 28t-18 19q-7 5 -21 2t-23 -8q-5 -4 -16.5 -5.5t-25 -3t-27.5 -2t-20 -0.5q-7 0 -28.5 0.5t-45 2t-46 0t-29.5 -5.5t-11.5 -21t-6.5 -38t-3.5 -41t-1.5 -31q0 -10 2 -28t3.5 -34 t2.5 -30.5t-1 -18.5q-2 -8 -6 -29t-4 -38q0 -8 1.5 -31t4 -47.5l4.5 -45t2 -21.5q0 -6 7.5 -18.5t18.5 -15.5q6 0 35 -0.5t62 -1.5t62 -1h33q6 0 18 -2t25.5 -4.5t24 -4t15.5 -1.5q10 0 25.5 10t16.5 21q3 12 -1.5 31.5t-17.5 24.5q-6 3 -17.5 0t-24.5 -7.5l-25.5 -8.5 t-20.5 -4q-8 -3 -30 -1t-45 4.5t-43.5 4.5t-25.5 2q-9 0 -25 -4t-23 0t-3 17t4 17q0 3 -0.5 12.5t-4.5 19.5q-1 2 -2 17t0.5 33t3.5 32t6 16q7 2 17 0t20 0q2 2 16.5 3t31 1t31.5 -1t20 -3q10 -3 15.5 -5t24.5 2q20 3 25 14.5t5 30.5q2 17 -10.5 23.5t-22.5 10.5 q-11 2 -28 -4.5t-26 -8.5h-17t-22.5 1.5t-21.5 1.5h-16q-5 -1 -13.5 -1h-16.5q-9 0 -21 -2v66q0 24 0.5 46t3.5 26q44 1 84 2q30 3 59.5 4t35.5 1zM294 423h-94v-28q0 -11 -0.5 -20.5t0.5 -12.5q0 -8 -3 -18l-4 -11q27 2 48 3q19 3 32.5 3t17.5 1q2 0 -5.5 -0.5t-20 1t-24 4 t-12.5 11.5q-6 15 -6.5 32t4.5 20q3 3 14 4.5t23 5.5q14 2 30 5zM349 340l28 -19q-4 3 -8.5 7t-9.5 7zM223 207q1 1 13 2t25.5 3t22.5 2.5t7 0.5q-5 4 -16.5 2t-24.5 -4.5l-20.5 -4t-6.5 -1.5zM200 219v-20.5t3 -33.5l2 -46l22 1q-4 -6 -5 -6q-6 0 -7 30q-3 18 -3.5 32.5 t-4.5 23.5q-3 10 -7 19zM210 626q6 0 8 -2.5t11 -2.5q4 0 10.5 2t14.5 4q9 4 18 10q15 12 32 20q13 10 24.5 16.5t17.5 11.5q9 2 13.5 5.5t12.5 7.5q9 1 21.5 9.5t2.5 21.5q-8 15 -23 17t-24 -10q-11 -12 -27.5 -25.5t-28.5 -21.5q-11 -4 -23 -14.5t-25 -17.5 q-15 -5 -30 -18t-5 -13zM361 674l-42 -28q-11 -6 -26 -13q-7 -4 -15 -7l-14 -9l49 23l22 11q18 8 24 8q2 0 0.5 5.5t1.5 9.5z" />
<glyph unicode="&#xea;" d="M611 -324h-634v1222h634v-1222zM360 447q14 0 32 -1.5t34 0.5q17 0 23.5 11.5t8.5 20.5q2 11 -6.5 28t-18.5 20q-7 4 -21 1.5t-22 -8.5q-6 -3 -17.5 -5t-25.5 -2.5t-27 -2t-20 -1.5q-8 0 -29 1.5t-45 2t-45.5 0t-29.5 -5.5q-7 -5 -11 -21t-7 -37t-4 -41.5t-1 -31.5 t2 -28.5l4 -33.5t2.5 -30.5t-0.5 -18.5q-3 -8 -7 -29t-4 -37q0 -9 1.5 -32t4 -47.5l4.5 -44.5t2 -23q0 -4 8 -17.5t18 -15.5q5 0 34.5 -0.5t62 -2t61.5 -1.5h35q5 0 17.5 -1t26 -4t23.5 -5t16 -2q8 0 24 11t18 20q1 14 -3 33t-16 24q-7 2 -18.5 -1t-25 -7t-26 -8.5 t-18.5 -4.5q-9 -2 -31 0t-45.5 5t-44 4t-25.5 1q-8 0 -23.5 -3t-23.5 1q-7 2 -2.5 16t4.5 16q0 4 -1 13.5t-4 19.5q-3 3 -3.5 17.5t1.5 32.5l3.5 32t5.5 16q6 1 17 -0.5t19 0.5q4 1 18.5 2.5t30 1.5t30.5 -1.5t21 -2.5q10 -3 15.5 -5t24.5 2q19 3 24.5 14.5t5.5 30.5 q2 17 -10.5 23l-23.5 11q-9 2 -26 -4.5t-28 -8.5h-16t-22 1.5t-22 1.5h-16q-6 -1 -13.5 -1h-16.5q-8 0 -22 -2v65q0 25 1.5 46.5t2.5 25.5q46 2 84 4q32 2 60.5 2.5t36.5 0.5zM295 423h-94v-29q0 -11 -1.5 -20.5t1.5 -11.5q0 -8 -4 -18l-4 -11q27 2 47 3q21 3 34 3t17 1 q1 0 -6 -0.5t-19 0.5t-23.5 4t-14.5 12q-5 15 -6 32t5 21q4 2 14 3t22 5q15 4 32 6zM349 340l29 -19l-9.5 7t-8.5 7zM223 207q2 1 13.5 2t24.5 3t22 2.5t8 0.5q-6 4 -17.5 2t-23.5 -4.5t-20.5 -4t-6.5 -1.5zM201 219v-21t1 -34q2 -21 4 -45l21 1q-4 -5 -6 -5q-5 0 -7 30 q-1 17 -2.5 31.5t-3.5 22.5q-4 11 -7 20zM266 682q7 3 10 12q2 5 2 7h7q4 0 8.5 -1t8.5 -4q8 -3 22 -10.5t25 -14.5q8 -5 15.5 -9t13.5 -11q6 -5 6 -10.5t9 -17.5q10 -13 18.5 -6t16.5 16q7 7 -3 19q-5 7 -11 13l-17 13q-7 6 -14.5 11l-10.5 7q-4 0 -9.5 5.5t-12.5 10.5 q-6 7 -16 14l-4 5q-9 10 -11 18q-4 12 -13.5 9.5t-24.5 -4.5q-15 -4 -17.5 -8t-2.5 -11q0 -5 -17 -22l-30 -31q-12 -15 -22.5 -22.5t-19.5 -16.5q-9 -8 -7.5 -8t1.5 -12q0 -6 4 -5.5t8.5 3.5t8 5t2.5 -3q-4 -7 6.5 -0.5t23.5 19t27.5 24.5zM345 746l80 -69q-4 8 -17 19.5 t-28 22.5q-17 12 -35 27z" />
<glyph unicode="&#xeb;" horiz-adv-x="593" d="M611 -324h-634v1222h634v-1222zM359 448q14 0 33 -2.5t34 0.5q16 0 23 11t8 22q3 11 -6 28t-18 19q-7 5 -21 2t-23 -8q-5 -4 -16.5 -5.5t-25 -3t-27.5 -2t-20 -0.5q-7 0 -28.5 0.5t-45 2t-46 0t-29.5 -5.5t-11.5 -21t-6.5 -38t-3.5 -41t-1.5 -31q0 -10 2 -28t3.5 -34 t2.5 -30.5t-1 -18.5q-2 -8 -6 -29t-4 -38q0 -8 1.5 -31t4 -47.5l4.5 -45t2 -21.5q0 -6 7.5 -18.5t18.5 -15.5q6 0 35 -0.5t62 -1.5t62 -1h33q6 0 18 -2t25.5 -4.5t24 -4t15.5 -1.5q10 0 25.5 10t16.5 21q3 12 -1.5 31.5t-17.5 24.5q-6 3 -17.5 0t-24.5 -7.5l-25.5 -8.5 t-20.5 -4q-8 -3 -30 -1t-45 4.5t-43.5 4.5t-25.5 2q-9 0 -25 -4t-23 0t-3 17t4 17q0 3 -0.5 12.5t-4.5 19.5q-1 2 -2 17t0.5 33t3.5 32t6 16q7 2 17 0t20 0q2 2 16.5 3t31 1t31.5 -1t20 -3q10 -3 15.5 -5t24.5 2q20 3 25 14.5t5 30.5q2 17 -10.5 23.5t-22.5 10.5 q-11 2 -28 -4.5t-26 -8.5h-17t-22.5 1.5t-21.5 1.5h-16q-5 -1 -13.5 -1h-16.5q-9 0 -21 -2v66q0 24 0.5 46t3.5 26q44 1 84 2q30 3 59.5 4t35.5 1zM294 423h-94v-28q0 -11 -0.5 -20.5t0.5 -12.5q0 -8 -3 -18l-4 -11q27 2 48 3q19 3 32.5 3t17.5 1q2 0 -5.5 -0.5t-20 1t-24 4 t-12.5 11.5q-6 15 -6.5 32t4.5 20q3 3 14 4.5t23 5.5q14 2 30 5zM349 340l28 -19q-4 3 -8.5 7t-9.5 7zM223 207q1 1 13 2t25.5 3t22.5 2.5t7 0.5q-5 4 -16.5 2t-24.5 -4.5l-20.5 -4t-6.5 -1.5zM200 219v-20.5t3 -33.5l2 -46l22 1q-4 -6 -5 -6q-6 0 -7 30q-3 18 -3.5 32.5 t-4.5 23.5q-3 10 -7 19zM334 626q0 -19 25 -22q14 -2 33.5 6.5t22.5 44.5q3 16 -4.5 29t-17.5 19.5t-19.5 10t-15.5 3.5q-9 0 -12 -13t-4 -28q0 -6 3.5 -9t8.5 -4.5t8.5 -3.5t3.5 -4l-17 -11q-15 -10 -15 -18zM335 706q-4 -2 -7 -8q-7 -11 -7 -18q0 -9 1.5 -14t1.5 -9v-13 q0 -7 1 -13q0 2 3 6q2 3 2 5.5t4 6.5q1 8 -1.5 29t2.5 28zM195 717q-3 0 -7 -3q-6 -2 -18 -9t-12 -25q0 -9 2 -14t2 -9v-13q0 -7 1 -13q0 2 2 6q2 3 2 5.5t3 6.5q3 6 5 16t6 22q0 -2 -0.5 -4.5t-0.5 -6.5q-3 -13 3.5 -18.5t4.5 -12.5q-6 -4 -8 -7q-10 -5 -10 -12 q0 -19 27 -22q14 -2 33.5 6.5t22.5 44.5q1 16 -5.5 29t-17 19.5t-20.5 10t-15 3.5z" />
<glyph unicode="&#xec;" horiz-adv-x="596" d="M614 -324h-634v1222h634v-1222zM372 525l5 -3q1 -3 8 1q20 7 0 12q-10 4 -16 -2.5t-11 -9.5q-7 -4 -14 -13t-33 -11q-24 -4 -39 -3.5t-30 0.5q-7 0 -18 2t-19.5 1.5t-16 -6.5t-10.5 -19q-1 -15 7.5 -19t20 -5t23.5 -1t14 -3q18 -22 18 -75q0 -13 1.5 -55.5t2 -89t1 -85 t0.5 -44.5q-1 -12 -5 -23.5t-15 -13.5q-11 -4 -17 -1t-13 3q-4 0 -11 -7t-12 -15.5t-8.5 -17t-0.5 -9.5q5 -5 33.5 -2.5t46.5 2.5h35t31 -4q15 -3 33 -2t26 13q9 11 11 26.5t-4 22.5q-7 5 -13 6.5t-12 1.5q-7 -3 -15 4.5t-15 7.5t-17.5 -9t-16.5 -7q-2 0 -3 9.5t-2 23 t-1 25.5v19v259v19t6 11q11 8 26 1q4 -1 21 -5t27 4q8 8 16 17.5t4 19.5q-1 11 -8.5 17.5t-14.5 10.5q-6 2 -10.5 5t-1.5 7q2 0 9 1.5t14 1.5t13 -3.5t8 -11.5q2 -9 2.5 -16t0.5 -12q0 -7 -1 -11q1 13 1 24q0 10 -0.5 18.5t-4.5 11.5q-6 3 -12 4.5t-11 1.5h-13zM241 541 l144 -6q-34 4 -64 6l-49.5 2t-30.5 -2zM336 392l5 -280l10 1q-3 -1 -3 0q-1 2 -3 13q-2 6 -3 47.5t-2 90.5zM352 104q0 -3 5.5 -4.5t13 -1.5t15 -0.5t8.5 -0.5q4 -3 13 -13t9 -15q0 -7 0.5 -16t-0.5 -5q0 3 0.5 24.5t-16.5 30.5q-18 9 -31.5 11t-16.5 -10zM359 633 q-14 4 -25.5 14.5t-23.5 17.5q-12 5 -28.5 20t-27.5 27q-8 12 -23 9t-24 -18q-9 -14 3.5 -21t20.5 -11q10 -1 13 -4.5t14 -7.5q3 -4 16 -10.5t25 -15.5q16 -8 31 -20q10 -6 18 -10q18 -7 27 -7q8 0 9 3t10 3q8 0 -7 12t-28 19zM243 633q3 0 8 -2q3 -2 8 -3.5t7 -2.5l22 -11 l49 -23l-13 9q-9 3 -17 7q-14 7 -24 14l-42 26q5 -4 2.5 -9t-0.5 -5z" />
<glyph unicode="&#xed;" horiz-adv-x="591" d="M614 -324h-634v1222h634v-1222zM374 525l2 -4q3 -2 10 2q19 7 0 13q-11 2 -17 -4t-12 -9q-6 -4 -12.5 -12.5t-33.5 -12.5q-26 -3 -40.5 -2.5t-28.5 0.5q-7 0 -17.5 2t-19.5 1t-17 -7.5t-10 -18.5q-1 -14 8 -18.5t20.5 -5t22 -0.5t14.5 -3q18 -22 18 -75q0 -13 0.5 -55 t2 -89t2 -86t0.5 -44q-1 -12 -5.5 -23t-15.5 -14q-10 -2 -16 0.5t-14 2.5q-3 0 -10.5 -7.5t-12 -16.5t-8.5 -16t0 -10q5 -6 33 -3t45 3h36.5t33.5 -3q13 -4 30.5 -3.5t26.5 14.5q9 9 12 25.5t-4 23.5q-8 5 -14.5 6t-11.5 1q-7 -2 -14.5 5t-15.5 7q-7 0 -17 -9t-15 -7 q-5 0 -5.5 10t-1 23t-0.5 25v19v258v19.5t7 10.5q10 9 24 2q5 -2 21.5 -5.5t25.5 3.5q9 9 17 18.5t4 19.5q-2 9 -8.5 16.5t-13.5 10.5q-5 3 -10.5 6t-1.5 6q1 0 8 2t14.5 2t13.5 -3.5t7 -12.5q2 -8 3 -15.5t1 -11.5q0 -8 -2 -11q2 14 2 24q0 9 -1 17.5t-4 12.5q-5 2 -11.5 4 t-11.5 2h-12zM239 540l147 -4q-35 2 -65 4q-25 2 -49.5 3t-32.5 -3zM337 392l4 -280l10 1q-2 -1 -2 0q-2 2 -4 13q-1 6 -2.5 47.5t-2.5 90.5zM352 105q0 -4 5.5 -4.5t13.5 -0.5t15 -1.5t8 -1.5q4 -3 13 -12.5t9 -14.5q0 -7 0.5 -16t-0.5 -6q0 4 0.5 25t-17.5 29 q-17 10 -30 12.5t-17 -9.5zM207 626q8 0 9.5 -2.5t9.5 -2.5q4 0 10.5 2l16.5 5l16 9q16 13 33 21q13 9 24.5 16t17.5 11q11 3 14 6t12 7q9 2 21.5 10t2.5 22q-8 15 -23 17t-24 -11q-10 -12 -27 -25.5t-29 -21.5q-12 -4 -23.5 -14.5t-25.5 -16.5q-15 -6 -30 -19t-5 -13z M361 674l-42 -27q-10 -7 -27 -14q-7 -4 -15 -7l-15 -9l52 23l20 11q18 8 23 8q4 0 1.5 5.5t2.5 9.5z" />
<glyph unicode="&#xee;" horiz-adv-x="601" d="M612 -324h-634v1222h634v-1222zM372 525l2 -4q3 -2 10 2q19 7 0 13q-11 2 -17 -4t-12 -9q-6 -4 -12.5 -12.5t-33.5 -12.5q-26 -3 -40.5 -2.5t-28.5 0.5q-7 0 -17.5 2t-19.5 1t-17 -7.5t-10 -18.5q-1 -14 8 -18.5t20.5 -5t22 -0.5t14.5 -3q18 -22 18 -75q0 -13 0.5 -55 t2 -89t2 -86t0.5 -44q-1 -12 -5.5 -23t-15.5 -14q-10 -2 -16 0.5t-14 2.5q-3 0 -10.5 -7.5t-12 -16.5t-8.5 -16t0 -10q5 -6 33 -3t45 3h36.5t33.5 -3q13 -4 30.5 -3.5t26.5 14.5q9 9 12 25.5t-4 23.5q-8 5 -14.5 6t-11.5 1q-7 -2 -14.5 5t-15.5 7q-7 0 -17 -9t-15 -7 q-5 0 -5.5 10t-1 23t-0.5 25v19v258v19.5t7 10.5q10 9 24 2q5 -2 21.5 -5.5t25.5 3.5q9 9 17 18.5t4 19.5q-2 9 -8.5 16.5t-13.5 10.5q-5 3 -10.5 6t-1.5 6q1 0 8 2t14.5 2t13.5 -3.5t7 -12.5q2 -8 3 -15.5t1 -11.5q0 -8 -2 -11q2 14 2 24q0 9 -1 17.5t-4 12.5q-5 2 -11.5 4 t-11.5 2h-12zM237 540l147 -4q-35 2 -65 4q-25 2 -49.5 3t-32.5 -3zM335 392l4 -280l10 1q-2 -1 -2 0q-2 2 -4 13q-1 6 -2.5 47.5t-2.5 90.5zM350 105q0 -4 5.5 -4.5t13.5 -0.5t15 -1.5t8 -1.5q4 -3 13 -12.5t9 -14.5q0 -7 0.5 -16t-0.5 -6q0 4 0.5 25t-17.5 29 q-17 10 -30 12.5t-17 -9.5zM264 682q7 4 11 12q2 4 2 7h8q4 0 8 -1.5t8 -2.5l22.5 -11t25.5 -15q8 -4 15.5 -8.5t12.5 -11.5q7 -6 7 -11t8 -18q11 -12 19 -4.5l16 15.5q7 7 -2 19q-6 7 -11 12l-18 15q-7 6 -14.5 10.5t-9.5 7.5q-4 0 -9.5 5t-12.5 10l-15 15l-5 4 q-10 10 -11 18q-4 12 -13.5 10l-24.5 -5q-17 -3 -19.5 -7.5t-2.5 -11.5q0 -5 -17 -21.5t-29 -31.5q-12 -13 -22.5 -21.5t-19.5 -16.5q-8 -9 -7.5 -9t0.5 -13q0 -5 4.5 -3.5t9 4t7.5 4t2 -4.5q-4 -6 7 0.5t24 19.5t27 25t19 15zM345 746l80 -69q-4 9 -17 20.5t-28 21.5 q-18 12 -35 27z" />
<glyph unicode="&#xef;" d="M614 -324h-634v1222h634v-1222zM374 525l2 -4q3 -2 10 2q19 7 0 12q-11 3 -17 -3t-12 -9q-6 -4 -12.5 -12.5t-33.5 -13.5q-26 -2 -40.5 -1.5t-28.5 0.5q-7 0 -17.5 2t-19.5 0.5t-17 -7.5t-10 -18q-1 -14 8 -18.5t20.5 -5t22 -0.5t14.5 -3q18 -22 18 -75q0 -13 0.5 -55.5 t2 -89t2 -85.5t0.5 -44q-1 -12 -5.5 -23t-15.5 -14q-10 -2 -16 0.5t-14 2.5q-3 0 -10.5 -7.5t-12 -16.5l-8.5 -16.5t0 -9.5q5 -6 33 -3t45 3h36.5t33.5 -3q13 -4 31 -3.5t26 14.5q9 9 12 25.5t-4 23.5q-8 5 -14.5 6t-11.5 1q-7 -2 -14.5 5t-15.5 7q-7 0 -17 -9t-15 -8 q-4 0 -5 10.5t-1.5 23.5t-0.5 25v19v258v19.5t7 10.5q10 9 24 2q5 -2 21.5 -5.5t26.5 3.5l16 18.5t4 19.5q-1 9 -8 16.5t-14 10.5q-5 3 -10.5 6t-1.5 6q1 0 8 2t14.5 2t13.5 -3.5t7 -12.5q2 -8 3 -15.5t1 -11.5q0 -8 -2 -11q2 13 2 24q0 8 -1 17t-4 13q-5 2 -11.5 4t-11.5 2 h-12zM239 540l147 -5q-35 3 -65 5q-25 2 -49.5 3t-32.5 -3zM337 392l4 -280l10 1q-2 -1 -2 0q-2 2 -4 12q-1 7 -2.5 48.5t-2.5 90.5zM352 105q0 -4 5.5 -4.5t13.5 -0.5t15 -1.5t8 -1.5q4 -3 13 -12.5t9 -14.5q0 -7 0.5 -16t-0.5 -6q0 4 0.5 25t-16.5 29q-18 10 -31 12.5 t-17 -9.5zM341 626q0 -19 27 -21q14 -3 33.5 6t22.5 44q3 16 -4.5 29t-18 20t-20.5 10t-14 3q-10 0 -12.5 -12.5t-3.5 -27.5q0 -7 3 -10t8.5 -4t9 -3t3.5 -5l-18 -11q-16 -9 -16 -18zM344 707q-4 -3 -7 -9q-8 -10 -8 -17q0 -10 2 -14.5t2 -8.5v-14q0 -7 1 -12q0 1 3 5 q1 3 1 5.5t3 7.5q3 8 0 29t3 28zM201 717q-4 0 -6 -2q-6 -3 -18 -10t-12 -24q0 -10 1 -14.5t1 -8.5v-14q0 -7 3 -12q0 1 1 5q2 3 2 5.5t4 7.5q1 5 4 15l7 23q0 -3 -1.5 -5t-1.5 -6q-1 -14 5 -19.5t5 -12.5q-6 -4 -10 -6q-8 -6 -8 -13q0 -19 26 -21q15 -3 34 6t23 44 q1 16 -6 29t-17.5 20t-20 10t-15.5 3z" />
<glyph unicode="&#xf0;" horiz-adv-x="604" d="M612 -324h-632v1222h632v-1222zM309 468q26 -4 48.5 -22.5t37 -45.5t22 -59t7.5 -63t-8.5 -64t-24.5 -61.5t-37 -47t-44 -18.5q-24 0 -52 10t-51.5 35.5t-40 64.5t-12.5 97q2 57 24.5 92t48.5 53t50.5 23.5t31.5 5.5zM381 498q-25 24 -42.5 33t-7.5 -7q1 -3 -22 -3 t-53.5 -6t-63 -22.5t-50.5 -48.5q-19 -34 -30.5 -84.5t-9.5 -102.5t18.5 -101.5t55.5 -80.5q38 -31 77.5 -42t72 -5t58 24.5t39.5 45.5q12 26 23 59t17 67.5t4.5 67t-7.5 58.5q-32 102 -79 148zM540 200q-5 -5 -5 -7q0 -10 7 -11zM405 526q-23 14 -40.5 23t-31.5 11 q-16 6 -29 6q9 -3 16 -6q7 -2 12 -3t8 -3q4 0 22 -9.5t38 -25.5t38.5 -35.5t26.5 -39.5q7 -22 14.5 -50t11.5 -57t6 -58t-2 -52q-6 -45 -18.5 -82.5t-53.5 -76.5q-20 -22 -42.5 -34t-40.5 -20q-20 -10 -39 -15q32 7 64 22q27 12 54 32t45 50q16 30 25 66.5t13 70.5t3 62.5 t-3 39.5q-2 12 -8.5 36.5t-19 51.5t-30 53.5t-39.5 42.5zM262 431q-17 -10 -30 -23q-13 -12 -25.5 -28t-20.5 -38q-14 -46 -7 -97.5t22 -81.5q6 -15 18.5 -26.5t25 -17.5t23 -9t11.5 1q4 4 -6.5 13.5t-23.5 22.5q-5 5 -14 11t-16.5 19t-15 35.5t-8.5 60.5q-4 39 7 69t24 49 q17 23 36 40zM385 594q8 0 -7 13t-28 18q-15 7 -26 17.5t-23 15.5q-14 7 -30 20.5t-27 26.5q-8 13 -23 10t-25 -18q-8 -13 4.5 -21.5t20.5 -9.5q9 -4 12.5 -7.5t14.5 -5.5q3 -5 15 -11.5t27 -16.5q15 -8 31 -20l18 -9q17 -7 26 -7t9.5 2.5t10.5 2.5zM230 642q6 -4 3 -9t0 -5 t8 -3q3 -1 7.5 -3t7.5 -3l22 -11l50 -22l-14 8l-16 7q-15 7 -26 15z" />
<glyph unicode="&#xf1;" horiz-adv-x="596" d="M612 -324h-631v1222h631v-1222zM149 662q-5 -17 6.5 -22.5t22.5 -9.5q11 -2 18.5 -2t15.5 8q4 11 5.5 17.5t3.5 10.5q5 3 11.5 10.5t16.5 10.5q10 5 22.5 5t17.5 -3q2 -4 9.5 -12t18 -17.5t23 -17.5t24.5 -10q12 -1 26.5 5t26.5 14.5t21.5 16t12.5 11.5q3 5 1.5 16.5 t-5.5 14.5q-4 4 -8 -1l-8 -10l-10 -14v-6q0 -10 -9 -18q-9 -10 -11 3t-8 16q-7 4 -13 -4t-24 -1q-18 9 -33 33.5t-39 28.5q-12 0 -27 -5.5t-30 -13.5t-26 -16t-16 -13q-7 -8 -14 -8q-4 0 -4 3q-3 -3 -7 -5q-4 -4 -6 -7.5t-5 -7.5zM471 700v-15q0 -12 -2 -23 q-4 -9 -9.5 -11.5t-13.5 -5.5q-10 -4 -17 -9.5t-13 -6.5q-4 -1 4.5 0t20 6.5t22 14t14.5 17.5q11 45 -8 38zM281 660q-1 2 -5 4q-3 2 -15 2q-12 -2 -18 -6l-7 -2zM177 65q1 9 -7 20t-10 20q0 6 -0.5 28.5t-2 51.5t-1.5 57.5v43.5q3 28 5.5 45.5t0.5 24.5q-2 4 -8 -8 q-5 -7 -10 -15q-1 16 -3 30q-2 12 -1 23.5t4 15.5q10 7 15 12.5t12 -0.5q2 -1 14 -21.5l29.5 -49.5l37.5 -61.5l37 -62l29.5 -50t14.5 -23.5l35 -47q1 -3 3.5 -12.5l5 -20t6 -21t8.5 -12.5q4 -4 14.5 -4.5t20.5 0t19 5.5t10 13q4 19 -4 47.5t-8 93.5q0 31 1.5 71t1.5 78 t0.5 69.5t1.5 43.5q3 24 8 38.5t2 21.5q-3 2 -3.5 9t-3.5 14q-4 6 -5 13q-6 -8 -11 -16q-11 -15 -17 -19l-14.5 -7.5t-9.5 -13.5q0 -9 7.5 -34t4.5 -47q0 -11 -0.5 -43.5t-2.5 -68t-3 -68.5t-1 -39q-4 -14 -6 -33t-11 -23q-7 -8 -16.5 -6t-16.5 14q-8 14 -13 24t-7 19 q-3 11 -4.5 20t4.5 13q4 1 5.5 1t5.5 2q4 0 5 3q-14 14 -26 31q-26 30 -34 44q-5 7 -16.5 30.5l-24 51l-24 51l-14.5 29.5q-9 9 -18.5 33t-14.5 29q-6 6 -6 12.5v10.5t-1.5 -1.5t-6.5 -10.5t-23.5 -14t-21.5 -20q0 -4 3 -14l6 -19.5t7 -18.5t4 -13q2 -8 -3.5 -29t-5.5 -34 t-4 -29.5t-4 -27.5q0 -4 -1.5 -39t-1.5 -78.5v-81.5t3 -46q12 -39 30 -37q8 3 17.5 14.5t12.5 17.5zM196 63v83v58.5t1 31.5q0 2 -2.5 16t-5.5 27q-6 15 -10 32q4 -66 7 -120q3 -23 3.5 -45.5t2.5 -40t3 -29t1 -13.5zM345 274l-24 49l-22.5 44t-20.5 37q-9 16 -19 36.5 t-21 39.5l-20 34t-16 19q-6 2 -11.5 5.5l-11.5 7.5t-12 6q19 -23 39 -52q18 -24 39 -57.5t42 -71.5q21 -41 32.5 -60.5t16.5 -25.5q8 -11 9 -11zM475 77v-21q2 2 2 7v7t-2 7zM409 1h7q2 0 13 4q4 0 8 2.5l10 6.5q7 3 12 8zM209 202l10 9l-3 8zM471 99v2q0 3 1 5t1 6t4 9 t4 10v187q0 80 1 182q-4 -4 -5.5 -23.5t-3.5 -49t-2 -65.5v-73v-190z" />
<glyph unicode="&#xf2;" horiz-adv-x="596" d="M612 -324h-632v1222h632v-1222zM295 469q26 -4 48.5 -22.5t37.5 -46t22.5 -59t7.5 -63.5q0 -31 -9 -64.5t-24.5 -62t-37 -47t-44.5 -18.5q-22 0 -50 10.5t-52 35.5t-40 64.5t-12 98.5q1 57 23.5 91.5t49 53t50 24t30.5 5.5zM367 499q-24 24 -42 33t-8 -8q1 -2 -21 -2 t-52.5 -6t-63.5 -22.5t-50 -49.5q-19 -34 -31 -84t-9.5 -102.5t18.5 -102.5t56 -81q38 -31 77.5 -42t71 -5t57.5 24.5t39 45.5q13 26 23.5 59.5t17 68t5 67.5t-8.5 58q-31 102 -79 149zM526 199q-4 -4 -4 -6q0 -10 7 -11zM392 527q-24 14 -41.5 23t-31.5 11q-16 6 -29 6 q9 -3 16 -6q7 -2 12.5 -3t7.5 -4q4 0 22 -9.5t38.5 -25t38.5 -35t26 -40.5q7 -22 14.5 -49.5t11.5 -57t6 -58.5t-2 -52q-5 -45 -18 -82.5t-54 -77.5q-20 -21 -42.5 -33.5t-40.5 -20.5q-20 -10 -39 -15q32 7 64 22q27 12 54 32.5t45 50.5q16 30 25 66.5t13 70.5t3.5 62.5 t-3.5 39.5q-1 12 -8 36.5t-19 52t-30 54t-39 42.5zM249 432q-16 -11 -30 -23q-12 -12 -25 -28.5t-21 -38.5q-13 -46 -6.5 -97.5t21.5 -81.5q7 -15 19 -26.5t25 -18t23.5 -9t11.5 1.5q4 4 -7 13.5t-23 21.5q-5 6 -14 12t-16.5 19t-15 35.5t-8.5 60.5q-4 39 6.5 69t24.5 49 q16 23 35 41zM371 593q8 0 -7 13t-28 19q-15 6 -26 16.5t-23 15.5q-12 7 -28 20.5t-27 27.5q-8 12 -23 9.5t-25 -17.5q-8 -14 4 -22t21 -10q9 -4 12.5 -7.5t14.5 -5.5q2 -4 14.5 -11l27.5 -16l29 -21l18 -9q18 -5 26 -5q9 0 10 1.5t10 1.5zM218 641q6 -4 3 -9t0 -5t8 -2 q3 -2 7.5 -4t7.5 -3l22 -11l48 -20l-14 6q-9 4 -15 7q-14 7 -25 15z" />
</font>
</defs>
</svg>
